<?xml version="1.0" encoding="utf-8"?>
<!-- Generator: Adobe Illustrator 21.1.0, SVG Export Plug-In . SVG Version: 6.00 Build 0)  -->
<svg version="1.1" id="Layer_1" xmlns="http://www.w3.org/2000/svg" xmlns:xlink="http://www.w3.org/1999/xlink" x="0px" y="0px"
	 viewBox="0 0 100 125" style="enable-background:new 0 0 100 125;" xml:space="preserve">
<g>
	<g>
		<path d="M94.3,18.5c-0.7-0.7-1.7-1.1-2.7-1.1c-2.1,0-3.9,1.8-3.9,3.9v15.4c1,0.3,1.9,0.8,2.7,1.6c1.1,1.1,1.8,2.7,1.8,4.3
			c0,1.6-0.6,3.1-1.8,4.3c0,0,0,0,0,0L78.3,58.8c-0.4,0.4-1.1,0.4-1.6,0c-0.4-0.4-0.4-1.1,0-1.6l12.1-12.1l0,0
			c0.7-0.7,1.1-1.7,1.1-2.7c0-1-0.4-2-1.1-2.7c-0.6-0.6-1.3-0.9-2.1-1.1l-0.3,0c-1.2-0.1-2.3,0.3-3.1,1.1L57.7,65.4
			c-1.4,1.4-2.3,3.4-2.3,5.4l0,16.6c0,1.1,0.9,1.9,1.9,1.9h13.8c1.1,0,1.9-0.9,1.9-1.9v-5.4l21.2-21.2C95,60,95.4,59,95.4,58V21.2
			C95.4,20.2,95,19.2,94.3,18.5z"/>
		<path d="M42.3,65.4L16.6,39.7c-0.8-0.8-1.9-1.2-3.1-1.1l-0.3,0c-0.8,0.1-1.5,0.5-2.1,1.1c-0.7,0.7-1.1,1.7-1.1,2.7
			c0,1,0.4,2,1.1,2.7v0l12.1,12.1c0.4,0.4,0.4,1.1,0,1.6c-0.4,0.4-1.1,0.4-1.6,0L9.6,46.7c0,0,0,0,0,0c-1.1-1.1-1.8-2.7-1.8-4.3
			c0-1.6,0.6-3.1,1.8-4.3c0.7-0.7,1.7-1.3,2.7-1.6V21.2c0-2.1-1.8-3.9-3.9-3.9c-1,0-2,0.4-2.7,1.1c-0.7,0.7-1.1,1.7-1.1,2.7V58
			c0,1,0.4,2,1.1,2.7L27,81.9v5.4c0,1.1,0.9,1.9,1.9,1.9h13.8c1.1,0,1.9-0.9,1.9-1.9l0-16.6C44.5,68.7,43.7,66.8,42.3,65.4z"/>
	</g>
	<path d="M52.2,29h2.7c0.1,0.2,0.3,0.5,0.4,0.7c1.3,2.1,4.3,2.1,4.3,2.1c0,0,3,0,4.3-2.1c0.1-0.2,0.3-0.4,0.4-0.7h2.7v-7.5h0
		c0.2-2.5-0.3-6.2-1.4-7.7c-2-2.9-6-2.9-6-2.9c0,0-4,0-6,2.9c-1.1,1.5-1.6,5.2-1.4,7.7L52.2,29L52.2,29z"/>
	<path d="M76.1,39.5c-0.1-0.9-0.4-2.1-0.8-3.4c-0.7-1.9-2-3.5-3.9-4.1c-0.9-0.3-1.8-0.6-2.6-0.8h-1.8h-1.5c-1.9,2.7-5.5,2.7-5.9,2.7
		c-0.4,0-3.9-0.1-5.9-2.7h-1.5h-1.9c-0.8,0.2-1.7,0.5-2.6,0.8c-1.8,0.6-3.2,2.3-3.9,4.1c-0.5,1.3-0.7,2.5-0.8,3.4
		c0,0.2,0,0.3-0.1,0.5c0,0.8,0.7,1.4,1.5,1.4h15.1h15.1c0.8,0,1.4-0.6,1.5-1.4C76.1,39.8,76.1,39.7,76.1,39.5z"/>
	<path d="M38.1,29.6c1.3,2.1,4.3,2.1,4.3,2.1c0,0,3,0,4.3-2.1c1.3-2,2.9-5.7,3.1-8.2c0.2-2.5-0.3-6.2-1.4-7.7c-2-2.9-6-2.9-6-2.9
		c0,0-4,0-6,2.9c-1.1,1.5-1.6,5.2-1.4,7.7C35.2,23.9,36.8,27.6,38.1,29.6z"/>
	<path d="M40.8,39.2c0.2-1.3,0.5-2.6,1-3.8c0.2-0.5,0.4-1,0.7-1.5c0,0-0.1,0-0.1,0c-0.4,0-4.3-0.1-6.1-3.1c-0.1-0.1-0.1-0.2-0.2-0.3
		c-1.4,0.3-3.4,0.7-5.5,1.4c-1.8,0.6-3.2,2.3-3.9,4.2c-0.5,1.3-0.7,2.5-0.9,3.4c0,0.2,0,0.3-0.1,0.5c0,0.8,0.7,1.4,1.5,1.4H41
		c-0.2-0.4-0.3-0.9-0.3-1.3l0-0.2l0-0.2C40.8,39.6,40.8,39.4,40.8,39.2z"/>
</g>
</svg>
