<?xml version="1.0" encoding="utf-8"?>
<!-- Generator: Adobe Illustrator 21.1.0, SVG Export Plug-In . SVG Version: 6.00 Build 0)  -->
<svg version="1.1" id="Layer_1" xmlns="http://www.w3.org/2000/svg" xmlns:xlink="http://www.w3.org/1999/xlink" x="0px" y="0px"
	 viewBox="0 0 20 25" style="enable-background:new 0 0 20 25;" xml:space="preserve">
<g>
	<path d="M19,2h-8V1c0-0.6-0.4-1-1-1S9,0.4,9,1v1H1C0.4,2,0,2.4,0,3l0,0c0,0.6,0.4,1,1,1h1.2l-1.6,6h4.9L3.8,4H9v14H7
		c-0.6,0-1,0.4-1,1s0.4,1,1,1h6c0.6,0,1-0.4,1-1s-0.4-1-1-1h-2V4h5.2l-1.6,6h4.9l-1.6-6H19c0.6,0,1-0.4,1-1l0,0C20,2.4,19.6,2,19,2z
		"/>
	<path d="M3,15c1.6,0,3-1.3,3-3H0C0,13.7,1.3,15,3,15z"/>
	<path d="M17,15c1.6,0,3-1.3,3-3h-6C14,13.7,15.4,15,17,15z"/>
</g>
</svg>
