<?xml version="1.0" encoding="utf-8"?>
<!-- Generator: Adobe Illustrator 21.0.2, SVG Export Plug-In . SVG Version: 6.00 Build 0)  -->
<svg version="1.1" id="Layer_1" xmlns="http://www.w3.org/2000/svg" xmlns:xlink="http://www.w3.org/1999/xlink" x="0px" y="0px"
	 viewBox="0 0 1080 1080" style="enable-background:new 0 0 1080 1080;" xml:space="preserve">
<style type="text/css">
	.st0{fill:#272324;}
	.st1{fill:#FBEE03;}
	.st2{fill:#9E1C1F;}
	.st3{fill:#98673E;}
</style>
<g>
	<path class="st0" d="M989,541.1c-0.9,249.1-202.2,447.4-448.1,446.8C291.1,987.3,93.5,785,94.1,539.7
		C94.7,291.1,295.9,92.8,541.9,93.1C791.2,93.5,989,295.3,989,541.1z M541.7,960.1c229.4,1.2,422-187.8,419.6-424.2
		C959,307.2,771,118.3,536.8,120.7C307.9,123,119.3,311.2,121.7,545.2C124.1,775.2,312.9,961.2,541.7,960.1z M556.9,985.2
		c19.2-0.5,37.7-2.2,56.1-5.4c107.7-18.5,197.4-69.1,268.3-152.2c53.2-62.4,85.9-134.5,99.5-215.3c3.7-21.9,5.4-43.9,5.7-66.1
		c0.1-3.1-0.6-4.5-4.1-4.3c-4.6,0.3-9.3,0.3-14,0c-3.8-0.3-5,0.8-5,4.9c-0.3,32.1-4.3,63.7-12,94.9c-20.1,80.9-60.5,150-121.4,206.8
		C751.1,922,657.2,959.6,549.3,962.5c-6.5,0.2-6.5,0.1-6.5,6.7c0,0.5,0,1,0,1.5c0.4,4.8-2.1,10.9,1,13.9
		C546.7,987.5,552.7,984.8,556.9,985.2z M986.1,525.3c-0.5-24.7-3.4-49.1-8.3-73.2c-11.4-55.3-32.2-106.9-63.2-154.2
		c-24.3-37.1-53.4-70.1-87.5-98.6c-27.3-22.9-56.9-42.3-88.8-58c-21.9-10.9-44.7-19.9-68.2-26.8c-37.2-11-75-17.6-113.8-18.5
		c-13.4-0.3-13.4-0.1-13.4,13.5c0,8.4,0,8.4,8.2,8.8c2,0.1,3.9,0.7,5.9,0.7c19.7,0.2,39.1,2.7,58.4,6c47.9,8.2,92.8,24.6,135,48.6
		c41.2,23.4,77.1,53.4,108.4,88.8c22,24.8,40.6,51.8,56.1,81.1c31.1,58.8,46.7,121.7,48.8,188c0.2,7.7,0.3,7.7,7.7,7.7
		c0.8,0,1.7,0,2.5,0c12.1,0,12.1,0,12-12.3C986.1,526.3,986.1,525.8,986.1,525.3z M96.5,557.7c0.9,18.3,2.7,36.6,5.8,54.6
		c17.2,100.6,62.9,185.9,137.8,255.2c63.5,58.8,138.4,95.5,223.5,111.1c23.6,4.3,47.5,6.2,71.5,6.9c4.3,0.1,5.5-1.1,5.1-5.2
		c-0.4-4.5-0.4-9,0-13.5c0.4-4-1.2-4.5-4.7-4.5c-23.7-0.2-47.2-2.3-70.5-6.8c-101.6-19.3-185.3-69.3-250.9-149
		c-47.1-57.2-76.4-122.9-88.8-195.9c-3.6-21.4-5.6-42.9-5.6-64.6c0-3.5-1-4.6-4.4-4.4c-4.6,0.3-9.3,0.3-14,0
		c-3.6-0.2-5.2,0.6-4.8,4.6C96.8,550.1,96.5,553.9,96.5,557.7z"/>
	<path class="st1" d="M556.9,985.2c-4.1-0.4-10.2,2.4-13-0.5c-3.1-3-0.6-9.2-1-13.9c0-0.5,0-1,0-1.5c0-6.7,0-6.6,6.5-6.7
		c107.8-2.9,201.8-40.5,280.7-114.1c60.9-56.8,101.3-125.9,121.4-206.8c7.7-31.1,11.7-62.8,12-94.9c0-4,1.2-5.1,5-4.9
		c4.6,0.3,9.3,0.3,14,0c3.5-0.2,4.1,1.2,4.1,4.3c-0.4,22.2-2.1,44.2-5.7,66.1c-13.5,80.8-46.3,153-99.5,215.3
		C810.4,910.7,720.7,961.3,613,979.8C594.6,983,576,984.7,556.9,985.2z"/>
	<path class="st2" d="M986.1,525.3c0,0.5,0,1,0,1.5c0.1,12.3,0.1,12.3-12,12.3c-0.8,0-1.7,0-2.5,0c-7.5,0-7.5,0-7.7-7.7
		c-2.1-66.3-17.7-129.2-48.8-188c-15.5-29.2-34.2-56.3-56.1-81.1c-31.4-35.4-67.3-65.4-108.4-88.8c-42.2-24-87.1-40.4-135-48.6
		c-19.4-3.3-38.8-5.8-58.4-6c-2,0-3.9-0.6-5.9-0.7c-8.2-0.5-8.2-0.4-8.2-8.8c0-13.6,0-13.8,13.4-13.5c38.8,0.9,76.6,7.5,113.8,18.5
		c23.5,7,46.2,16,68.2,26.8c31.9,15.8,61.5,35.2,88.8,58c34.1,28.5,63.2,61.4,87.5,98.6c31,47.3,51.9,98.9,63.2,154.2
		C982.7,476.2,985.6,500.6,986.1,525.3z"/>
	<path class="st0" d="M222.4,539.1c18.4-77.1,36.7-154.1,55.1-231.1c4.1-17,8.1-34,12.3-51c0.7-3,1.3-5.3-2.6-7.1
		c-4.1-1.8-5.4-7.1-3.8-11.3c1.7-4.3,5-6.5,9.7-6.4c37.9,0.4,75.8-1.7,113.8-2.3c28.5-0.5,56.9-1.4,85.4-2.1c1.6,0,3.3,0.3,5.2-1
		c-5.8-6.3-9.2-13.7-9.5-22.3c-0.6-17,8-29.3,24.9-33.3c21.8-5.2,44-5.2,65.9,0.1c28.4,6.8,29.6,39,17,53.3
		c-0.6,0.7-1.2,1.5-1.5,3.7c10.1,0,20.2-0.2,30.2,0c47.9,1.1,95.9,2.4,143.8,3.6c6.7,0.2,13.3,0.2,20,0.3c5.2,0.1,9.1,2,10.8,7.1
		c1.5,4.8-0.2,8.6-5.8,11.8c-2.9,1.6-1.3,3.5-0.9,5.1c6.8,28.7,13.7,57.3,20.5,85.9c15.7,65.7,31.3,131.4,47,197.2
		c-1-0.7-2-1.4-3-2.1c-0.2-1.3-0.4-2.6-0.7-3.9c-13.8-57.9-27.7-115.8-41.5-173.7c-7.9-33.2-15.7-66.3-23.6-99.5
		c0.3-1.1-0.3-2.4-1.1-2.2c-1,0.3-0.8,1.5,0.3,2.1c-0.1,8.3-0.2,16.6-0.2,25c0,85,0,170.1,0.1,255.1c-0.8,0-1.6,0-2.4-0.1
		c0-37.5,0-75,0.1-112.4c0-53.1,0.1-106.3,0.1-159.4c0.6-1.4,0.6-2.7-0.2-4.7c-0.5,1.9-0.9,3.2-1.3,4.5
		c-9.5,37.2-19.1,74.4-28.6,111.5c-14.1,54.9-28.3,109.7-42.4,164.6c-0.9,0.4-1.9,0.8-2.8,1.2c17-65.9,34-131.8,51-197.7
		c7.7-30,15.5-59.9,23.3-89.9c0.9-3.3,1.1-5.5-2.8-7.6c-5.4-2.8-5.5-8.2-3.2-13.8c-1.1,0-1.8-0.1-1.9,0.1c-4.7,6.1-11.1,6.1-18,5.7
		c-45.2-2.3-90.5-4-135.7-5c-8.5-0.2-17-0.1-25.5-0.4c-2.5-0.1-3.1,0.9-3.5,3c-1.3,6.2,0,12.3,0.3,18.4c1.8,43.3,1.5,86.6-0.2,129.8
		c-3.3,83.9-3.2,167.9-3.1,251.8c0,24.1-0.5,48.3-0.8,72.4c0,4.1,0.2,8.3,0.6,12.4c1.2,12.4,14.2,19.8,24.6,13
		c8.4-5.5,16.7-6,26.1-4.9c14.8,1.7,29.6-1.1,44.3-2c21.5-1.2,42.9-0.9,64.3,1.5c5.2,0.6,10,2.1,14.7,4.5
		c16.5,8.6,31.7,19,45.5,31.4c5.4,4.8,8.1,10.9,8.5,18.1c0.4,7.7-3.2,10.7-10.7,9.3c-11.8-2.2-23.2-6-34.8-8.8
		c-1.7-0.4-3.4-0.8-5.3-1.3c0.1,2.6,2,2.2,3.2,2.5c13.4,4.1,26.7,8.2,40.1,12.1c4.5,1.3,7.1,4.2,8.5,8.3c5,14.3-5.9,27.1-20.7,24.3
		c-12.6-2.4-25-5.6-37.8-6.9c-7.7-0.8-15.1,0.7-21.2,5.6c-22.2,17.9-46,17.4-70.9,7.1c-8.3-3.4-15.6-8.6-23-13.8
		c-1.2,2-0.7,3.9-0.7,5.6c0.1,7.7-2.3,10.9-9.8,12.7c-6.9,1.7-13.9,1.2-20.9,1.2c-22.5-0.1-45-0.2-67.5-0.4
		c-28.8-0.3-57.6-1-86.4,0.9c-4.8,0.3-9.7-0.2-14.3-1.7c-7.3-2.4-10.5-6.8-10.7-14.4c0-1.1,0-2.2,0-3.9
		c-18.7,18.8-41.6,19.4-65.1,18c-4-0.2-7.9-1.1-11.9-1.4c-7.1-0.5-13.1-3.4-18.2-8.3c-2-1.9-4.2-3.8-6.5-5.4
		c-4-2.8-8.2-3.8-13.2-2.9c-15.7,2.9-31.3,6.5-47.4,6.6c-6.5,0-9.1-1.5-11.5-7.4c-5.2-12.7-1.6-22.1,10.7-28
		c12.7-6.1,26.4-7.8,40.1-9.9c8-1.2,16-2.1,23.7-4.6c-10-1.3-19.5,1.5-29.1,3.1c-11.8,2-23.5,4.9-35.5,5.6
		c-8.3,0.5-11.8-4.2-9.2-12.3c2.1-6.7,6.4-12.3,11.8-16.4c21.2-16.1,44.3-28.3,71-31.8c14.3-1.8,28.6,0.8,42.8,1.5
		c17.6,1,35.3,1.1,52.9,0.5c11.6-0.4,22.7,0.9,32.2,9.4c5.3,4.8,16.1,0.1,18.1-7.3c1.8-6.6,2.2-13.5,2.2-20.3
		c0-9.2,0.1-18.3-0.3-27.5c-0.7-16.3,0.7-32.6,1.1-48.9c0.6-25.3,0.3-50.6-0.4-75.9c-1.1-39.3-1.5-78.6-1.3-117.9
		c0.2-32-1.4-64-0.6-95.9c0.8-29,0.9-58,0.5-86.9c-0.1-6.5-0.7-13-0.8-19.5c0-3.4-1.3-4.5-4.8-4.4c-18.6,0.5-37.3,0.6-55.9,1.1
		c-26.6,0.8-53.2,1.7-79.8,2.7c-12.6,0.4-25.3,1.1-37.9,1.6c-4.6,0.2-8.9-0.7-12.4-4c-0.2-0.5-0.5-0.9-1-0.5c-0.2,0.1,0,0.8,0.1,1.2
		c1.1,6.6,0.1,9.6-5.4,12.4c-3.5,1.8-2,4.3-1.4,6.3c3.9,15.7,8,31.3,12,46.9c20.8,80.4,41.5,160.7,62.3,241.1
		c-0.9-0.4-1.9-0.8-2.8-1.3c-16.2-62.7-32.4-125.5-48.5-188.2c-7.5-29.3-15-58.6-22.5-87.8c0.2-1.6-0.5-2.7-1.6-4.1
		c-0.2,1.8-0.4,3.1,0.2,4.3c0,2,0.1,4,0.1,6c0,88.6,0,177.2,0.1,265.8c-0.8,0-1.6,0-2.4,0.1c0-84,0.1-168.1,0.1-252.1
		c0-9.3-0.1-18.6-0.1-28c0.9-0.7,1.2-1.8,0.2-2.1c-0.8-0.2-1.4,1-1.1,2.1c-0.1,0.7-0.1,1.3-0.3,2c-13.2,55.2-26.4,110.3-39.5,165.5
		c-8.7,36.6-17.3,73.1-26,109.7C224.4,537.7,223.4,538.4,222.4,539.1z M381,826.9l0.1,0.1c0.1-0.8,0.1-1.6-1.1-1.1l0.1,0.1
		c0-2.1-0.9-3.6-3.1-4.1l0.1,0c0.6-0.7,0.1-1.2-0.3-1.7c-11.6-16.9-14.8-36.3-16-56.2c0.2-4.4,0.2-4.4-1.9-3.4
		c-3.2,2.3-6.3,4.9-9.7,7c-5,3-5.9,7.3-4.6,12.4c1.7,6.7,3.6,13.4,5.4,20.2c-0.2,0.7-0.1,1.3,0.6,1.7c2.1,7,4.1,14,8.1,20.2
		c3.6,5.6,8.2,9.4,15.2,9.9c3.5,0.2,6.9,1.1,10.3,1.7c1,0.6,2.3,0.6,2.7-0.1c0.7-1-0.7-2-1.3-2.2c-1.9-0.5-2.1-2.5-3.5-3.3
		C382.1,827.3,382,826.7,381,826.9z M704,827.9c-1.1-0.5-1.2,0.5-1.6,1.1c-1.6,2.1-3.5,4-4.8,6.3c-1,1.7-0.1,2,1.3,0.8
		c3.1-0.6,6.1-1.6,9.2-1.9c10.4-1,17.1-6.9,21.6-16c2.6-5.4,4.3-11,5.9-16.8c2.2-5.7,3.7-11.7,5-17.7c2.2-10.7-2.4-18.5-12.4-22
		c0,0,0.1,0.1,0.1,0.1c0.1-0.1,0.2-0.3,0.2-0.4c-0.1-0.2-0.3-0.5-0.4-0.7c-1-1-2-2.1-3.5-1.6c-0.5,0.2-0.4,1.1,0.2,1.5
		c0.4,6.9-1,13.5-2.1,20.2c-2.7,16.3-8.9,31.1-17.8,44.9l0.1,0c-0.9,0.4-1.8,0.8-1,2L704,827.9z M579,463.1l-0.1-0.1
		c-1.1,1.5,0.4,1.8,1.1,2.6c2.5,2.7,1.9-0.4,1.9-1.2c0.3-6.2,0.5-12.4,0.7-18.6c0.1-5.1,0.2-10.3,0.2-15.4c0.1-3,0.1-5.9,0.2-8.9
		c0-1.8,0.2-3.7,0-5.5c-0.2-1.8,0.7-4.4-2.1-4.9c-2.3-0.4-3-2-3.5-3.7c-1.4-4.4-4.8-6.8-8.7-8.3c-6.9-2.7-14.3-2.6-21.6-2.9
		c1.4,1.1,2.9,1.7,4.3,2.4c5.8,3.1,11.7,6.3,17.5,9.5c1.5,0.8,3,1.9,2.1,3.9c-1,2.2-2.9,1.8-4.7,0.9c-0.9-0.4-1.8-0.9-2.7-1.3
		c-8.7-4.3-17.5-6.8-27.3-3.6c-4.4,1.5-9,2.2-13.5,3.4c-1.3,0.4-2.7,0.9-3.6-0.5c-0.9-1.5,0.4-2.5,1.4-3.3c3.2-2.7,7-4.5,10.7-6.4
		c3.3-1.7,6.9-2.7,10.2-5.4c-17.4-1.5-28,5.4-34.4,25.3c-1.7,3.7-0.9,7.5-1,11.4c-0.3,3.3,0.3,6.6,0.7,9.8c1.2,8.4,5.7,13.4,14.1,15
		c5,1,10,2.1,15.2,1.6l-0.1-0.1c1.7,1.1,3.6,0.5,5.3,0.6c12.3,0.1,24.6-0.4,36.7,2.6l-0.1-0.1C577.4,463.3,577.7,463.6,579,463.1z
		 M799,782c2.4-2.1,5.2-2.8,8.6-2.4c-2.5-1.8-4.5-3.7-5.6-6.6C800.8,776.2,798.7,778.7,799,782c-0.4-0.3-0.7-0.1-0.8,0.4
		c0,0.1,0.1,0.3,0.2,0.4C798.6,782.5,798.8,782.3,799,782z M515.3,282.3c6.8-3.3,14.2-5,21.1-8c-8.3-0.6-15.6,2.2-22.2,7
		c-0.5,0.6-2.1,0.9-1.1,1.9C514,284.1,514.7,283,515.3,282.3z M550,318.1c0.2-0.3,0.5-0.6,0.7-0.9c0.5-0.1,1-0.1,1.5-0.2
		c-0.1,1.3,0,2.7-0.3,4c-0.5,2.5,0.7,3,3,3.2c8.5,0.5,9.7-0.5,10-9c0.4-0.1,0.8-0.1,1.2-0.2c1.8,3.8,4.5,7.1,5.5,12
		c3.5-4.1,4.5-8.7,6.4-12.7c0.6-0.1,1.2-0.2,1.9-0.3c-0.4,3.9-2.4,7.2-3.9,10.6c-3.5,7.9-3.6,7.8,3,13.3c1.1,0.9,1.8,2.1,2.7,3.2
		c0.5,0,1-0.1,1.5-0.1c0-10,0-20.1,0-30.1c1.6-3.9,1.2-8,0.7-12.1c-0.3-1.8-0.5-3.6-0.9-5.4c-3.1-15.7-8.8-20.5-24.5-20.7
		c-1.5,0-3-0.2-4.4-0.3c-2.1-0.6-4.1-0.5-7.5,0.4c3.4,0.6,5.4,0.9,7.4,1.3c6.6,2.1,13.3,4.2,19.9,6.3c1.2,0.4,2.9,0.8,2.1,2.6
		c-0.6,1.6-1.7,1.9-3.6,1.5c-17.8-4.3-35.4-5-52.7,2.2c-2.2,0.9-5.1,1.3-6-1.4c-1.2-3.5-2.2-1.2-3.2-0.3c-3.8,3.7-4.1,8.5-4.2,13.4
		c-0.1,1.8,0,3.6-0.2,5.4c-0.7,4.6,2,8.9,1.1,13.5c0.6,1,0.5,2.4,1.8,3l0,0c1.6,5.5,4.8,9.1,10.6,10.1c4.8,0.8,9.7,1.7,14.5,2.6
		c0.9-0.3,1.8-0.5,2.8-0.8c3.3,2,7,0.9,10.5,1.1c2.9,0.1,1.6-2.7,1.8-4.2c0.2-2.2-1.4-1.6-2.7-1.6c-3.6,0.1-6.2,3-9.5,3.9
		c0.3-1.3,0.7-2.7,1-4c2.2-0.7,4.3-1.9,6.5-2c4.9-0.2,6.1-2.9,5.6-7.1L550,318.1z M278,779c3.8-0.5,7.5-1,10.9,2
		c-1.9-4.7-1.7-9.9-4.7-14.3c0.5,5.5-2.7,9-6.2,12.4c-0.3,0.1-0.6,0.1-0.8,0.2c0.1,0.1,0.2,0.2,0.3,0.4
		C277.7,779.4,277.8,779.2,278,779z M335,814.9c-2.1-7.3-4.2-14.5-6.4-21.8c-0.4-1.2-0.2-3.2-2.5-2.5c-3.3,1.5-6.7,2.9-10,4.5
		c-3.5,1.6-4.8,4.6-4,8.2c1.7,7.6,5.5,13.5,14.2,14.5c3,0.3,5.9,1.1,8.8,1.6c1.2,0.9,2.3,0.8,1.9-0.8
		C336.9,817.2,335.8,816.1,335,814.9z M754.9,813.1c-1.2,2.6-4.4,4-4.5,7.5c0.6,0,1.1,0.1,1.5,0c0.6-0.2,1.2-0.5,1.8-0.8
		c3.5-1.6,7.1-2.6,10.9-2.7c3.8-0.1,6.4-1.9,8-5.6c4.6-10.4,3.2-14.2-7.2-18.9c-1-0.5-2.1-0.9-3.2-1.3c-1.6-0.3-2.4,0.3-2,2
		C759.2,800,757.1,806.6,754.9,813.1z M291.9,815.2c0.2,0,0.5,0.1,0.7,0.1c-0.1-0.1-0.1-0.2-0.2-0.4c-0.2,0.1-0.4,0.3-0.6,0.4
		c-1-4.6-2-9.3-3-13.9c-1.4,7.9-8.1,10.2-14,13.2C280.7,815.1,286.3,813,291.9,815.2z M764.1,767.7c0.4,1.6,1,3.1,0.3,5
		c-0.5,1.3-1.9,3.6,0.6,4.9c3.7-0.7,7.5-1.4,11.2-2c4.2-0.6,7.2-2.4,7.6-7.1c0-0.9,0.1-1.9,0.1-2.8c1.5-4.5,0.2-8-3.3-11.1
		c-4.3-3.7-9.1-6.5-14.6-7.7c-1.5,1.8-1.2,3.9-0.7,6C765.6,758,765.6,762.9,764.1,767.7z M321.9,749c-0.4-1.4,1.2-3.5-1.5-4
		c-3.6,1.8-7.3,3.3-10.7,5.4c-5.4,3.3-9.4,7.6-7.7,14.7c-0.2,0.6-0.4,1.2,0.3,1.6c0.1,6.3,4.1,8.5,9.6,9.2c3.5,0.4,6.9,1.2,10.3,1.9
		c3.1-2.1,1.3-4.6,0.5-7C322.6,763.5,322.3,756.2,321.9,749z M575.1,572.9l0.1,0c-0.7-4.6-1.6-9.1-3.2-13.5c-1.1-3-2.9-5.6-6.1-6.7
		c-9.9-3.4-26.3-2.4-34.1,9.2c-1.9,2.9-4.4,5.4-6.6,8.1c-0.6,3.6,2.4,2,3.9,2.8c14.9,1.1,29.9,2.1,44.8,3.2c1,0.4,2,1.3,2.9,0.3
		c0.5-0.6-0.1-1.1-0.7-1.3C575.8,574.2,576.2,573.2,575.1,572.9z M537,833.9c0,0,0.1,0.1,0.1,0.1c-2.8-7.7-5.5-15.4-8.4-23.1
		c-0.9-2.3-2.6-4.7-5.3-4.7c-11-0.1-22,0.2-31.6,6.6c-6.7,4.5-9.5,14-6.8,21.3c1,0,2.1-0.1,3.1-0.1c14,0.2,27.9,0.4,41.9,0.6
		c2.3,1.1,4.7,0.1,7,0.4c0.3-0.2,0.6-0.4,0.9-0.7C537.7,834.2,537.4,834,537,833.9z M549,835c0.7-0.1,1.4-0.2,2.2-0.2
		c16-0.2,31.9-0.5,47.9-0.7c1.3,0.6,2.5,1.7,3.7-0.1c-0.2-2-0.4-3.9-0.5-5.9c-1-10.8-5.2-15.9-15.5-19.2c-5.7-1.8-11.7-2.4-17.6-2.7
		c-8.3-0.5-10.5,0.9-12.9,9c-1.7,5.9-3.7,11.7-6.6,17.1C548.5,832.9,548.8,833.9,549,835c-0.2,0.1-0.4,0.2-0.5,0.4
		C548.7,835.3,548.8,835.2,549,835z M331.4,768.4c9.4-10.9,22.2-16.9,34.3-23.9c-4.2-0.1-8.1,1.2-11.9,2.6c-4,1.5-7.5,1.9-10.6-3.3
		c0.9,7.7-2,12.3-6.9,16.3C333.9,762.1,330.1,763.9,331.4,768.4c-0.1-0.1-0.2-0.1-0.3-0.1C331.2,768.3,331.3,768.4,331.4,768.4z
		 M581.8,589.3c-0.1-1.2-1-1.2-1.9-1.3c-3.7-0.7-7.1-4.5-11.2-1.4c-5.3,4-10.7,3.8-16.4,1c-7.8-3.8-16.2-4.3-25.3-3.5
		c2.7,4.3,3.1,8.8,4.1,13.2c1.3,5.5,3.1,10.8,5.3,16.1c2.5,6.1,6.9,9.6,13.3,10.6c6.2,1,12.5,2.1,18.7,3.1c4.6,0.7,8.7,2.3,10.6,7.1
		c0.4,0.8,0.5,1.9,2.1,2c-0.8-3.4,1.9-6.7-0.1-10.1C581.3,613.8,581.6,601.5,581.8,589.3z M422.1,742.9c-0.1-0.4-0.3-1-0.7-0.6
		c-0.4,0.4,0,0.7,0.4,0.9c4.4,10.9,7.9,22.1,10.7,33.5c1.3-12.2,1.8-24.3,4.5-37.5C432.1,744.5,427.3,745.2,422.1,742.9z
		 M667.5,742.3c-5.9,0.9-11.9,2.6-17.5-2.6c2.5,13,1,25.3,3.7,38.3c3.7-12.8,7.2-24.9,13.7-35.7c0-0.3,0-0.6,0.1-0.8
		c-0.1,0-0.3,0-0.3,0.1C666.8,741.9,667,742.2,667.5,742.3z M509,544.8c1.9,9.1,6.5,17,11.9,25.4c3.3-6.5,7.9-11.1,10.2-17.2
		c3.1-2.9,6.1-5.8,9.2-8.7c7.1-2.5,14.5-3.2,22-4.2c7.4-0.9,9.2-2.7,10.9-10.1c0.8-3.7,2.4-6.6,6.4-7.3c2.9-0.5,3.1-2.3,3-4.7
		c-0.4-6.1-2.9-11.6-5.2-17c-2.5-6-8.1-8.7-14.6-7.8c-4.1,0.6-8.2,1.5-12.3,1.4c-8.8-0.2-17.1,2.2-25.3,4.9
		c-14.6,4.9-19.4,11.8-19.1,27.5C505.2,533.4,506.8,539.1,509,544.8z M505.5,734.6c4.2-0.9,8.4-1.8,12.6-2.7c2.3-0.4,4.9,1,7-1
		c17.3-1,34.5,0.2,51.7,1.9c1.5,0.1,2.9,0.3,4.4,0.2c1.5-0.1,2.2-0.8,0.9-2.1c-1.3-13-1.1-26-1.1-39l-0.1,0.1c1.3-1-0.2-2.4,0.7-3.5
		c0-1.9,0-3.7,0-5.6c0.1-9.5,0.9-19-0.4-28.4c-1.3-9.2-6.3-13.9-15.6-14.5c-8.6-0.6-17.3-0.7-25.9,0.9c-0.9,0.2-2.5-0.6-2.7,1.8
		c3.9-0.3,6.1,3.4,9.7,4.3c7,1.5,13.9,3.3,20.8,5.1c2.2,0.6,4.5,1.3,6.6,2.3c1.7,0.8,1.6,2.6,1.1,4c-0.7,2-2.2,0.9-3.3,0.3
		c-2.4-1.3-4.9-2-7.5-2.6c-16.8-3.8-32.2,0.2-46.8,8.6c-1.4,0.8-3.1,2.4-4.4,1c-1.4-1.5-0.3-3.4,1.2-4.7c0.9-0.8,1.8-1.5,2.6-2.4
		c4.4-4.5,10.4-7.7,12.7-14.5c-4.9,0.8-8.8,3.4-12.9,5.4c-5.7,2.8-8.7,7.3-9.2,13.8c-0.6,7.3-0.8,14.6-0.7,21.9
		c-0.1,0.3-0.1,0.5,0,0.8c-1.2,5.7-1.3,11.4-0.6,17.2c0.1,7.1,0.2,14.2,0.5,21.2c0.1,3.4-0.5,6.5-2.1,9.5c-0.4,0.2-1,0.4-0.5,0.9
		C504.4,734.9,505.1,734.6,505.5,734.6z M477.9,816c1.8-4.9,3.9-9.7,8.9-12.3c8.5-4.8,18.2-5,27.5-6.5c11.6-1.8,13.1-3.4,15.7-14.5
		c0.5-2.2,1.3-4.5,2.3-6.6c1.3-2.7,3.6-4.5,6.5-4.9c12.2-1.7,15.4,0.4,18.5,9.9c0.4,1.3,1,2.5,1.3,3.8c1.7,7.3,6.6,11.1,13.7,11.9
		c9.2,1.2,18.3,2.7,26.7,7.2c4.1,3.2,7.3,7.2,9.4,12c1.1,6.5-2.4,12.2-3.8,18.9c8.5-1,16.8-0.3,24.9-1.9c4.1-0.8,8.4-2.5,10.1-6.5
		c3.6-8.4,4.1-17.2,2.1-26.1c1.2-3.5,0.2-7,0-10.5c0.5-11.4-2.2-16.2-11.3-20.5c-17.5-8.5-36.3-13-54.6-18.9
		c-6.4-2.1-12-0.2-16.3,5.5c-9.8,13.1-22.4,13.5-33.1,1.1c-3.9-4.5-8.3-6.9-14.4-6c-16.5,2.5-32.5,6.6-48.1,12.7
		c-12.8,5-19.4,14-19.3,27.8c-1.4,1.9,1,3.8,0.1,5.7c-2,6.8-1.3,13.8-0.2,20.6c1.8,10.8,6.5,15.2,17.2,17c5,0.8,9.9,0.6,14.9,0.2
		c1.5-0.1,3.2-0.2,2.6-2.5C477.8,827,478.5,821.4,477.9,816z M537.5,360.4c-5.2-1-10.6,0.1-15.5-2.5c-1.6-0.8-3.6-1.6-3.8-3.6
		c-0.2-2.5,2.6-1.9,4.8-3.6c-9.5,0.3-14.5-4.4-16.9-12.3c0,15.5,0,30.9,0,46.5c4.7-0.5,2.1-7.5,7.2-7.3c-0.2-0.3-0.3-0.6-0.5-0.9
		c-0.5-1-0.2-1.4,1-1.5c3.8-0.3,7.3-0.7,11.2-2.2c3.5-1.4,8.7-3,13.5-1.9c2.1,0.5,4.4,0.4,6.8,0.6c-0.8-1-1.9-1.8-1.8-2.5
		c0.1-1.3,1.5-0.9,2.4-0.9c3.9-0.2,7.8-0.4,11.7-0.5c-2.4-1.1-4.8-1.3-7.2-1.5c-4-0.3-8-0.2-11.7-1.9
		C536.8,363.4,535.1,362.5,537.5,360.4c0.1-0.3,0.2-0.7,0.1-0.8c-0.4-0.3-0.5-0.1-0.2,0.3C537.4,360.1,537.4,360.3,537.5,360.4z
		 M378.5,765.9c0.1,12.3,7.6,33.3,16.9,46.8c10.2,15,16,16.2,31.7,6.9c8.7-5.2,10.4-10.7,5.5-19.6c-3.8-6.9-6.3-14.2-8.8-21.6
		c-3.1-9.3-5.6-18.8-11.3-27c-4.7-6.6-8.8-7.9-16.3-5c-3.4,1.3-6.5,3.3-9.7,5C380.7,754.5,378.5,759.6,378.5,765.9z M707.8,768.6
		c0.1-11.6-3.8-16.4-14.3-19.9c-8.7-2.9-13.3-1.5-18.8,6.4c-10.2,14.6-15.5,31.5-20.9,48.2c-3.4,10.6,12.9,24.8,23.3,22.4
		c2.3-0.5,4.4-1.5,6-3.3C697.5,806.4,705.4,787.5,707.8,768.6z M527.7,189.3c-5.8-0.3-13,1.8-17.3,4.7c-6.7,4.7-9.6,12.7-7.3,20.2
		c2.3,7.5,9.7,13,17.7,12.8c17.1-0.5,34.3-0.6,51.4,0c7.4,0.2,14.3-4.6,17-11.5c2.7-6.7,1.1-14.1-4.3-19.3
		c-5.4-5.2-12.2-6.6-19.4-6.9c6,3,10.8,7.2,13.1,13.6c2.7,7.3-2.5,15-10.2,14.5c-14.8-0.8-29.6-0.8-44.4,0
		c-7.6,0.4-12.7-7.5-10-14.6C516.6,196.4,521.2,192.2,527.7,189.3z M582.9,271c-0.3-11-0.1-20.8,1.8-30.5c0.6-2.8-0.6-2.9-2.9-2.6
		c-5.6,0.8-11.2,1-16.9,0.7c-10-0.4-20.1-0.1-30.8-0.1c4,3.9,3.8,8.6,4.5,13.2c1.4,9.1,6,12.5,15.2,11.5c2.3-0.2,4.6-0.5,6.9-0.6
		C568.8,262.4,576.4,263.6,582.9,271z M581.6,399.5c0.8-15.9-0.2-31.9,1.2-47.8c0.3-3.3-2.1-3.1-4.1-3.8c-16-5.3-32.6-1.5-48.8-3.9
		c11.1,5,22,10,33.4,14c2.5,0.9,4.9,2.2,7.1,3.6c5.3,3.5,5.1,9-0.3,12.2c-5,3-10.6,3.5-16.3,3.7c-8.5,0.3-17.1-0.4-25.3,2.9
		c14.6-0.5,28.8,1,42.6,5.8C577.4,388.4,581.7,392.1,581.6,399.5z M526.6,736.1c1.9,4.2,3.1,6.9,4.3,9.6c1.3,2.7,2.5,5.5,3.9,8.1
		c3.2,6,10.5,7.3,14.9,1.9c5-6.1,9.1-13.1,13.6-19.6C551.1,738.9,539.4,740.3,526.6,736.1z M542.6,828c1.1-1.4,1.7-1.8,1.9-2.4
		c5.8-14.1,4.9-28.6,1.7-43.1c-0.3-1.3-1.2-2.7-2.7-2.6c-2.2,0.1-3,2.1-3.4,3.8C536,798.5,536.6,812.9,542.6,828z M539.7,626.8
		c-2.2-1.9-4.3-3.3-5.9-5.1c-6.4-7.1-14.2-3.1-21.1-2c-4.7,0.8-1.5,6.5-1.9,10c-0.1,1.2-0.9,2.5,0.3,4
		C519.8,628.9,529.6,628.2,539.7,626.8z M513.1,266.3c8.2-3,16.4-1.9,24.8-3.3c-2.8-3.5-4.9-6.4-6.3-9.8c-1.1-2.7-3.6-3.5-6.2-3
		c-9.8,2.2-10.5,1.9-11.5,11.2C513.9,262.8,513.5,264.1,513.1,266.3z M583.8,532.4c-10,11.4-9.7,25.5,0,35.3
		C583.8,556.4,583.8,544.9,583.8,532.4z M581.4,489.9c0.4-0.4,0.8-0.7,1.1-1.1c0-0.8,0-1.7,0-2.5c-0.2-5.2,1-10.2-6.4-12.8
		c-5-1.7-9.7-3.5-15-4c0.7,2.1,1.4,3.9,1.8,5.8c0.5,2.4,1.7,3.6,4.4,3.7C574.1,479.4,580.6,480.5,581.4,489.9z M742.7,740.8
		c-4.6,9.2-11.7,5.8-18.4,4.4c8.8,4.9,17.1,10,25,16.4C744.4,755.5,740.6,749.3,742.7,740.8z M541.9,470.2c-4.9,0-8.8,0-13,0
		c4.4,3.6,3,8.1,2.6,12.4c-0.1,1.5-1.4,3.8,0.8,4.3c2.5,0.5,2.5-2,2.9-3.7C536.3,478.6,537,473.8,541.9,470.2z M808.8,816.7
		c-5.8-2.8-11.8-5.2-13.8-12.4c-1,4.6-2.4,8.7-4,13.4C797.3,814.9,803,817.2,808.8,816.7z M633.6,740.6c-1.8,6.4-6.5,4.6-11.2,4.8
		c6.2,3.8,11.7,7.1,17.1,10.5C637.2,751,634,746.9,633.6,740.6z M566.9,320.8c-1.2,4.9-3.9,8.8-7.1,12.9c4.6,0.3,8.3,0.6,12.6,1
		C570.4,329.6,568.7,325.2,566.9,320.8z M452.8,740.8c-1.3,6.1-4.6,9.4-8.4,13.7c7.4-2.1,12.7-5.8,19.1-8.9
		C459.3,745,455,747,452.8,740.8z M507.1,479.7c2-4.4,4.8-7.9,10.1-10.8c-4.9-0.7-7.2-3.8-10.1-6.8
		C507.1,468.5,507.1,474.1,507.1,479.7z M563.1,326.2c-4,0-6.5,0-8.9,0c-3.8,0-1.9,3.2-2.6,4.9c-1.1,2.6,1.2,2,2.5,2.3
		C559.4,334.4,559.3,329,563.1,326.2z M506.8,573.5c0.4,5.8,0.3,10.3,1.6,15.3c1.6-3.4,3.9-5.1,7-6.8
		C512,580,509.6,577.5,506.8,573.5z M517.8,598c-0.8,3.3-1,6.4-3.9,8.7c4.9,0,9.2,0,13.5,0C523,605,520.2,602,517.8,598z
		 M513.8,495.4c4.1-1,7.8-2.6,11.8-5.1c-3.8-0.7-4.2-3.6-5.4-6.3C520.5,489.2,516.2,491.6,513.8,495.4z M550.3,475.6
		c-0.2,3.7-2,5.5-3.1,7.9c3.1-0.8,5.8-1.4,8.5-2.1C553.3,480.5,552.3,478.6,550.3,475.6z M507.3,244.9c1.8-3.4,3.9-5.3,7.8-6.6
		c-3.7-0.5-6.2-0.8-8.8-1.2C506.7,239.7,506.9,241.8,507.3,244.9z M769.1,785.8c-4.1-1.9-8.5-2.7-13-2.8
		C760.4,784.1,764.4,786.1,769.1,785.8z"/>
	<path class="st3" d="M787.5,539.9c0.8,0,1.6,0,2.4,0.1c12.6-0.1,25.3-0.9,37.9-1.5c9.6-0.5,19.1-2.5,28.8-1.4c1,0.7,2,1.4,3,2.1
		c0.6,1.5,1.3,3,1.9,4.6c3,7.9,1.8,13.2-4.6,18.7c-8.7,7.4-18.9,11.6-30,13.8c-20.2,4-40.5,7.9-61.2,6.8
		c-13.3-0.7-26.5-2.5-39.4-5.6c-18-4.4-23-16-14-32.2c0.9-0.4,1.9-0.8,2.8-1.2c6.4-2,13-2.4,19.6-3
		C752.3,539.3,769.9,540.4,787.5,539.9z M825.4,546.1c-1.3-0.1-2.6-0.2-3.9-0.2c-23.8,0.8-47.6-0.3-71.4,0.9
		c-8.3,0.4-16.6-0.1-24.9,1.1c-3.2,0.5-6.2,1.7-6.9,4.9c-0.8,3.9-1,8-0.1,12.7c4.3-5.2,9.6-6.5,15-7.4c17.6-3.1,35.4-3.2,53.1-4.9
		C799.5,551.8,812.5,549.5,825.4,546.1z M845.4,562c3-0.6,5.6-2,8-3.9c2.4-1.9,5.2-4.4,4.1-7.3c-1.3-3.5-5.2-2.1-8-1.6
		c-8.4,1.4-16.7,3.1-25,4.8c-15.9,3.4-32,5.8-47.8,10c-2.3,0.6-5.2,1.1-4.9,4.6c0.3,3,2.4,4.8,5.2,5.4c4.3,1,8.6,1.7,13.3,0.8
		c-4.1-5.2-3.6-7.4,2.7-9c15-3.8,30-7.4,45.1-10.7C844.1,553.7,845.9,555.6,845.4,562z M764,562c-7.8,2.1-15.1,2.6-22.4,2.9
		c-2,0.1-3.7,0.5-3.8,2.9c-0.1,1.8,1.1,2.9,2.7,3c7.7,0.8,15.4,1.6,23.4,2.4C762.7,569.4,762.5,566,764,562z"/>
	<path class="st3" d="M292.1,539.9c0.8,0,1.6,0,2.4-0.1c10.6,0,21.3-0.1,31.9,0.2c13.6,0.3,27.2,0.3,40.5,3.9
		c0.9,0.4,1.9,0.8,2.8,1.3c2.4,3.5,3.6,7.3,3.9,11.5c0.8,10-3.1,16.7-12.8,19.2c-24.4,6.5-49.2,9.3-74.5,5.6
		c-10.8-1.6-21.7-3.1-32.4-5.4c-7.9-1.7-15.2-4.7-22.1-8.7c-16.1-9.5-14.8-17.2-9.5-28.2c1-0.7,2-1.4,3.1-2.1
		c2.3-0.3,4.5-0.5,6.9-0.3C252.2,538.5,272.1,539.8,292.1,539.9z M257.5,546.8c19.9,5.1,41.1,6.4,62.2,8.4
		c15.1,1.4,30.9-0.4,44.3,9.6c0-2.9,0-5.6,0-8.2c-0.1-5.9-2-7.8-8-8.7c-8.3-1.2-16.6-1-24.9-1C306.4,546.7,281.6,546.8,257.5,546.8z
		 M236.8,562.2c-0.8-6.4,1.1-8.4,7.2-7.1c14.9,3.3,29.8,6.9,44.6,10.6c6.7,1.7,7.2,3.6,3.2,9.1c4.6,0.7,9,0.1,13.3-1
		c2.7-0.7,4.8-2.6,5-5.6c0.2-3.2-2.5-3.5-4.6-4.3c-1.4-0.5-2.9-0.9-4.3-1.2c-18.1-3.6-36.2-7.3-54.3-10.9
		c-5.5-1.1-11.1-2.2-16.7-3.1c-2.1-0.3-4.7-0.8-5.8,1.6c-1,2.2,0.8,4.1,2.1,5.7C229.2,559.2,232.6,560.8,236.8,562.2z M317.9,562.1
		c1.3,3.2,1.6,6,0.7,8.7c-0.9,2.8,0.5,2.7,2.4,2.4c6.6-0.7,13.2-1.4,19.8-2.1c1.8-0.2,3.3-0.9,3.3-3c0.1-2.4-1.5-3.1-3.6-3.1
		C333.2,564.7,325.8,564,317.9,562.1z"/>
	<path class="st2" d="M507,685.1c2.5,0.5,3,2.8,4.1,4.6c5,7.7,11.2,11.5,21.2,10c8.6-1.3,16.5-4.6,24.9-6.4c2.4-0.5,4.9-0.9,7.7-1.4
		c-1.1-2.2-3.9-3.9-2.7-6.9c0.7-1.7,1.9-3.1,3.5-4c6.9-4.2,12-3.5,15.9,2.1c0,1.9,0,3.7,0,5.6c0.5,1.3-0.1,2.4-0.7,3.5
		c0,0,0.1-0.1,0.1-0.1c-1.6,1.3-1.9,3.8-4.3,4.2c-1,0.3-1.9,0.6-2.9,0.9c-5.7,1.6-11.3,3.3-17,4.9c-1.3,0-2.4,0.2-3.4,1.1
		c-5.5,1.1-10.6,3.3-15.6,6c-1.5,0-2.4,0.8-3.2,1.9c-4.8,2.8-7.9,6.9-9.7,12.1c-0.6,2-2.6,3.5-2,5.3c3.2-3,6.7-6.2,10.1-9.3
		c0.8-0.1,1.7,0,2.4-0.4c8.8-5,18.7-6.4,28.4-8c9.1-1.5,11.5,0.5,13,9.5c0.7,4,1.5,8.1,5.2,10.8c1.2,1.4,0.6,2.1-0.9,2.1
		c-1.5,0.1-2.9-0.1-4.4-0.2c-1.9-3.9-3.8-7.7-5.6-11.6c-1.5-3.2-3.7-4.6-7.4-4.4c-14.4,0.8-27.4,5-38.7,14.1c-2.1,2-4.7,0.6-7,1
		c-1.2-8,2.4-14.7,6.6-21.7c-13.7,2.3-16.2,1.2-16.8-7.2c-1.2-5.7-1-11.4-0.9-17.2C506.9,685.6,506.9,685.3,507,685.1z M571.1,690.8
		c2.9-0.8,5.3-1.5,5.2-4.8c-0.1-1.5-0.6-2.2-2.1-1.8c-2.3,0.5-4.7,1.2-4.3,4.3C570,689.4,569.7,691,571.1,690.8z"/>
	<path class="st2" d="M507,421.3c2.2,11.6,11.2,13,20.5,13.8c14,1.2,27.3-2,40.5-6c1.1-0.3,1.9-0.5,1.4-1.9c-1.5-3.8,0.5-6,3.7-7.5
		c3.7-1.8,7.1-1.2,10,1.7c-0.1,3-0.1,5.9-0.2,8.9c-5.7,10.4-16,11.2-26,12.4c-5.7,0.7-10.5,2.5-14,7.1c-0.7,0.6-1.8,1-0.7,2.2
		c-0.5-0.8-1-0.3-1.5,0c-0.1,0.1-0.1,0.7,0,0.7c0.7,0.2,1.2,0,1.3-0.8c0.5-0.4,1.1-0.9,1.6-1.3c9.5-9,21.6-7.4,33.1-8.1
		c2.1-0.1,4.3,1.3,5.9,3.2c-0.2,6.2-0.4,12.4-0.7,18.6c0,0.8,0.6,3.9-1.9,1.2c0.4-1.2,0.6-2.3-1.1-2.6c0,0,0.1,0.1,0.1,0.1
		c0.1-0.8-0.2-1.3-1.1-1.1c0,0,0.1,0.1,0.1,0.1c0.1-2.4-0.8-4.7-0.4-7.3c0.5-2.6-1-5.4-3.8-5.5c-11.6-0.3-23.7-2.3-32.8,8.1
		c-1.4,1.6-2.9,2.7-5.1,1.6c0,0,0.1,0.1,0.1,0.1c-1.1-1-1.1-1.9-0.4-3.4c1.7-3.6,2.9-7.5,4.3-11.2c-7,4.6-14.4,3.8-21.8,3
		c-3.8-0.4-6.2-2.4-7.5-6.2c-1.1-3-2.4-6.1-4.7-8.6C506.1,428.8,505.2,424.9,507,421.3z M576.9,423.9c-0.9,0.2-2.5,0.2-2.9,2.1
		c-0.2,0.9,0.5,1.8,1.3,1.5c1.4-0.4,3.5-0.1,3.6-2.4C579.1,424,578.2,423.9,576.9,423.9z"/>
	<path class="st2" d="M506.2,298.2c3.1,12.3,11.7,14.6,23.1,14c10.7-0.6,20.7-4.6,31.3-5.5c1-0.1,2-0.4,3-0.3
		c3.3,0.3,5.8,0.6,5.7-4.3c-0.1-3.8,6.2-6.6,10.3-5.3c1.4,0.5,2.7,1.2,4.1,1.8c0.5,4.1,0.9,8.1-0.7,12.1c-1.1,1.1-2.1,2.1-3.2,3.2
		c-0.6,0.1-1.2,0.2-1.9,0.3c-3.9,1-7.9,0.5-11.9,0.8c-0.4,0.1-0.8,0.1-1.2,0.2c0,0,0.1,0.1,0.1,0.1c-0.1-0.6-0.5-0.7-1-0.5
		c-4,0.3-8.1,0.6-11.8,2.3c-0.5,0.1-1,0.1-1.5,0.2c-0.2,0.3-0.5,0.6-0.7,0.9c0,0,0.1-0.1,0.1-0.1c-5.3,1.4-9.3,4.4-12,9.1
		c-0.3,1.3-0.7,2.7-1,4c0,0.3,0,0.6-0.2,0.9c-0.9,0.3-1.8,0.5-2.8,0.8c-1.5-5.5,2-9.7,4-14.3c-1.2-0.4-1.5,0.2-1.9,0.6
		c-7.7,8.3-16.1,8.8-25,1.6c-0.6-0.5-1.1-1.9-2.3-0.7c0,0,0,0,0,0c0.6-1.8,0.5-3.1-1.8-3c0.8-4.6-1.9-8.9-1.1-13.5
		C506.2,301.8,506.1,300,506.2,298.2z"/>
	<path class="st2" d="M599.1,803.9c1.6-1.8,3.7-0.7,5.5-0.7c5.5-0.1,11-0.3,16.5,0.2c10.7,1,16.7-4.7,20.8-13.6
		c0.2,3.5,1.2,7,0,10.5c-0.9,4.5-1.7,9-2.9,13.5c-1.5,5.4-4.9,7.7-10.4,8.1c-7.5,0.6-14.5-0.3-20.1-5.9
		C606.3,811.2,603.2,807.2,599.1,803.9z"/>
	<path class="st2" d="M444.8,791.4c0.2,0,0.5,0,0.5,0c5.5,14.6,17.2,14.9,29.9,13.3c3.9-0.5,7.7-1.9,11.7-1.1
		c-5,2.6-7.1,7.4-8.9,12.3c-2.5,0.8-4.1,3.3-7,3.2c-5,0-9.9,0.3-14.9,0.5c-5.1,0.1-8-2.4-9-7.4c-1.1-5-1.9-10.1-2.2-15.2
		C445.8,795.2,443.3,793.3,444.8,791.4z"/>
	<path class="st2" d="M506,527.2c2.1,0.3,1.9,2,2.2,3.4c2.3,14.4,8.5,16.1,23.4,14.1c2.9-0.4,5.8-1.1,8.7-0.3
		c-3.1,2.9-6.1,5.8-9.2,8.7c-0.9,0.4-1.8,0.6-2.6,1.1c-7.2,4.2-9.9,3.5-14.8-3.2c-1.5-2.1-2.2-4.8-4.6-6.2
		C506.8,539.1,505.2,533.4,506,527.2z"/>
	<path class="st3" d="M579.2,634.2c0.4-7.4-1.2-14.6-2.5-21.7c-0.4-2.6-3.5-2.1-5.5-2.3c-9.7-1.1-19.4-2.2-29.1-3.3
		c-1.2-0.1-2.3-0.3-3.5-1.7c3-1.7,6.1-2.1,9.3-2.1c6.8-0.1,13.6,0,20.4,0c6.8,0,8.7-1.6,10-8.3c0.4-2.3,1.2-4.5,1.8-6.7
		c0.9,0,1.8,0.1,1.9,1.3c-1.2,1.5-1.5,3.3-1.8,5.1c-1.4,8.3-4.2,10.6-12.7,10.5c-6.4-0.1-12.8,0-19.2,0c8.4,1.7,16.7,3,25.2,3.8
		c4.1,0.4,5.4,2.5,5.7,6c0.4,3.8-0.1,7.8,2,11.4c2,3.4-0.7,6.7,0.1,10.1C579.6,636.1,579.5,635,579.2,634.2z"/>
	<path class="st3" d="M599.1,834c-1.5-2-3.9-2.5-6.1-2.8c-7.7-1.2-16.1-1.2-14.9-13.3c-1.1,4.2-1.4,8-4.3,10.7
		c-3.1,3-7.1,2.6-10.8,3c-4.1,0.5-8.2,0.7-11.8,3.1c-0.7,0.1-1.4,0.2-2.2,0.2L549,835c-0.1-1-0.4-2.1,0.7-2.8
		c5.8-1.1,11.5-2.1,17.3-2.7c5.9-0.6,8.4-4,8.5-10.2c0.1-2.8-0.3-5.6-0.3-8.5c0-1.1,0.6-1.9,1.8-2.1c1.3-0.1,1.7,0.8,1.9,1.8
		c0.7,2.7,1.1,5.5,1.2,8.4c0.1,7.2,1.7,9.2,8.9,9.9c5.1,0.6,9.7,2,13.8,5.1C601.6,835.7,600.3,834.7,599.1,834z"/>
	<path class="st3" d="M485,834.1c2.8-3.3,6.9-3.7,10.8-4.1c8.3-1,9.9-2.7,10.1-11.1c0.1-2.5,0.3-5,1.1-7.4c0.3-1,0.7-2.1,1.8-2
		c1.3,0.1,2,1.2,2,2.5c0,2-0.3,4-0.5,6c-0.7,7.7,2.3,11.8,9.9,12.6c5.8,0.5,11.5,1.5,16.9,3.5c0,0-0.1-0.1-0.1-0.1
		c0,0.4,0,0.7,0,1.1c-2.3-0.3-4.7,0.7-7-0.4c-2.9-2.9-6.8-1.9-10.2-2.3c-7.7-1.1-11.2-4.6-11.2-12.4c0-2.2,0.2-4.4,0.3-6.6
		c-1,2.5-1.4,5.1-1.6,7.7c-0.5,7.4-1.8,8.7-9.3,10.4c-3.3,0.8-7,0.2-9.9,2.7C487.1,834,486,834.1,485,834.1z"/>
	<path class="st3" d="M573.8,575.9c-2.4-2.6-5.9-2.7-8.9-4c-4.5-1.9-9.5-3.1-10.8-9.6c-1.9,10.2-10.2,7.2-16.3,8.6
		c-2.9,0.7-6.2-0.4-8.9,1.8c-1.4-0.7-4.5,0.8-3.9-2.8c7.6,0.2,15.1-0.7,22.5-2c3.5-0.6,3.7-3.4,4.2-5.9c0.7-3.4,0.9-6.8,2.4-10.1
		c2.7,1.8,1.7,4.2,1.6,6.1c-0.3,5.7,1.8,9.7,7.4,11.3c3.9,1.2,7.5,3.6,11.9,3.5c0,0-0.1,0-0.1,0c-1,1.3,0.2,1.5,0.9,1.9
		c0.6,0.3,1.3,0.7,0.7,1.3C575.8,577.2,574.8,576.4,573.8,575.9z"/>
	<path class="st3" d="M322.4,777.8c-0.3-1.4-0.6-2.9-1-4.3c-2.4-8.7-3.4-9.3-12.4-6.8c-2.2,0.6-4.4,1.8-6.6,0.1
		c-0.7-0.4-0.6-1-0.3-1.6c3-2.1,6.4-3.3,9.9-4.3c3.5-1,5.6-3,6.1-6.8c0.4-3,1.5-6,2.4-9c2.7,0.5,1.1,2.6,1.5,4
		c-2.4,6.2-3.7,13.4-12,15c-0.9-0.1-1.8-0.3-2.9,1.1c1.4-0.3,2.4,0.1,3-1c10.4-0.1,10.4-0.1,12.9,6.7
		C323.7,773.1,325.4,775.6,322.4,777.8z"/>
	<path class="st3" d="M783.8,768.6c-3.4,0.5-6.4-1.2-9.6-1.8c-5-1-7.6,0.5-8.2,5.6c-0.2,1.8-1.3,3.4-0.9,5.3
		c-2.5-1.3-1.1-3.7-0.6-4.9c0.7-1.9,0.1-3.4-0.3-5c3.8-2.9,8.1-3.3,12.7-2.5c0.8,0.9,1.7,1,3.1,0c-1.2-0.2-2-0.2-2.8-0.3
		c-5.9-1.7-10.1-5-10.8-11.6c0-0.1-0.6-0.1-0.9-0.2c-0.5-2.1-0.9-4.1,0.7-6c1.6,9.7,6.7,16,16.7,18c0.4,0.1,0.8,0.5,1.2,0.8
		C783.9,766.8,783.9,767.7,783.8,768.6z"/>
	<path class="st3" d="M377,825c-4.7-4.1-8-9.3-10.8-14.6c-3.4-6.5-8.3-9.3-15.4-8.6c-0.8-0.4-0.9-1-0.6-1.7c0.7-0.7,1.2-1.6,2-2.1
		c4.7-3,10.7-5.1,8-13.2c3.5,6.7,2.9,7.8-8,15.4c10.5-0.9,13.4,6.3,17.4,12.4c2.2,3.3,3.6,7.3,7.6,9.3c0,0-0.1,0-0.1,0
		C376.2,822.9,378.5,824,377,825z"/>
	<path class="st3" d="M722,804c2.3-4.3,7.1-3.1,10.7-4.5c-0.2-0.5-0.2-1-0.3-1.1c-9.4-3.2-8.5-10.1-6.9-17.8
		c1.2-5.7,1.7-11.5,0.6-17.3c-0.2-1-0.3-2-1.3-2.5c-0.7-0.4-0.8-1.3-0.2-1.5c1.5-0.6,2.5,0.6,3.5,1.6c-0.3,0.4-1,0.9,0.2,1.1
		l-0.1-0.1c0.2,8.6-0.1,17.1-1.9,25.5c-0.8,3.5,0.3,5.9,3.7,7.6c2.4,1.2,6,1.9,5.2,6.1C730.7,802,726.3,803,722,804z"/>
	<path class="st3" d="M762.2,791.2c-0.1,7.2-0.4,14.5,11,14.2c-9.8,1.2-16.6,5.3-19.5,14.3c-0.6,0.3-1.2,0.6-1.8,0.8
		c-0.4,0.1-0.9,0-1.5,0c0.1-3.5,3.3-4.9,4.5-7.5c3.3-2.8,5.3-7.5,10.7-7.5c-3.6-0.8-4.8-3.1-4.7-6.6c0-1.9,0.6-4-0.7-5.8
		C759.9,791.5,760.6,790.9,762.2,791.2z"/>
	<path class="st3" d="M704.8,825.9c2.5,1.3,3-1.2,3.7-2.3c3.4-5.1,6.4-10.3,9.7-15.5c1-1.6,1.4-3.8,3.8-4.2
		c-4.9,10.5-10.3,20.7-19.5,28.4c-1.3,1.1-3.3,1.7-3.7,3.7c-1.4,1.2-2.3,0.8-1.3-0.8c1.3-2.3,3.2-4.2,4.8-6.3c0.8,0,1.5-0.1,1.6-1.1
		c0,0-0.1,0.1-0.1,0.1c1.2-0.2,2.2-0.6,1-2L704.8,825.9z"/>
	<path class="st3" d="M328.7,793.1c-1,2-0.7,4.2-0.8,6.3c-0.1,2.6-0.8,4.9-3.5,5.9c1.3,1.9,5,1.3,4.7,4.7c-3.8-2.9-8.8-1.8-13.3-3.7
		c1.4-2.1,3.5-2.2,5.2-2.2c3.7-0.1,5.3-1.8,5.1-5.6c-0.2-2.6,0.1-5.2,0.1-7.9C328.5,789.9,328.2,791.9,328.7,793.1z"/>
	<path class="st3" d="M361,764c-1.9,4.6-0.8,9.3-0.4,14c0.2,1.7,1.4,3.6-1.1,4.6c-1.2-7.2-1.9-14.6-0.4-22
		C361.2,759.6,361.2,759.6,361,764z"/>
	<path class="st3" d="M384.3,833.7c-1.4-3.1-5.6-4-6.3-7.7c0.7-1.2,1.4,0.2,2.1,0c0,0-0.1-0.1-0.1-0.1c0,0.7,0.3,1.1,1.1,1.1
		c0,0-0.1-0.1-0.1-0.1c0,0.8,0.5,1.1,1.2,1.1c1.4,0.8,1.7,2.8,3.5,3.3c0.6,0.2,2,1.2,1.3,2.2C386.6,834.2,385.3,834.3,384.3,833.7z"
		/>
	<path class="st3" d="M330,811c3.1-0.6,2.9,3.2,5.1,3.9c0.7,1.2,1.8,2.4,2.1,3.7c0.3,1.7-0.7,1.8-1.9,0.8
		C333.5,816.6,331.7,813.8,330,811z"/>
	<path class="st3" d="M507.9,703c-0.5,0-1,0-1.5,0c-0.7-5.8-0.6-11.5,0.6-17.2C506.9,691.6,506.8,697.3,507.9,703z"/>
	<path class="st3" d="M553.9,272.2c0,0.6-0.1,1.1-0.1,1.7c-2-0.3-4-0.7-7.4-1.3C549.8,271.7,551.8,271.6,553.9,272.2z"/>
	<path class="st3" d="M295.8,267.9c-0.5,0.1-1,0.1-1.4,0.2c-0.6-1.2-0.4-2.5-0.2-4.3C295.3,265.2,296,266.3,295.8,267.9z"/>
	<path class="st3" d="M787.6,268c-0.5-0.1-1-0.1-1.5-0.2c0.4-1.3,0.7-2.6,1.3-4.5C788.3,265.3,788.2,266.7,787.6,268z"/>
	<path class="st3" d="M790.8,259.9l-0.4,0.1c0,0-0.4-0.2-0.4-0.2c-1-0.6-1.2-1.8-0.3-2.1C790.4,257.5,791.1,258.8,790.8,259.9z"/>
	<path class="st3" d="M292.1,259.8l-0.5,0.1c0,0-0.5-0.1-0.5-0.1c-0.3-1.1,0.3-2.3,1.1-2.1C293.3,258,293,259.2,292.1,259.8z"/>
	<path class="st3" d="M549,835c-0.2,0.1-0.4,0.3-0.5,0.4C548.6,835.3,548.8,835.1,549,835C549,835,549,835,549,835z"/>
	<path class="st0" d="M631.9,785.9c-0.8,1.5-2.2,1.3-3.4,0.8c-6.9-2.6-13.5-0.8-19.1,2.6c-10.9,6.5-20.2,3.4-28.9-3.6
		c-5.7-4.6-11-9.6-18.6-10.9c-1.2-0.2-2.4-0.9-2.5-2.1c-0.1-1.5,1.3-2.2,2.5-2.7c3.1-1.1,6.3-2.1,9.5-2.9c6.6-1.5,13.3-2.9,20-4.1
		c3.9-0.7,7.7-0.4,11,1.9c9.4,6.3,18.7,12.7,28,19.1C631.1,784.5,631.9,784.8,631.9,785.9z M606.2,770.8c-0.3-0.6-0.7-1.1-1.4-0.4
		c-0.1,0.1,0.3,0.7,0.5,1.1c3.5,5.3,3.5,10.4-2,16.2c7.2-2.2,13-4.8,20.9-4.8C617.4,778.3,611.8,774.5,606.2,770.8z M598.9,767.3
		c-3.3-2.4-25.9,0.6-35.9,5.1c9.5,1.2,14.9,7.9,21.9,13.3C580.8,774.1,586.3,766.7,598.9,767.3z M603.5,769
		c-0.1,0.1-0.3,0.2-0.3,0.3c0,0.2,0.2,0.4,0.3,0.6c0.1-0.1,0.3-0.2,0.3-0.3C603.8,769.4,603.6,769.2,603.5,769z"/>
	<path class="st0" d="M492.8,762.7c10.8,2.5,22,3.4,32.5,7.2c1.3,0.5,2.7,1.3,2.7,2.6c0,1.4-1.6,2.1-2.9,2.4
		c-7.2,1.3-12.3,5.9-17.8,10.4c-8.9,7.3-18.5,10.6-29.7,3.9c-5.7-3.4-12.3-5.1-19.1-2.3c-1.1,0.4-2.5,0.6-3-0.8
		c-0.4-1.2,0.9-1.6,1.7-2.1c9-6.2,18.1-12.4,27.2-18.5C486.8,763.7,489.6,762.5,492.8,762.7z M481.5,770.4
		c-5.8,3.9-11.5,7.9-18.3,12.5c7.9,0.1,13.9,2.3,20.1,4.6c-4.7-5.3-4.5-10.7-1.1-16.2c0.4-0.2,0.8-0.5,0.5-0.9
		C482.5,770.1,481.9,770.4,481.5,770.4z M502.8,783.9c0.4,0.9,1.1,0.6,1.5,0.2c5.7-5.2,11.6-10.3,20.8-12.3
		c-30.4-7.4-33.3-7.7-39.5-4c15.9,0,21,4.7,17.4,16.2c-0.2,0.2-0.3,0.4-0.5,0.6c0.2,0,0.4,0,0.6,0
		C503,784.3,502.9,784.1,502.8,783.9z"/>
	<path class="st0" d="M395.8,752.7c1.7,11.1,4.3,21.8,8.7,32c4.4,10.1,9.3,20,14.4,30.8C408.8,810.6,392,763.7,395.8,752.7z"/>
	<path class="st0" d="M689.5,753.9c4.9,9.8-11.9,56.6-23.1,63.6C676,796.2,687.8,776.9,689.5,753.9z"/>
	<path class="st0" d="M548.2,658.7c7.6,0.2,15,2,22.2,4.8c1.1,0.4,2.5,0.8,2.6,2.1c0.1,1.4-1.4,1.6-2.5,2c-5,1.9-9.3,5.1-13.7,8
		c-6.8,4.5-13.8,6-21.5,1.9c-4.4-2.4-9.3-3.4-14.4-3.2c-1.1,0-2.5,0.2-3-1.1c-0.6-1.4,0.4-2.3,1.4-2.8
		C528.2,665.1,536.5,657.7,548.2,658.7z M523,671.6c5.3,0.1,10.1,2,16.2,4.2c-3-4.7-3.3-8.6-2.2-13
		C531.6,665.1,527.3,668.2,523,671.6z M553.1,661.3c3,4.1,3.3,7.4,2.9,11.3c4.3-2.6,7.9-4.9,11.9-7.4
		C563.3,664,559,662.9,553.1,661.3z"/>
	<path class="st0" d="M542.3,533.9c-2.7,0.1-5.3-0.6-7.8-1.6c-4.9-2-9.8-3.2-15.1-2.2c-0.8,0.2-1.7,0.5-2.3-0.3
		c-0.4-0.6-0.4-1.3,0.3-1.7c9.5-6.3,17.6-15.8,30.8-14.3c7.4,0.8,14.3,3.1,20.5,7.3c1.7,1.1,3.3,3.2,0.3,3.8
		c-8.3,1.8-15.9,5.5-23.7,8.6C544.4,533.9,543.3,533.8,542.3,533.9z M532.6,520.5c-2.1,3-6,3.8-8.7,6.8c3.6,0.6,6.9,1.2,10.8,1.9
		C532.9,526,533.6,523.1,532.6,520.5c0,0.1,0.1,0.1,0.2,0.2C532.8,520.6,532.7,520.6,532.6,520.5z M551.9,518.1c0-0.2,0-0.4-0.1-0.6
		c-0.1,0-0.3,0.1-0.4,0.1c0.2,0.1,0.4,0.3,0.6,0.4c0.9,2.8,1.5,5.7,0.9,8.8c4.2-1.3,8.1-2.6,13-4.1
		C560.9,520.3,557,517.6,551.9,518.1z"/>
	<path class="st0" d="M572.1,508.5c-0.5,2.2-2.3,3.1-4.1,2.3c-14.9-7-28.6-1.4-42.4,3.8c-2.8,1.1-5.6,2.2-8.4,3.2
		c-1.7,0.6-3.7,1.5-4.9-0.6c-1.1-1.9-0.7-4,1-5.5c1.6-1.4,3.5-2.6,5.4-3.5c7.1-3.2,14.3-6.3,21.4-9.5c3.7-1.7,7.2-1.8,11-0.1
		c5.8,2.5,11.8,4.6,17.6,6.9C570.3,506.1,571.9,506.4,572.1,508.5z"/>
	<path class="st0" d="M551,423c-4.1,4.5-9.3,4.9-14.5,3.3c-3.2-1-5.9-3.7-9.5-4.1c-3.2-0.3-6.5-0.1-9.8-0.1c0-0.8-0.2-1.3-0.1-1.4
		c13.8-8.9,28.1-12.4,43.4-3.7c0.7,0.4,1.5,1,1.7,1.6c0.2,1.3-1,1.5-1.9,1.8c-1.6,0.4-3.2,0.7-4.9,1c-0.3-0.3-0.5-0.6-0.8-0.9
		c1.3-0.6,2.6-1.2,4.6-2.2c-4.2-1.5-7.8-2.7-11.3-3.9c0,2.6,0.1,4.7,0,6.8c-0.1,2.8,1.6,1.1,2.6,1.1
		C550.7,422.6,550.9,422.8,551,423z M531.9,415.7c-3.2,1.4-5.8,2.5-9.5,4.1c4,0.9,6.8,1.6,9.8,2.3
		C532.2,420,532.1,418.2,531.9,415.7z"/>
	<path class="st0" d="M553,422c-0.2,1.2-1.2,0.9-2,1c-0.2-0.2-0.3-0.5-0.5-0.7C551.4,422.2,552,420.7,553,422L553,422z"/>
	<path class="st0" d="M555.4,421.5c-0.7,0.8-1.6,0.5-2.4,0.5c0,0,0,0.1,0,0.1c-0.6-1.7,0.9-1.1,1.6-1.5
		C554.9,420.9,555.2,421.2,555.4,421.5z"/>
	<path class="st0" d="M576.8,696.1c-3.3,9.9-10,13.5-20.2,10.8c-1.3-0.3-1.8,0.2-2.5,0.8c-4.8,3.4-10,5.5-16,4.7
		c-1.4-0.2-1.3,0.8-1.4,1.4c-0.4,2.3-2.3,3.4-3.4,5.2c-3.4,3.2-6.8,6.3-10.1,9.3c-0.6-1.8,1.4-3.4,2-5.3c1.6-1.4,3.3-2.7,4.6-4.3
		c2-2.4,5.6-3.8,5.1-7.8c0.8-1.1,1.8-1.9,3.2-1.9c5,2.4,13.5-0.9,15.6-6c0.9-0.9,2.1-1.1,3.4-1.1c0.5,1.5,0.5,3.6,2.9,3.2
		c5.8-0.8,11.6-1.6,14.1-8.1C574.9,696.7,575.8,696.4,576.8,696.1z"/>
	<path class="st0" d="M567.7,291.6c-8.7,0.1-14.2,5.5-20.4,9.9c-3.9,2.8-8.2,1.3-11.6-1.3c-4.7-3.5-9.5-5.2-15.3-4
		c-0.9,0.2-2,0.5-2.5-0.8c-0.3-0.8,0.3-1.2,0.9-1.5c13.8-8.3,27.9-14.2,44-6.2c1.2,0.6,2.4,1.1,3.5,1.8
		C566.6,289.7,566.8,290.3,567.7,291.6z M548.4,286c1.5,3.5,2.8,6.4,1.9,10.6c3.8-3,7.2-4.9,11.5-6.4
		C557.7,287.2,553.5,286.9,548.4,286z M533.5,295.9c0.1-2.4,0.2-4.6,0.4-7.2c-3.4,1.7-6.3,3.2-9.9,5
		C527.5,294.6,530.2,295.2,533.5,295.9z"/>
	<path class="st0" d="M565,315.1c-0.3-0.2-0.7-0.3-1-0.5C564.5,314.4,564.8,314.5,565,315.1z"/>
	<path class="st3" d="M377,825c0.4,0,0.7,0,1.1-0.1c0,0.4,0,0.7-0.1,1.1C377.2,826.1,376.9,825.7,377,825z"/>
	<path class="st3" d="M329,810c0.4,0,0.7,0,1.1-0.1c0,0.4,0,0.7-0.1,1.1C329.2,811.1,328.9,810.8,329,810z"/>
</g>
</svg>
