<?xml version="1.0" encoding="utf-8"?>
<!-- Generator: Adobe Illustrator 16.0.0, SVG Export Plug-In . SVG Version: 6.00 Build 0)  -->
<!DOCTYPE svg PUBLIC "-//W3C//DTD SVG 1.1//EN" "http://www.w3.org/Graphics/SVG/1.1/DTD/svg11.dtd">
<svg version="1.1" id="Layer_1" xmlns="http://www.w3.org/2000/svg" xmlns:xlink="http://www.w3.org/1999/xlink" x="0px" y="0px"
	 width="1200px" height="900px" viewBox="0 0 1200 900" enable-background="new 0 0 1200 900" xml:space="preserve">
<g>
	<path fill="#FFFFFF" d="M974.167,450.917C973.417,658.5,805.667,823.75,600.75,823.25c-208.167-0.5-372.833-169.083-372.333-373.5
		c0.5-207.167,168.167-372.417,373.167-372.167C809.333,77.917,974.167,246.083,974.167,450.917z M601.417,800.083
		c191.166,1,351.666-156.5,349.666-353.5c-1.916-190.583-158.583-348-353.75-346c-190.75,1.917-347.917,158.75-345.917,353.75
		C253.417,646,410.75,801,601.417,800.083z M614.083,821c16-0.417,31.417-1.833,46.75-4.5
		c89.75-15.417,164.5-57.583,223.584-126.833c44.333-52,71.583-112.084,82.916-179.417c3.084-18.25,4.5-36.583,4.75-55.083
		c0.084-2.584-0.5-3.75-3.416-3.584c-3.834,0.25-7.75,0.25-11.667,0c-3.167-0.25-4.167,0.667-4.167,4.084
		c-0.25,26.75-3.583,53.083-10,79.083c-16.75,67.417-50.416,125-101.166,172.333c-65.75,61.25-144,92.584-233.917,95
		c-5.417,0.167-5.417,0.084-5.417,5.584c0,0.416,0,0.833,0,1.25c0.334,4-1.75,9.083,0.834,11.583
		C605.583,822.917,610.583,820.667,614.083,821z M971.75,437.75c-0.417-20.583-2.833-40.917-6.917-61
		c-9.5-46.083-26.833-89.083-52.666-128.5c-20.25-30.917-44.5-58.417-72.917-82.167c-22.75-19.083-47.417-35.25-74-48.333
		C747,108.667,728,101.167,708.417,95.417c-31-9.167-62.5-14.667-94.834-15.417c-11.166-0.25-11.166-0.083-11.166,11.25
		c0,7,0,7,6.833,7.333c1.667,0.083,3.25,0.583,4.917,0.583c16.416,0.167,32.583,2.25,48.666,5c39.917,6.833,77.334,20.5,112.5,40.5
		c34.334,19.5,64.25,44.5,90.334,74c18.333,20.667,33.833,43.167,46.75,67.583c25.916,49,38.916,101.417,40.666,156.667
		c0.167,6.416,0.25,6.416,6.417,6.416c0.667,0,1.417,0,2.083,0c10.084,0,10.084,0,10-10.25
		C971.75,438.583,971.75,438.167,971.75,437.75z"/>
	<path fill="#FFFFFF" d="M614.083,821c-3.416-0.333-8.5,2-10.833-0.417c-2.583-2.5-0.5-7.666-0.833-11.583c0-0.417,0-0.833,0-1.25
		c0-5.583,0-5.5,5.416-5.583c89.834-2.417,168.167-33.75,233.917-95.084c50.75-47.333,84.417-104.916,101.167-172.333
		c6.416-25.917,9.75-52.333,10-79.083c0-3.334,1-4.25,4.166-4.084c3.834,0.25,7.75,0.25,11.667,0c2.917-0.166,3.417,1,3.417,3.584
		c-0.334,18.5-1.75,36.833-4.75,55.083c-11.25,67.333-38.584,127.5-82.917,179.417c-59.167,69.25-133.917,111.416-223.667,126.833
		C645.5,819.167,630,820.583,614.083,821z"/>
	<path fill="#FFFFFF" d="M971.75,437.75c0,0.417,0,0.833,0,1.25c0.083,10.25,0.083,10.25-10,10.25c-0.667,0-1.417,0-2.083,0
		c-6.25,0-6.25,0-6.417-6.417c-1.75-55.25-14.75-107.666-40.667-156.667c-12.916-24.333-28.5-46.917-46.75-67.583
		c-26.166-29.5-56.083-54.5-90.333-74c-35.167-20-72.583-33.667-112.5-40.5c-16.167-2.75-32.333-4.833-48.667-5
		c-1.666,0-3.25-0.5-4.916-0.583c-6.834-0.417-6.834-0.333-6.834-7.333c0-11.333,0-11.5,11.167-11.25
		c32.333,0.75,63.833,6.25,94.833,15.417c19.584,5.833,38.5,13.333,56.834,22.333C792,130.833,816.667,147,839.416,166
		c28.417,23.75,52.667,51.167,72.917,82.167c25.833,39.417,43.25,82.417,52.667,128.5
		C968.917,396.833,971.333,417.167,971.75,437.75z"/>
	<path fill="#FFFFFF" d="M335.333,449.25c15.333-64.25,30.583-128.417,45.917-192.583c3.417-14.167,6.75-28.333,10.25-42.5
		c0.583-2.5,1.083-4.417-2.167-5.917c-3.417-1.5-4.5-5.917-3.167-9.417c1.417-3.583,4.167-5.417,8.083-5.333
		c31.583,0.333,63.167-1.417,94.833-1.917c23.75-0.417,47.417-1.167,71.167-1.75c1.333,0,2.75,0.25,4.333-0.833
		c-4.833-5.25-7.666-11.417-7.916-18.583c-0.5-14.167,6.666-24.417,20.75-27.75c18.166-4.333,36.666-4.333,54.916,0.083
		C656,148.417,657,175.25,646.5,187.167c-0.5,0.583-1,1.25-1.25,3.083c8.417,0,16.833-0.167,25.167,0
		c39.916,0.917,79.916,2,119.833,3c5.583,0.167,11.083,0.167,16.667,0.25c4.333,0.083,7.583,1.667,9,5.917
		c1.25,4-0.167,7.167-4.834,9.833c-2.416,1.333-1.083,2.917-0.75,4.25c5.667,23.917,11.417,47.75,17.084,71.583
		c13.083,54.75,26.083,109.5,39.166,164.333c-0.833-0.584-1.666-1.167-2.5-1.75c-0.166-1.084-0.333-2.167-0.583-3.25
		c-11.5-48.25-23.083-96.5-34.583-144.75c-6.584-27.667-13.084-55.25-19.667-82.917c0.25-0.917-0.25-2-0.917-1.833
		c-0.833,0.25-0.666,1.25,0.25,1.75c-0.083,6.917-0.166,13.833-0.166,20.833c0,70.833,0,141.75,0.083,212.583
		c-0.667,0-1.333,0-2-0.083c0-31.25,0-62.5,0.083-93.667c0-44.25,0.084-88.583,0.084-132.833c0.5-1.167,0.5-2.25-0.167-3.917
		c-0.417,1.583-0.75,2.667-1.083,3.75c-7.917,31-15.917,62-23.834,92.917C769.833,362,758,407.667,746.25,453.417
		c-0.75,0.333-1.583,0.666-2.333,1c14.166-54.917,28.333-109.834,42.5-164.75c6.416-25,12.916-49.917,19.416-74.917
		c0.75-2.75,0.917-4.583-2.333-6.333c-4.5-2.333-4.583-6.833-2.667-11.5c-0.916,0-1.5-0.083-1.583,0.083
		c-3.917,5.083-9.25,5.083-15,4.75c-37.667-1.917-75.417-3.333-113.083-4.167c-7.084-0.167-14.167-0.083-21.25-0.333
		c-2.084-0.083-2.584,0.75-2.917,2.5c-1.083,5.167,0,10.25,0.25,15.333c1.5,36.083,1.25,72.167-0.167,108.167
		c-2.75,69.917-2.667,139.917-2.583,209.833c0,20.084-0.417,40.25-0.667,60.334c0,3.416,0.167,6.916,0.5,10.333
		c1,10.333,11.834,16.5,20.5,10.833c7-4.583,13.917-5,21.75-4.083c12.333,1.417,24.667-0.917,36.917-1.667
		c17.916-1,35.75-0.75,53.583,1.25c4.333,0.5,8.333,1.75,12.25,3.75C803.083,621,815.75,629.667,827.25,640
		c4.5,4,6.75,9.083,7.083,15.083c0.333,6.417-2.667,8.917-8.917,7.75c-9.833-1.833-19.333-5-29-7.333
		c-1.416-0.333-2.833-0.667-4.416-1.083c0.083,2.166,1.666,1.833,2.666,2.083c11.167,3.417,22.251,6.833,33.417,10.083
		c3.75,1.084,5.917,3.5,7.083,6.917c4.167,11.917-4.916,22.583-17.25,20.25c-10.5-2-20.833-4.667-31.5-5.75
		c-6.416-0.667-12.583,0.583-17.666,4.667c-18.5,14.916-38.334,14.5-59.084,5.916c-6.916-2.833-13-7.166-19.166-11.5
		c-1,1.667-0.584,3.25-0.584,4.667c0.084,6.417-1.916,9.083-8.166,10.583c-5.75,1.417-11.584,1-17.417,1
		c-18.75-0.083-37.5-0.166-56.25-0.333c-24-0.25-48-0.834-72,0.75c-4,0.25-8.083-0.167-11.917-1.417c-6.083-2-8.75-5.666-8.916-12
		c0-0.916,0-1.833,0-3.25c-15.584,15.667-34.667,16.167-54.25,15c-3.334-0.167-6.584-0.917-9.917-1.167
		c-5.917-0.416-10.917-2.833-15.167-6.916c-1.666-1.584-3.5-3.167-5.416-4.5c-3.334-2.334-6.834-3.167-11-2.417
		c-13.084,2.417-26.083,5.417-39.5,5.5c-5.417,0-7.583-1.25-9.583-6.167c-4.333-10.583-1.333-18.416,8.917-23.333
		c10.583-5.083,22-6.5,33.417-8.25c6.666-1,13.333-1.75,19.75-3.833c-8.334-1.084-16.25,1.25-24.25,2.583
		c-9.834,1.667-19.583,4.083-29.583,4.667c-6.917,0.416-9.833-3.5-7.667-10.25c1.75-5.584,5.333-10.25,9.833-13.667
		c17.667-13.417,36.917-23.583,59.167-26.5c11.916-1.5,23.833,0.667,35.666,1.25c14.667,0.833,29.417,0.917,44.084,0.417
		c9.666-0.334,18.916,0.75,26.833,7.833c4.417,4,13.417,0.083,15.083-6.083c1.5-5.5,1.834-11.25,1.834-16.917
		c0-7.667,0.083-15.25-0.25-22.917c-0.584-13.583,0.583-27.166,0.916-40.75c0.5-21.083,0.25-42.166-0.333-63.25
		c-0.917-32.75-1.25-65.5-1.083-98.25c0.166-26.666-1.167-53.333-0.5-79.917c0.666-24.167,0.75-48.333,0.416-72.417
		c-0.083-5.417-0.583-10.833-0.666-16.25c0-2.833-1.084-3.75-4-3.667c-15.5,0.417-31.084,0.5-46.584,0.917
		c-22.166,0.667-44.333,1.417-66.5,2.25c-10.5,0.333-21.083,0.917-31.583,1.333c-3.833,0.167-7.417-0.583-10.333-3.333
		c-0.167-0.417-0.417-0.75-0.834-0.417c-0.166,0.083,0,0.667,0.084,1c0.917,5.5,0.083,8-4.5,10.333
		c-2.917,1.5-1.667,3.583-1.167,5.25c3.25,13.083,6.667,26.083,10,39.083c17.333,67,34.584,133.917,51.917,200.917
		c-0.75-0.334-1.584-0.667-2.333-1.084c-13.501-52.25-27-104.583-40.417-156.833c-6.25-24.417-12.5-48.833-18.75-73.167
		c0.167-1.333-0.417-2.25-1.333-3.417c-0.167,1.5-0.333,2.583,0.167,3.583c0,1.667,0.083,3.333,0.083,5
		c0,73.833,0,147.667,0.083,221.5c-0.667,0-1.333,0-2,0.083c0-70,0.083-140.083,0.083-210.083c0-7.75-0.083-15.5-0.083-23.333
		c0.75-0.583,1-1.5,0.167-1.75c-0.667-0.167-1.167,0.833-0.917,1.75c-0.083,0.583-0.083,1.083-0.25,1.667
		c-11,46-22,91.917-32.917,137.917c-7.25,30.5-14.417,60.917-21.667,91.417C337,448.083,336.167,448.667,335.333,449.25z
		 M467.5,689.083l0.083,0.084c0.084-0.667,0.084-1.334-0.916-0.917l0.083,0.083c0-1.75-0.75-3-2.583-3.416h0.083
		c0.5-0.584,0.083-1-0.25-1.417c-9.667-14.083-12.333-30.25-13.333-46.833c0.166-3.667,0.166-3.667-1.584-2.834
		c-2.666,1.917-5.25,4.084-8.083,5.834c-4.167,2.5-4.917,6.083-3.833,10.333c1.416,5.583,3,11.167,4.5,16.833
		c-0.167,0.584-0.084,1.084,0.5,1.417c1.75,5.833,3.416,11.667,6.75,16.833c3,4.667,6.833,7.834,12.666,8.25
		c2.917,0.167,5.75,0.917,8.584,1.417c0.833,0.5,1.916,0.5,2.25-0.083c0.583-0.834-0.584-1.667-1.084-1.834
		c-1.583-0.416-1.75-2.083-2.916-2.75C468.417,689.417,468.333,688.917,467.5,689.083z M736.667,689.917
		c-0.917-0.417-1,0.416-1.334,0.916c-1.333,1.75-2.916,3.334-4,5.25c-0.833,1.417-0.083,1.667,1.084,0.667
		c2.583-0.5,5.083-1.333,7.666-1.583c8.667-0.834,14.25-5.75,18-13.334c2.167-4.5,3.584-9.166,4.917-14
		c1.833-4.75,3.083-9.75,4.167-14.75c1.833-8.916-2-15.416-10.334-18.333l0.084,0.083c0.083-0.083,0.166-0.25,0.166-0.333
		c-0.083-0.167-0.25-0.417-0.333-0.583c-0.833-0.834-1.667-1.75-2.917-1.334c-0.416,0.167-0.333,0.917,0.167,1.25
		c0.333,5.75-0.833,11.25-1.75,16.834c-2.25,13.583-7.417,25.916-14.833,37.416h0.083c-0.75,0.334-1.5,0.667-0.833,1.667V689.917z
		 M632.5,385.917l-0.083-0.084c-0.917,1.25,0.333,1.5,0.916,2.167c2.084,2.25,1.584-0.333,1.584-1
		c0.25-5.167,0.416-10.333,0.583-15.5c0.083-4.25,0.167-8.583,0.167-12.833c0.083-2.5,0.083-4.917,0.166-7.417
		c0-1.5,0.167-3.083,0-4.583c-0.166-1.5,0.584-3.667-1.75-4.084c-1.916-0.333-2.5-1.666-2.916-3.083
		c-1.167-3.667-4-5.667-7.25-6.917c-5.75-2.25-11.917-2.166-18-2.416c1.166,0.916,2.416,1.416,3.583,2
		c4.833,2.583,9.75,5.25,14.583,7.916c1.25,0.667,2.5,1.584,1.75,3.25c-0.833,1.834-2.416,1.5-3.916,0.75
		c-0.75-0.333-1.5-0.75-2.25-1.083c-7.25-3.583-14.584-5.667-22.75-3c-3.667,1.25-7.5,1.833-11.25,2.833
		c-1.084,0.334-2.25,0.75-3-0.416c-0.75-1.25,0.333-2.084,1.166-2.75c2.667-2.25,5.834-3.75,8.917-5.334
		c2.75-1.416,5.75-2.25,8.5-4.5c-14.5-1.25-23.333,4.5-28.667,21.084c-1.416,3.083-0.75,6.25-0.833,9.5
		c-0.25,2.75,0.25,5.5,0.583,8.166c1.001,7,4.75,11.167,11.75,12.5c4.167,0.834,8.334,1.75,12.667,1.334l-0.083-0.084
		c1.417,0.917,3,0.417,4.417,0.5c10.25,0.084,20.499-0.333,30.583,2.167l-0.083-0.083
		C631.167,386.083,631.417,386.333,632.5,385.917z M815.833,651.667c2-1.75,4.334-2.334,7.167-2c-2.083-1.5-3.75-3.084-4.667-5.5
		C817.333,646.833,815.583,648.917,815.833,651.667c-0.333-0.25-0.583-0.084-0.666,0.333c0,0.083,0.083,0.25,0.166,0.333
		C815.5,652.083,815.667,651.917,815.833,651.667z M579.417,235.25c5.666-2.75,11.833-4.167,17.583-6.667
		c-6.917-0.5-13,1.833-18.5,5.833c-0.417,0.5-1.75,0.75-0.917,1.583C578.333,236.75,578.917,235.833,579.417,235.25z
		 M608.333,265.083c0.167-0.25,0.417-0.5,0.584-0.75c0.416-0.083,0.833-0.083,1.25-0.167c-0.084,1.083,0,2.25-0.25,3.333
		c-0.417,2.083,0.583,2.5,2.5,2.667c7.083,0.417,8.083-0.417,8.333-7.5c0.333-0.083,0.667-0.083,1-0.167
		c1.5,3.167,3.75,5.917,4.583,10c2.917-3.417,3.75-7.25,5.334-10.583c0.5-0.083,1-0.167,1.583-0.25c-0.333,3.25-2,6-3.25,8.833
		c-2.917,6.583-3,6.5,2.5,11.083c0.917,0.75,1.5,1.75,2.25,2.667c0.417,0,0.833-0.083,1.25-0.083c0-8.333,0-16.75,0-25.083
		c1.333-3.25,1-6.667,0.583-10.083c-0.25-1.5-0.416-3-0.75-4.5c-2.583-13.083-7.333-17.083-20.416-17.25
		c-1.25,0-2.5-0.167-3.667-0.25c-1.75-0.5-3.417-0.417-6.25,0.333c2.833,0.5,4.5,0.75,6.167,1.083c5.5,1.75,11.083,3.5,16.583,5.25
		c1,0.333,2.417,0.667,1.75,2.167c-0.5,1.333-1.417,1.583-3,1.25c-14.833-3.583-29.5-4.167-43.917,1.833
		c-1.833,0.75-4.25,1.083-5-1.167c-1-2.917-1.833-1-2.666-0.25c-3.167,3.083-3.417,7.083-3.5,11.167c-0.084,1.5,0,3-0.167,4.5
		c-0.583,3.833,1.667,7.417,0.917,11.25c0.5,0.833,0.416,2,1.5,2.5l0,0c1.333,4.583,4,7.583,8.833,8.417
		c4,0.667,8.083,1.417,12.083,2.167c0.75-0.25,1.5-0.417,2.334-0.667c2.75,1.667,5.833,0.75,8.75,0.917
		c2.416,0.083,1.333-2.25,1.5-3.5c0.166-1.833-1.167-1.333-2.25-1.333c-3,0.083-5.167,2.5-7.917,3.25
		c0.25-1.083,0.583-2.25,0.833-3.333c1.834-0.583,3.584-1.583,5.417-1.667c4.083-0.167,5.083-2.417,4.667-5.917L608.333,265.083z
		 M381.667,649.167c3.167-0.417,6.25-0.834,9.083,1.666c-1.583-3.916-1.417-8.25-3.917-11.916c0.417,4.583-2.25,7.5-5.167,10.333
		c-0.25,0.083-0.5,0.083-0.667,0.167c0.083,0.083,0.167,0.166,0.25,0.333C381.417,649.5,381.5,649.333,381.667,649.167z
		 M429.167,679.083c-1.75-6.083-3.5-12.083-5.334-18.166c-0.333-1-0.166-2.667-2.083-2.084c-2.75,1.25-5.583,2.417-8.333,3.75
		c-2.917,1.334-4,3.834-3.334,6.834c1.417,6.333,4.584,11.25,11.834,12.083c2.5,0.25,4.916,0.917,7.333,1.333
		c1,0.75,1.917,0.667,1.583-0.666C430.75,681,429.833,680.083,429.167,679.083z M779.083,677.583c-1,2.167-3.666,3.334-3.75,6.25
		c0.5,0,0.917,0.084,1.25,0c0.5-0.166,1-0.416,1.5-0.666c2.917-1.334,5.917-2.167,9.084-2.25c3.166-0.084,5.333-1.584,6.666-4.667
		c3.834-8.667,2.667-11.833-6-15.75c-0.833-0.417-1.75-0.75-2.666-1.083c-1.334-0.25-2,0.25-1.667,1.666
		C782.667,666.667,780.917,672.167,779.083,677.583z M393.25,679.333c0.167,0,0.417,0.084,0.583,0.084
		c-0.083-0.084-0.083-0.167-0.167-0.334c-0.167,0.084-0.333,0.25-0.5,0.334c-0.833-3.834-1.667-7.75-2.5-11.584
		c-1.167,6.584-6.75,8.5-11.667,11C383.917,679.25,388.583,677.5,393.25,679.333z M786.75,639.75
		c0.333,1.333,0.833,2.583,0.25,4.167c-0.417,1.083-1.583,3,0.5,4.083c3.083-0.583,6.25-1.167,9.333-1.667c3.5-0.5,6-2,6.334-5.916
		c0-0.75,0.083-1.584,0.083-2.334c1.25-3.75,0.167-6.666-2.75-9.25c-3.583-3.083-7.583-5.416-12.167-6.416c-1.25,1.5-1,3.25-0.583,5
		C788,631.667,788,635.75,786.75,639.75z M418.25,624.167c-0.333-1.167,1-2.917-1.25-3.334c-3,1.5-6.083,2.75-8.917,4.5
		c-4.5,2.75-7.833,6.334-6.416,12.25c-0.167,0.5-0.334,1,0.25,1.334c0.083,5.25,3.416,7.083,8,7.666c2.916,0.334,5.75,1,8.583,1.584
		c2.583-1.75,1.083-3.834,0.417-5.834C418.833,636.25,418.583,630.167,418.25,624.167z M629.25,477.417h0.083
		c-0.583-3.834-1.333-7.584-2.666-11.25c-0.917-2.5-2.417-4.667-5.084-5.584c-8.25-2.833-21.916-2-28.416,7.667
		c-1.584,2.417-3.667,4.5-5.5,6.75c-0.5,3,2,1.667,3.25,2.333c12.416,0.917,24.916,1.75,37.333,2.667
		c0.833,0.333,1.667,1.083,2.417,0.25c0.416-0.5-0.084-0.917-0.584-1.083C629.833,478.5,630.167,477.667,629.25,477.417z
		 M597.5,694.917l0.083,0.083c-2.333-6.417-4.583-12.833-7-19.25c-0.75-1.917-2.166-3.917-4.416-3.917
		c-9.167-0.083-18.334,0.167-26.334,5.5c-5.583,3.75-7.916,11.667-5.666,17.75c0.833,0,1.75-0.083,2.583-0.083
		c11.667,0.167,23.25,0.333,34.917,0.5c1.916,0.917,3.916,0.083,5.833,0.333c0.25-0.166,0.5-0.333,0.75-0.583
		C598.083,695.167,597.833,695,597.5,694.917z M607.5,695.833c0.583-0.083,1.167-0.166,1.833-0.166
		c13.334-0.167,26.584-0.417,39.917-0.584c1.083,0.5,2.083,1.417,3.083-0.083c-0.166-1.667-0.333-3.25-0.416-4.917
		c-0.834-9-4.334-13.25-12.917-16c-4.75-1.5-9.75-2-14.667-2.25c-6.916-0.416-8.75,0.75-10.75,7.5
		c-1.416,4.917-3.083,9.75-5.5,14.25C607.083,694.083,607.333,694.917,607.5,695.833c-0.167,0.084-0.333,0.167-0.417,0.334
		C607.25,696.083,607.333,696,607.5,695.833z M426.167,640.333c7.833-9.083,18.5-14.083,28.583-19.916
		c-3.5-0.084-6.75,1-9.917,2.166c-3.333,1.25-6.25,1.584-8.833-2.75c0.75,6.417-1.667,10.25-5.75,13.584
		C428.25,635.083,425.083,636.583,426.167,640.333c-0.084-0.083-0.167-0.083-0.25-0.083C426,640.25,426.083,640.333,426.167,640.333
		z M634.833,491.083c-0.083-1-0.833-1-1.583-1.083c-3.083-0.583-5.917-3.75-9.333-1.167C619.5,492.167,615,492,610.25,489.667
		c-6.5-3.167-13.5-3.584-21.083-2.917c2.25,3.583,2.583,7.333,3.416,11c1.084,4.583,2.584,9,4.417,13.417
		c2.083,5.083,5.75,8,11.083,8.833c5.167,0.833,10.417,1.75,15.584,2.583c3.833,0.584,7.25,1.917,8.833,5.917
		c0.333,0.667,0.417,1.583,1.75,1.667c-0.667-2.834,1.583-5.584-0.083-8.417C634.417,511.5,634.667,501.25,634.833,491.083z
		 M501.75,619.083c-0.083-0.333-0.25-0.833-0.583-0.5c-0.334,0.334,0,0.584,0.333,0.75c3.667,9.084,6.583,18.417,8.917,27.917
		c1.083-10.167,1.5-20.25,3.75-31.25C510.083,620.417,506.083,621,501.75,619.083z M706.25,618.583
		c-4.917,0.75-9.917,2.167-14.583-2.166c2.083,10.833,0.833,21.083,3.083,31.916c3.083-10.666,6-20.75,11.417-29.75
		c0-0.25,0-0.5,0.083-0.666c-0.083,0-0.25,0-0.25,0.083C705.667,618.25,705.833,618.5,706.25,618.583z M574.167,454
		c1.583,7.583,5.416,14.167,9.916,21.167c2.75-5.417,6.584-9.25,8.5-14.334c2.584-2.416,5.084-4.833,7.667-7.25
		c5.917-2.083,12.083-2.666,18.333-3.5c6.167-0.75,7.667-2.25,9.084-8.416c0.666-3.084,2-5.5,5.333-6.084
		c2.417-0.416,2.583-1.916,2.5-3.916c-0.333-5.084-2.417-9.667-4.333-14.167c-2.084-5-6.75-7.25-12.167-6.5
		c-3.417,0.5-6.833,1.25-10.25,1.167C601.417,412,594.5,414,587.667,416.25c-12.167,4.083-16.167,9.833-15.917,22.917
		C571,444.5,572.333,449.25,574.167,454z M571.25,612.167c3.5-0.75,7-1.5,10.5-2.25c1.917-0.334,4.083,0.833,5.833-0.834
		c14.417-0.833,28.75,0.167,43.084,1.584c1.25,0.083,2.416,0.25,3.666,0.166c1.25-0.083,1.834-0.666,0.75-1.75
		c-1.083-10.833-0.916-21.666-0.916-32.5l-0.084,0.084c1.084-0.834-0.166-2,0.584-2.917c0-1.583,0-3.083,0-4.667
		c0.083-7.916,0.75-15.833-0.334-23.666c-1.083-7.667-5.25-11.584-13-12.084c-7.166-0.5-14.416-0.583-21.583,0.75
		c-0.75,0.167-2.083-0.5-2.25,1.5c3.25-0.25,5.083,2.834,8.083,3.584c5.834,1.25,11.584,2.75,17.334,4.25
		c1.833,0.5,3.75,1.083,5.5,1.916c1.416,0.667,1.333,2.167,0.916,3.334c-0.583,1.666-1.833,0.75-2.75,0.25
		c-2-1.084-4.083-1.667-6.25-2.167c-14-3.167-26.833,0.167-39,7.167c-1.166,0.666-2.583,2-3.666,0.833
		c-1.167-1.25-0.25-2.833,1-3.917c0.75-0.666,1.5-1.25,2.166-2c3.667-3.75,8.667-6.416,10.584-12.083
		c-4.084,0.667-7.334,2.833-10.75,4.5c-4.75,2.333-7.25,6.083-7.667,11.5c-0.5,6.083-0.667,12.167-0.583,18.25
		c-0.084,0.25-0.084,0.417,0,0.667c-1,4.75-1.084,9.5-0.5,14.333c0.083,5.917,0.166,11.833,0.416,17.667
		c0.084,2.833-0.416,5.416-1.75,7.916c-0.333,0.167-0.833,0.334-0.416,0.75C570.333,612.417,570.917,612.167,571.25,612.167z
		 M548.25,680c1.5-4.083,3.25-8.083,7.417-10.25c7.083-4,15.166-4.167,22.916-5.417c9.667-1.5,10.917-2.833,13.084-12.083
		c0.416-1.833,1.083-3.75,1.916-5.5c1.084-2.25,3-3.75,5.417-4.083c10.167-1.417,12.833,0.333,15.417,8.25
		c0.333,1.083,0.833,2.083,1.083,3.166c1.417,6.084,5.5,9.25,11.417,9.917c7.666,1,15.25,2.25,22.25,6c3.416,2.667,6.083,6,7.833,10
		c0.917,5.417-2,10.167-3.167,15.75c7.084-0.833,14-0.25,20.75-1.583c3.417-0.667,7-2.084,8.417-5.417c3-7,3.417-14.333,1.75-21.75
		c1-2.917,0.167-5.833,0-8.75c0.417-9.5-1.833-13.5-9.417-17.083c-14.583-7.084-30.25-10.834-45.5-15.75
		c-5.333-1.75-10-0.167-13.583,4.583c-8.167,10.917-18.667,11.25-27.583,0.917c-3.25-3.75-6.917-5.75-12-5
		c-13.75,2.083-27.084,5.5-40.084,10.583c-10.666,4.167-16.166,11.667-16.083,23.167c-1.167,1.583,0.833,3.166,0.083,4.75
		c-1.666,5.666-1.083,11.5-0.166,17.166c1.5,9,5.416,12.667,14.333,14.167c4.167,0.667,8.25,0.5,12.417,0.167
		c1.25-0.084,2.666-0.167,2.166-2.084C548.167,689.167,548.75,684.5,548.25,680z M597.917,300.333
		c-4.334-0.833-8.834,0.083-12.917-2.083c-1.333-0.667-3-1.333-3.167-3c-0.166-2.083,2.167-1.583,4-3
		c-7.916,0.25-12.083-3.667-14.083-10.25c0,12.917,0,25.75,0,38.75c3.917-0.417,1.75-6.25,6-6.083c-0.167-0.25-0.25-0.5-0.417-0.75
		c-0.416-0.834-0.166-1.167,0.834-1.25c3.166-0.25,6.083-0.584,9.333-1.834c2.917-1.166,7.25-2.5,11.25-1.583
		c1.75,0.417,3.667,0.333,5.667,0.5c-0.667-0.833-1.584-1.5-1.5-2.083c0.083-1.084,1.25-0.75,2-0.75
		c3.25-0.167,6.5-0.334,9.75-0.417c-2-0.917-4-1.083-6-1.25c-3.334-0.25-6.667-0.167-9.75-1.583
		C597.333,302.833,595.917,302.083,597.917,300.333c0.083-0.25,0.166-0.583,0.083-0.667c-0.333-0.25-0.417-0.083-0.167,0.25
		C597.833,300.083,597.833,300.25,597.917,300.333z M465.417,638.25c0.083,10.25,6.333,27.75,14.083,39
		c8.5,12.5,13.333,13.5,26.417,5.75c7.25-4.333,8.666-8.917,4.583-16.333c-3.167-5.75-5.25-11.834-7.333-18
		c-2.584-7.75-4.667-15.667-9.417-22.5c-3.917-5.5-7.333-6.584-13.583-4.167c-2.834,1.083-5.417,2.75-8.084,4.167
		C467.25,628.75,465.417,633,465.417,638.25z M739.833,640.5c0.084-9.667-3.166-13.667-11.916-16.583
		c-7.25-2.417-11.084-1.25-15.667,5.333c-8.5,12.167-12.917,26.25-17.417,40.167c-2.833,8.833,10.75,20.666,19.417,18.666
		c1.917-0.416,3.667-1.25,5-2.75C731.25,672,737.833,656.25,739.833,640.5z M589.75,157.75c-4.833-0.25-10.833,1.5-14.417,3.917
		c-5.583,3.917-8,10.583-6.083,16.833s8.083,10.833,14.75,10.667c14.25-0.417,28.583-0.5,42.833,0
		c6.167,0.167,11.917-3.833,14.167-9.583c2.25-5.583,0.917-11.75-3.583-16.083s-10.167-5.5-16.167-5.75c5,2.5,9,6,10.917,11.333
		c2.25,6.083-2.084,12.5-8.5,12.083c-12.334-0.667-24.667-0.667-37,0c-6.334,0.333-10.584-6.25-8.334-12.167
		C580.5,163.667,584.333,160.167,589.75,157.75z M635.75,225.833c-0.25-9.167-0.083-17.333,1.5-25.417
		c0.5-2.333-0.5-2.417-2.417-2.167c-4.666,0.667-9.333,0.833-14.083,0.583c-8.333-0.333-16.75-0.083-25.667-0.083
		c3.334,3.25,3.167,7.167,3.75,11c1.167,7.583,5,10.417,12.667,9.583c1.917-0.167,3.833-0.417,5.75-0.5
		C624,218.667,630.333,219.667,635.75,225.833z M634.667,332.917c0.666-13.25-0.167-26.584,1-39.833
		c0.25-2.75-1.75-2.583-3.417-3.167c-13.333-4.417-27.167-1.25-40.667-3.25c9.25,4.167,18.334,8.333,27.834,11.667
		c2.083,0.75,4.083,1.833,5.916,3c4.417,2.917,4.25,7.5-0.25,10.167c-4.166,2.5-8.833,2.917-13.583,3.083
		c-7.083,0.25-14.25-0.333-21.083,2.417c12.166-0.417,24,0.833,35.5,4.833C631.167,323.667,634.75,326.75,634.667,332.917z
		 M588.833,613.417c1.584,3.5,2.584,5.75,3.584,8c1.083,2.25,2.083,4.583,3.25,6.75c2.666,5,8.75,6.083,12.416,1.583
		c4.167-5.083,7.584-10.917,11.334-16.333C609.25,615.75,599.5,616.917,588.833,613.417z M602.167,690
		c0.916-1.167,1.416-1.5,1.583-2c4.833-11.75,4.083-23.833,1.417-35.917c-0.25-1.083-1-2.25-2.25-2.166
		c-1.834,0.083-2.5,1.75-2.834,3.166C596.667,665.417,597.167,677.417,602.167,690z M599.75,522.333
		c-1.833-1.583-3.583-2.75-4.917-4.25c-5.333-5.916-11.833-2.583-17.583-1.666c-3.917,0.666-1.25,5.416-1.583,8.333
		c-0.084,1-0.75,2.083,0.25,3.333C583.167,524.083,591.333,523.5,599.75,522.333z M577.583,221.917
		c6.834-2.5,13.667-1.583,20.667-2.75c-2.333-2.917-4.083-5.333-5.25-8.167c-0.917-2.25-3-2.917-5.167-2.5
		c-8.166,1.833-8.75,1.583-9.583,9.333C578.25,219,577.917,220.083,577.583,221.917z M636.5,443.667
		c-8.333,9.5-8.083,21.25,0,29.416C636.5,463.667,636.5,454.083,636.5,443.667z M634.5,408.25c0.333-0.333,0.667-0.583,0.917-0.917
		c0-0.666,0-1.416,0-2.083c-0.167-4.333,0.833-8.5-5.334-10.667c-4.166-1.416-8.083-2.916-12.5-3.333
		c0.584,1.75,1.167,3.25,1.5,4.833c0.417,2,1.417,3,3.667,3.084C628.417,399.5,633.833,400.417,634.5,408.25z M768.917,617.333
		c-3.834,7.667-9.75,4.834-15.334,3.667c7.334,4.083,14.25,8.333,20.834,13.667C770.333,629.583,767.167,624.417,768.917,617.333z
		 M601.583,391.833c-4.083,0-7.333,0-10.833,0c3.667,3,2.5,6.75,2.167,10.334c-0.084,1.25-1.167,3.166,0.666,3.583
		c2.084,0.417,2.084-1.667,2.417-3.083C596.917,398.833,597.5,394.833,601.583,391.833z M824,680.583
		c-4.833-2.333-9.833-4.333-11.5-10.333c-0.833,3.833-2,7.25-3.333,11.167C814.417,679.083,819.167,681,824,680.583z M678,617.167
		c-1.5,5.333-5.417,3.833-9.333,4c5.166,3.166,9.75,5.916,14.25,8.75C681,625.833,678.333,622.417,678,617.167z M622.417,267.333
		c-1,4.083-3.25,7.333-5.917,10.75c3.833,0.25,6.917,0.5,10.5,0.833C625.333,274.667,623.917,271,622.417,267.333z M527.333,617.333
		c-1.083,5.084-3.833,7.834-7,11.417c6.167-1.75,10.584-4.833,15.917-7.417C532.75,620.833,529.167,622.5,527.333,617.333z
		 M572.583,399.75c1.667-3.667,4-6.583,8.417-9c-4.083-0.583-6-3.167-8.417-5.667C572.583,390.417,572.583,395.083,572.583,399.75z
		 M619.25,271.833c-3.333,0-5.417,0-7.417,0c-3.166,0-1.583,2.667-2.166,4.083c-0.917,2.167,1,1.667,2.083,1.917
		C616.167,278.667,616.083,274.167,619.25,271.833z M572.333,477.917c0.334,4.833,0.25,8.583,1.334,12.75
		c1.333-2.834,3.25-4.25,5.833-5.667C576.667,483.333,574.667,481.25,572.333,477.917z M581.5,498.333
		c-0.667,2.75-0.833,5.334-3.25,7.25c4.083,0,7.667,0,11.25,0C585.833,504.167,583.5,501.667,581.5,498.333z M578.167,412.833
		c3.416-0.833,6.5-2.166,9.833-4.25c-3.167-0.583-3.5-3-4.5-5.25C583.75,407.667,580.167,409.667,578.167,412.833z M608.583,396.333
		c-0.166,3.084-1.666,4.584-2.583,6.584c2.583-0.667,4.833-1.167,7.083-1.75C611.083,400.417,610.25,398.833,608.583,396.333z
		 M572.75,204.083c1.5-2.833,3.25-4.417,6.5-5.5c-3.083-0.417-5.167-0.667-7.333-1C572.25,199.75,572.417,201.5,572.75,204.083z
		 M790.917,654.833c-3.417-1.583-7.084-2.25-10.834-2.333C783.667,653.417,787,655.083,790.917,654.833z"/>
	<path fill="#FFFFFF" d="M806.25,449.917c0.667,0,1.333,0,2,0.083c10.5-0.083,21.083-0.75,31.583-1.25
		c8-0.417,15.917-2.083,24-1.167c0.834,0.584,1.667,1.167,2.5,1.75c0.5,1.25,1.084,2.5,1.584,3.834c2.5,6.583,1.5,11-3.834,15.583
		c-7.25,6.167-15.75,9.667-25,11.5c-16.833,3.333-33.75,6.583-51,5.667C777,485.333,766,483.833,755.25,481.25
		c-15-3.667-19.167-13.333-11.667-26.833c0.75-0.334,1.584-0.667,2.334-1c5.333-1.667,10.833-2,16.333-2.5
		C776.917,449.417,791.583,450.333,806.25,449.917z M837.833,455.083c-1.083-0.083-2.166-0.166-3.25-0.166
		c-19.833,0.666-39.666-0.25-59.5,0.75c-6.916,0.333-13.833-0.084-20.75,0.916c-2.666,0.417-5.166,1.417-5.75,4.084
		c-0.666,3.25-0.833,6.666-0.083,10.583c3.583-4.333,8-5.417,12.5-6.167c14.667-2.583,29.5-2.666,44.25-4.083
		C816.25,459.833,827.083,457.917,837.833,455.083z M854.5,468.333c2.5-0.5,4.667-1.666,6.667-3.25c2-1.583,4.333-3.666,3.416-6.083
		c-1.083-2.917-4.333-1.75-6.666-1.333c-7,1.166-13.917,2.583-20.834,4c-13.25,2.833-26.666,4.833-39.833,8.333
		c-1.917,0.5-4.333,0.917-4.083,3.833c0.25,2.5,2,4,4.333,4.5c3.583,0.834,7.167,1.417,11.083,0.667c-3.416-4.333-3-6.167,2.25-7.5
		c12.5-3.167,25-6.167,37.584-8.917C853.417,461.417,854.917,463,854.5,468.333z M786.667,468.333
		c-6.5,1.75-12.584,2.167-18.667,2.417c-1.667,0.083-3.083,0.417-3.167,2.417c-0.083,1.5,0.917,2.416,2.25,2.5
		c6.417,0.666,12.834,1.333,19.5,2C785.583,474.5,785.417,471.667,786.667,468.333z"/>
	<path fill="#FFFFFF" d="M393.417,449.917c0.667,0,1.333,0,2-0.084c8.833,0,17.75-0.083,26.583,0.167
		c11.333,0.25,22.667,0.25,33.75,3.25c0.75,0.333,1.583,0.667,2.333,1.083c2,2.917,3,6.084,3.25,9.584
		c0.667,8.333-2.583,13.916-10.666,16c-20.334,5.416-41,7.75-62.083,4.666c-9-1.333-18.083-2.583-27-4.5
		c-6.583-1.416-12.667-3.916-18.417-7.25c-13.417-7.916-12.333-14.333-7.917-23.5c0.833-0.583,1.667-1.166,2.583-1.75
		c1.917-0.25,3.75-0.416,5.75-0.25C360.167,448.75,376.75,449.833,393.417,449.917z M364.583,455.667
		c16.583,4.25,34.25,5.333,51.833,7c12.583,1.166,25.75-0.334,36.916,8c0-2.417,0-4.667,0-6.834c-0.083-4.916-1.666-6.5-6.666-7.25
		c-6.917-1-13.834-0.833-20.75-0.833C405.333,455.583,384.667,455.667,364.583,455.667z M347.333,468.5
		c-0.667-5.333,0.917-7,6-5.917c12.417,2.75,24.833,5.75,37.167,8.834c5.583,1.416,6,3,2.667,7.583
		c3.833,0.583,7.5,0.083,11.083-0.833c2.25-0.584,4-2.167,4.167-4.667c0.166-2.667-2.084-2.917-3.834-3.583
		c-1.166-0.417-2.416-0.75-3.583-1c-15.083-3-30.167-6.084-45.25-9.084c-4.583-0.916-9.25-1.833-13.917-2.583
		c-1.75-0.25-3.917-0.667-4.833,1.333c-0.833,1.834,0.667,3.417,1.75,4.75C341,466,343.833,467.333,347.333,468.5z M414.917,468.417
		c1.083,2.666,1.333,5,0.583,7.25c-0.75,2.333,0.417,2.25,2,2c5.5-0.584,11-1.167,16.5-1.75c1.5-0.167,2.75-0.75,2.75-2.5
		c0.083-2-1.25-2.584-3-2.584C427.667,470.583,421.5,470,414.917,468.417z"/>
	<path fill="#FFFFFF" d="M572.5,570.917c2.083,0.416,2.5,2.333,3.417,3.833c4.166,6.417,9.333,9.583,17.666,8.333
		c7.167-1.083,13.75-3.833,20.75-5.333c2-0.417,4.084-0.75,6.417-1.167c-0.917-1.833-3.25-3.25-2.25-5.75
		c0.583-1.416,1.583-2.583,2.917-3.333c5.75-3.5,10-2.917,13.25,1.75c0,1.583,0,3.083,0,4.666c0.416,1.084-0.084,2-0.584,2.917
		l0.084-0.083c-1.334,1.083-1.584,3.166-3.584,3.5c-0.833,0.25-1.583,0.5-2.416,0.75c-4.75,1.333-9.417,2.75-14.167,4.083
		c-1.083,0-2,0.167-2.833,0.917c-4.584,0.917-8.834,2.75-13,5c-1.25,0-2,0.667-2.667,1.583c-4,2.334-6.583,5.75-8.083,10.084
		c-0.5,1.666-2.167,2.916-1.667,4.416c2.667-2.5,5.583-5.166,8.417-7.75c0.666-0.083,1.416,0,2-0.333
		c7.333-4.167,15.583-5.334,23.666-6.667c7.584-1.25,9.584,0.417,10.834,7.917c0.583,3.333,1.25,6.75,4.333,9
		c1,1.167,0.5,1.75-0.75,1.75c-1.25,0.083-2.417-0.084-3.667-0.167c-1.583-3.25-3.166-6.417-4.666-9.667
		c-1.25-2.666-3.084-3.833-6.167-3.666c-12,0.666-22.833,4.166-32.25,11.75c-1.75,1.666-3.917,0.5-5.833,0.833
		c-1-6.667,2-12.25,5.5-18.083c-11.417,1.916-13.5,1-14-6c-1-4.75-0.834-9.5-0.75-14.334
		C572.417,571.333,572.417,571.083,572.5,570.917z M625.917,575.667c2.416-0.667,4.416-1.25,4.333-4c-0.083-1.25-0.5-1.834-1.75-1.5
		c-1.917,0.416-3.917,1-3.583,3.583C625,574.5,624.75,575.833,625.917,575.667z"/>
	<path fill="#FFFFFF" d="M572.5,351.083c1.833,9.667,9.333,10.834,17.083,11.5c11.667,1,22.75-1.666,33.75-5
		c0.917-0.25,1.584-0.416,1.167-1.583c-1.25-3.167,0.417-5,3.083-6.25c3.084-1.5,5.917-1,8.334,1.417
		c-0.084,2.5-0.084,4.916-0.167,7.416c-4.75,8.667-13.333,9.334-21.667,10.334c-4.75,0.583-8.75,2.083-11.666,5.916
		c-0.584,0.5-1.5,0.834-0.584,1.834c-0.416-0.667-0.833-0.25-1.25,0c-0.083,0.083-0.083,0.583,0,0.583c0.584,0.167,1,0,1.084-0.667
		c0.416-0.333,0.916-0.75,1.333-1.083c7.917-7.5,18-6.167,27.583-6.75c1.75-0.083,3.584,1.083,4.917,2.667
		c-0.167,5.166-0.333,10.333-0.583,15.5c0,0.666,0.5,3.25-1.584,1c0.334-1,0.5-1.917-0.916-2.167l0.083,0.083
		c0.083-0.666-0.167-1.083-0.917-0.916l0.084,0.083c0.083-2-0.667-3.917-0.334-6.083c0.417-2.167-0.833-4.5-3.166-4.584
		c-9.667-0.25-19.75-1.916-27.334,6.75c-1.166,1.334-2.416,2.25-4.25,1.334l0.084,0.083c-0.917-0.833-0.917-1.583-0.334-2.833
		c1.417-3,2.417-6.25,3.584-9.334c-5.834,3.834-12,3.167-18.167,2.5c-3.167-0.333-5.167-2-6.25-5.166
		c-0.917-2.5-2-5.084-3.917-7.167C571.75,357.333,571,354.083,572.5,351.083z M630.75,353.25c-0.75,0.167-2.083,0.167-2.417,1.75
		c-0.166,0.75,0.417,1.5,1.084,1.25c1.166-0.333,2.916-0.083,3-2C632.583,353.333,631.833,353.25,630.75,353.25z"/>
	<path fill="#FFFFFF" d="M571.833,248.5c2.584,10.25,9.75,12.167,19.25,11.667c8.917-0.5,17.25-3.833,26.084-4.583
		c0.833-0.083,1.666-0.333,2.5-0.25c2.75,0.25,4.833,0.5,4.75-3.583c-0.084-3.167,5.166-5.5,8.583-4.417
		c1.167,0.417,2.25,1,3.417,1.5c0.416,3.417,0.75,6.75-0.584,10.083c-0.916,0.917-1.75,1.75-2.666,2.667
		c-0.5,0.083-1,0.167-1.584,0.25c-3.25,0.833-6.583,0.417-9.916,0.667c-0.334,0.083-0.667,0.083-1.001,0.167l0.084,0.083
		c-0.084-0.5-0.417-0.583-0.834-0.417c-3.333,0.25-6.75,0.5-9.833,1.917c-0.417,0.083-0.833,0.083-1.25,0.167
		c-0.167,0.25-0.417,0.5-0.583,0.75l0.083-0.083c-4.417,1.167-7.75,3.667-10,7.583c-0.25,1.083-0.583,2.25-0.833,3.333
		c0,0.25,0,0.5-0.167,0.75c-0.75,0.25-1.5,0.417-2.333,0.667c-1.25-4.583,1.666-8.083,3.333-11.917c-1-0.333-1.25,0.167-1.583,0.5
		c-6.417,6.917-13.417,7.333-20.834,1.333c-0.5-0.417-0.916-1.583-1.916-0.583l0,0c0.5-1.5,0.416-2.583-1.5-2.5
		c0.666-3.833-1.584-7.417-0.917-11.25C571.833,251.5,571.75,250,571.833,248.5z"/>
	<path fill="#FFFFFF" d="M649.25,669.917c1.333-1.5,3.083-0.584,4.583-0.584c4.584-0.083,9.167-0.25,13.75,0.167
		c8.917,0.833,13.917-3.917,17.334-11.333c0.166,2.916,1,5.833,0,8.75c-0.75,3.75-1.417,7.5-2.417,11.25
		c-1.25,4.5-4.083,6.416-8.667,6.75c-6.25,0.5-12.083-0.25-16.75-4.917C655.25,676,652.667,672.667,649.25,669.917z"/>
	<path fill="#FFFFFF" d="M520.667,659.5c0.166,0,0.416,0,0.416,0c4.584,12.167,14.334,12.417,24.917,11.083
		c3.25-0.416,6.417-1.583,9.75-0.916c-4.167,2.166-5.917,6.166-7.417,10.25c-2.083,0.666-3.416,2.75-5.833,2.666
		c-4.167,0-8.25,0.25-12.417,0.417c-4.25,0.083-6.666-2-7.5-6.167c-0.916-4.166-1.583-8.416-1.833-12.666
		C521.5,662.667,519.417,661.083,520.667,659.5z"/>
	<path fill="#FFFFFF" d="M571.667,439.333c1.75,0.25,1.583,1.667,1.833,2.834c1.917,12,7.083,13.416,19.5,11.75
		c2.417-0.334,4.833-0.917,7.25-0.25c-2.583,2.416-5.083,4.833-7.667,7.25c-0.75,0.333-1.5,0.5-2.166,0.916
		c-6,3.5-8.25,2.917-12.334-2.666c-1.25-1.75-1.833-4-3.833-5.167C572.333,449.25,571,444.5,571.667,439.333z"/>
	<path fill="#FFFFFF" d="M632.667,528.5c0.333-6.167-1-12.167-2.084-18.083c-0.333-2.167-2.916-1.75-4.583-1.917
		c-8.083-0.917-16.167-1.833-24.25-2.75c-1-0.083-1.917-0.25-2.917-1.417c2.5-1.416,5.084-1.75,7.75-1.75c5.667-0.083,11.334,0,17,0
		c5.667,0,7.25-1.333,8.334-6.916c0.333-1.917,1-3.75,1.5-5.584c0.75,0,1.5,0.084,1.583,1.084c-1,1.25-1.25,2.75-1.5,4.25
		c-1.167,6.916-3.5,8.833-10.583,8.75c-5.334-0.084-10.667,0-16,0c7,1.416,13.916,2.5,21,3.166c3.416,0.334,4.5,2.084,4.75,5
		c0.333,3.167-0.084,6.5,1.666,9.5c1.667,2.834-0.583,5.584,0.084,8.417C633,530.083,632.917,529.167,632.667,528.5z"/>
	<path fill="#FFFFFF" d="M649.25,695c-1.25-1.667-3.25-2.083-5.083-2.333c-6.417-1-13.417-1-12.417-11.084
		c-0.917,3.5-1.167,6.667-3.583,8.917c-2.584,2.5-5.917,2.167-9,2.5c-3.417,0.417-6.834,0.583-9.834,2.583
		c-0.583,0.084-1.166,0.167-1.833,0.167v0.083c-0.083-0.833-0.333-1.75,0.583-2.333c4.834-0.917,9.584-1.75,14.417-2.25
		c4.917-0.5,7-3.333,7.083-8.5c0.084-2.333-0.25-4.667-0.25-7.083c0-0.917,0.5-1.584,1.5-1.75c1.084-0.084,1.417,0.666,1.584,1.5
		c0.583,2.25,0.916,4.583,1,7c0.083,6,1.416,7.666,7.416,8.25c4.25,0.5,8.084,1.666,11.5,4.25
		C651.333,696.417,650.25,695.583,649.25,695z"/>
	<path fill="#FFFFFF" d="M554.167,695.083c2.333-2.75,5.75-3.083,9-3.416c6.916-0.834,8.25-2.25,8.416-9.25
		c0.084-2.084,0.25-4.167,0.917-6.167c0.25-0.833,0.583-1.75,1.5-1.667c1.083,0.084,1.667,1,1.667,2.084c0,1.666-0.25,3.333-0.417,5
		c-0.583,6.416,1.917,9.833,8.25,10.5c4.833,0.416,9.583,1.25,14.083,2.916L597.5,695c0,0.333,0,0.583,0,0.917
		c-1.917-0.25-3.917,0.583-5.833-0.334c-2.417-2.416-5.667-1.583-8.5-1.916c-6.417-0.917-9.334-3.834-9.334-10.334
		c0-1.833,0.167-3.666,0.25-5.5c-0.833,2.084-1.166,4.25-1.333,6.417c-0.417,6.167-1.5,7.25-7.75,8.667
		c-2.75,0.666-5.833,0.166-8.25,2.25C555.917,695,555,695.083,554.167,695.083z"/>
	<path fill="#FFFFFF" d="M628.167,479.917c-2-2.167-4.917-2.25-7.417-3.334c-3.75-1.583-7.917-2.583-9-8
		c-1.583,8.5-8.5,6-13.583,7.167c-2.417,0.583-5.167-0.333-7.417,1.5c-1.167-0.583-3.75,0.667-3.25-2.333
		c6.333,0.166,12.583-0.584,18.75-1.667c2.917-0.5,3.083-2.833,3.5-4.917c0.583-2.833,0.75-5.666,2-8.416
		c2.25,1.5,1.417,3.5,1.333,5.083c-0.25,4.75,1.5,8.083,6.167,9.417c3.25,1,6.25,3,9.917,2.916h-0.084
		c-0.833,1.084,0.167,1.25,0.75,1.584c0.5,0.25,1.084,0.583,0.584,1.083C629.833,481,629,480.333,628.167,479.917z"/>
	<path fill="#FFFFFF" d="M418.667,648.167c-0.25-1.167-0.5-2.417-0.834-3.584c-2-7.25-2.833-7.75-10.333-5.666
		c-1.833,0.5-3.667,1.5-5.5,0.083c-0.583-0.333-0.5-0.833-0.25-1.333c2.5-1.75,5.333-2.75,8.25-3.584
		c2.917-0.833,4.667-2.5,5.083-5.666c0.334-2.5,1.25-5,2-7.5c2.25,0.416,0.917,2.166,1.25,3.333c-2,5.167-3.083,11.167-10,12.5
		c-0.75-0.083-1.5-0.25-2.416,0.917c1.166-0.25,2,0.083,2.5-0.834c8.666-0.083,8.666-0.083,10.75,5.584
		C419.75,644.25,421.167,646.333,418.667,648.167z"/>
	<path fill="#FFFFFF" d="M803.167,640.5c-2.834,0.417-5.334-1-8-1.5c-4.167-0.833-6.334,0.417-6.834,4.667
		c-0.166,1.5-1.083,2.833-0.75,4.416C785.5,647,786.667,645,787.083,644c0.584-1.583,0.084-2.833-0.25-4.167
		c3.167-2.416,6.75-2.75,10.584-2.083c0.666,0.75,1.416,0.833,2.583,0c-1-0.167-1.667-0.167-2.333-0.25
		c-4.917-1.417-8.417-4.167-9-9.667c0-0.083-0.5-0.083-0.75-0.166c-0.417-1.75-0.75-3.417,0.583-5
		c1.333,8.083,5.583,13.333,13.917,15c0.333,0.083,0.666,0.416,1,0.666C803.25,639,803.25,639.75,803.167,640.5z"/>
	<path fill="#FFFFFF" d="M464.167,687.5c-3.917-3.417-6.667-7.75-9-12.167c-2.834-5.416-6.917-7.75-12.834-7.166
		c-0.666-0.334-0.75-0.834-0.5-1.417c0.584-0.583,1-1.333,1.667-1.75c3.917-2.5,8.917-4.25,6.667-11
		c2.916,5.583,2.416,6.5-6.667,12.833c8.75-0.75,11.167,5.25,14.5,10.334c1.833,2.75,3,6.083,6.333,7.75h-0.083
		C463.5,685.75,465.417,686.667,464.167,687.5z"/>
	<path fill="#FFFFFF" d="M751.667,670c1.916-3.583,5.916-2.583,8.916-3.75c-0.166-0.417-0.166-0.833-0.25-0.917
		c-7.833-2.666-7.083-8.416-5.75-14.833c1-4.75,1.417-9.583,0.5-14.417c-0.166-0.833-0.25-1.666-1.083-2.083
		c-0.583-0.333-0.667-1.083-0.167-1.25c1.25-0.5,2.084,0.5,2.917,1.333c-0.25,0.334-0.833,0.75,0.167,0.917l-0.084-0.083
		c0.167,7.166-0.083,14.25-1.583,21.25c-0.667,2.916,0.25,4.916,3.083,6.333c2,1,5,1.583,4.334,5.083
		C758.917,668.333,755.25,669.167,751.667,670z"/>
	<path fill="#FFFFFF" d="M785.167,659.333c-0.084,6-0.334,12.084,9.166,11.834c-8.166,1-13.833,4.416-16.25,11.916
		c-0.5,0.25-1,0.5-1.5,0.667c-0.333,0.083-0.75,0-1.25,0c0.084-2.917,2.75-4.083,3.75-6.25c2.75-2.333,4.417-6.25,8.917-6.25
		c-3-0.667-4-2.583-3.917-5.5c0-1.583,0.5-3.333-0.583-4.833C783.25,659.583,783.833,659.083,785.167,659.333z"/>
	<path fill="#FFFFFF" d="M737.333,688.25c2.084,1.083,2.5-1,3.084-1.917c2.833-4.25,5.333-8.583,8.083-12.916
		c0.833-1.334,1.167-3.167,3.167-3.5c-4.084,8.75-8.584,17.25-16.25,23.666c-1.084,0.917-2.75,1.417-3.084,3.084
		c-1.166,1-1.916,0.666-1.083-0.667c1.083-1.917,2.667-3.5,4-5.25c0.667,0,1.25-0.083,1.333-0.917l-0.083,0.084
		C737.5,689.75,738.333,689.417,737.333,688.25L737.333,688.25z"/>
	<path fill="#FFFFFF" d="M423.917,660.917c-0.834,1.666-0.584,3.5-0.667,5.25c-0.083,2.166-0.667,4.083-2.917,4.916
		c1.084,1.584,4.167,1.084,3.917,3.917c-3.167-2.417-7.333-1.5-11.083-3.083c1.166-1.75,2.916-1.834,4.333-1.834
		c3.083-0.083,4.417-1.5,4.25-4.666c-0.167-2.167,0.083-4.334,0.083-6.584C423.75,658.25,423.5,659.917,423.917,660.917z"/>
	<path fill="#FFFFFF" d="M450.833,636.667c-1.583,3.833-0.666,7.75-0.333,11.666c0.167,1.417,1.167,3-0.917,3.834
		c-1-6-1.583-12.167-0.333-18.334C451,633,451,633,450.833,636.667z"/>
	<path fill="#FFFFFF" d="M470.25,694.75c-1.167-2.583-4.667-3.333-5.25-6.417c0.583-1,1.167,0.167,1.75,0l-0.083-0.083
		c0,0.583,0.25,0.917,0.916,0.917l-0.083-0.084c0,0.667,0.417,0.917,1,0.917c1.167,0.667,1.417,2.333,2.917,2.75
		c0.5,0.167,1.666,1,1.083,1.833C472.167,695.167,471.083,695.25,470.25,694.75z"/>
	<path fill="#FFFFFF" d="M425,675.833c2.583-0.5,2.417,2.667,4.25,3.25c0.583,1,1.5,2,1.75,3.084c0.25,1.416-0.583,1.5-1.583,0.666
		C427.917,680.5,426.417,678.167,425,675.833z"/>
	<path fill="#FFFFFF" d="M573.25,585.833c-0.417,0-0.833,0-1.25,0c-0.583-4.833-0.5-9.583,0.5-14.333
		C572.417,576.333,572.333,581.083,573.25,585.833z"/>
	<path fill="#FFFFFF" d="M611.583,226.833c0,0.5-0.083,0.917-0.083,1.417c-1.667-0.25-3.333-0.583-6.167-1.083
		C608.167,226.417,609.833,226.333,611.583,226.833z"/>
	<path fill="#FFFFFF" d="M396.5,223.25c-0.417,0.083-0.833,0.083-1.167,0.167c-0.5-1-0.333-2.083-0.167-3.583
		C396.083,221,396.667,221.917,396.5,223.25z"/>
	<path fill="#FFFFFF" d="M806.333,223.333c-0.416-0.083-0.833-0.083-1.25-0.167c0.334-1.083,0.584-2.167,1.084-3.75
		C806.917,221.083,806.833,222.25,806.333,223.333z"/>
	<path fill="#FFFFFF" d="M809,216.583l-0.333,0.083l-0.334-0.167c-0.833-0.5-1-1.5-0.25-1.75
		C808.667,214.583,809.25,215.667,809,216.583z"/>
	<path fill="#FFFFFF" d="M393.417,216.5L393,216.583l-0.417-0.083c-0.25-0.917,0.25-1.917,0.917-1.75
		C394.417,215,394.167,216,393.417,216.5z"/>
	<path fill="#FFFFFF" d="M607.5,695.833c-0.167,0.084-0.333,0.25-0.417,0.334C607.167,696.083,607.333,695.917,607.5,695.833
		L607.5,695.833z"/>
	<path fill="#FFFFFF" d="M676.583,654.917c-0.666,1.25-1.833,1.083-2.833,0.666c-5.75-2.166-11.25-0.666-15.917,2.167
		c-9.083,5.417-16.833,2.833-24.083-3c-4.75-3.833-9.167-8-15.5-9.083c-1-0.167-2-0.75-2.083-1.75
		c-0.084-1.25,1.083-1.834,2.083-2.25c2.583-0.917,5.25-1.75,7.917-2.417c5.5-1.25,11.083-2.417,16.666-3.417
		c3.25-0.583,6.417-0.333,9.167,1.584c7.833,5.25,15.583,10.583,23.333,15.916C675.917,653.75,676.583,654,676.583,654.917z
		 M655.167,642.333c-0.25-0.5-0.584-0.916-1.167-0.333c-0.083,0.083,0.25,0.583,0.417,0.917c2.916,4.416,2.916,8.666-1.667,13.5
		c6-1.834,10.833-4,17.417-4C664.5,648.583,659.833,645.417,655.167,642.333z M649.083,639.417c-2.75-2-21.583,0.5-29.916,4.25
		c7.916,1,12.416,6.583,18.25,11.083C634,645.083,638.583,638.917,649.083,639.417z M652.917,640.833
		c-0.084,0.084-0.25,0.167-0.25,0.25c0,0.167,0.166,0.334,0.25,0.5c0.083-0.083,0.25-0.166,0.25-0.25
		C653.167,641.167,653,641,652.917,640.833z"/>
	<path fill="#FFFFFF" d="M560.667,635.583c9,2.084,18.333,2.834,27.083,6c1.083,0.417,2.25,1.084,2.25,2.167
		c0,1.167-1.333,1.75-2.417,2c-6,1.083-10.25,4.917-14.833,8.667c-7.417,6.083-15.417,8.833-24.75,3.25
		c-4.75-2.834-10.25-4.25-15.917-1.917c-0.916,0.333-2.083,0.5-2.5-0.667c-0.333-1,0.75-1.333,1.417-1.75
		c7.5-5.166,15.083-10.333,22.667-15.416C555.667,636.417,558,635.417,560.667,635.583z M551.25,642
		c-4.833,3.25-9.583,6.583-15.25,10.417c6.583,0.083,11.583,1.916,16.75,3.833c-3.917-4.417-3.75-8.917-0.917-13.5
		c0.334-0.167,0.667-0.417,0.417-0.75C552.083,641.75,551.583,642,551.25,642z M569,653.25c0.333,0.75,0.917,0.5,1.25,0.167
		c4.75-4.334,9.667-8.584,17.333-10.25c-25.333-6.167-27.75-6.417-32.916-3.334c13.25,0,17.5,3.917,14.5,13.5
		c-0.167,0.167-0.25,0.334-0.417,0.5c0.167,0,0.333,0,0.5,0C569.167,653.583,569.083,653.417,569,653.25z"/>
	<path fill="#FFFFFF" d="M479.833,627.25c1.417,9.25,3.584,18.167,7.25,26.667c3.667,8.416,7.75,16.666,12,25.666
		C490.667,675.5,476.667,636.417,479.833,627.25z"/>
	<path fill="#FFFFFF" d="M724.583,628.25c4.084,8.167-9.916,47.167-19.25,53C713.333,663.5,723.167,647.417,724.583,628.25z"/>
	<path fill="#FFFFFF" d="M606.833,548.917c6.334,0.166,12.5,1.666,18.5,4c0.917,0.333,2.084,0.666,2.167,1.75
		c0.083,1.166-1.167,1.333-2.083,1.666c-4.167,1.584-7.75,4.25-11.417,6.667c-5.667,3.75-11.5,5-17.917,1.583
		c-3.666-2-7.75-2.833-12-2.666c-0.916,0-2.083,0.166-2.5-0.917c-0.5-1.167,0.334-1.917,1.167-2.333
		C590.167,554.25,597.083,548.083,606.833,548.917z M585.833,559.667c4.417,0.083,8.417,1.666,13.5,3.5
		c-2.5-3.917-2.75-7.167-1.833-10.834C593,554.25,589.417,556.833,585.833,559.667z M610.917,551.083
		c2.5,3.417,2.75,6.167,2.416,9.417c3.584-2.167,6.584-4.083,9.917-6.167C619.417,553.333,615.833,552.417,610.917,551.083z"/>
	<path fill="#FFFFFF" d="M601.917,444.917c-2.25,0.083-4.417-0.5-6.5-1.334c-4.084-1.666-8.167-2.666-12.584-1.833
		c-0.666,0.167-1.416,0.417-1.916-0.25c-0.334-0.5-0.334-1.083,0.25-1.417c7.916-5.25,14.666-13.166,25.666-11.916
		c6.167,0.666,11.917,2.583,17.084,6.083c1.416,0.917,2.75,2.667,0.25,3.167c-6.917,1.5-13.25,4.583-19.75,7.166
		C603.667,444.917,602.75,444.833,601.917,444.917z M593.833,433.75c-1.75,2.5-5,3.167-7.25,5.667c3,0.5,5.75,1,9,1.583
		C594.083,438.333,594.667,435.917,593.833,433.75c0,0.083,0.084,0.083,0.167,0.167C594,433.833,593.917,433.833,593.833,433.75z
		 M609.917,431.75c0-0.167,0-0.333-0.084-0.5c-0.083,0-0.25,0.083-0.333,0.083c0.167,0.084,0.333,0.25,0.5,0.334
		c0.75,2.333,1.25,4.75,0.75,7.333c3.5-1.083,6.75-2.167,10.833-3.417C617.417,433.583,614.167,431.333,609.917,431.75z"/>
	<path fill="#FFFFFF" d="M626.75,423.75c-0.417,1.833-1.917,2.583-3.417,1.917c-12.416-5.834-23.833-1.167-35.333,3.166
		c-2.333,0.917-4.667,1.834-7,2.667c-1.417,0.5-3.083,1.25-4.083-0.5c-0.917-1.583-0.584-3.333,0.833-4.583
		c1.333-1.167,2.917-2.167,4.5-2.917c5.917-2.667,11.917-5.25,17.833-7.917c3.084-1.416,6-1.5,9.167-0.083
		c4.833,2.083,9.833,3.833,14.667,5.75C625.25,421.75,626.583,422,626.75,423.75z"/>
	<path fill="#FFFFFF" d="M609.167,352.5c-3.417,3.75-7.75,4.083-12.084,2.75c-2.666-0.833-4.916-3.083-7.916-3.417
		c-2.667-0.25-5.417-0.083-8.167-0.083c0-0.667-0.167-1.083-0.083-1.167c11.5-7.416,23.416-10.333,36.166-3.083
		c0.584,0.333,1.25,0.833,1.417,1.333c0.167,1.084-0.833,1.25-1.583,1.5c-1.334,0.334-2.667,0.584-4.084,0.834
		c-0.25-0.25-0.416-0.5-0.666-0.75c1.083-0.5,2.166-1,3.833-1.834c-3.5-1.25-6.5-2.25-9.417-3.25c0,2.167,0.084,3.917,0,5.667
		c-0.083,2.333,1.334,0.917,2.167,0.917C608.917,352.167,609.083,352.333,609.167,352.5z M593.25,346.417
		c-2.667,1.166-4.833,2.083-7.917,3.416c3.334,0.75,5.667,1.334,8.167,1.917C593.5,350,593.417,348.5,593.25,346.417z"/>
	<path fill="#FFFFFF" d="M610.833,351.667c-0.166,1-1,0.75-1.666,0.833c-0.167-0.167-0.25-0.417-0.417-0.583
		C609.5,351.833,610,350.583,610.833,351.667L610.833,351.667z"/>
	<path fill="#FFFFFF" d="M612.833,351.25c-0.583,0.667-1.333,0.417-2,0.417v0.083c-0.5-1.417,0.75-0.917,1.334-1.25
		C612.417,350.75,612.667,351,612.833,351.25z"/>
	<path fill="#FFFFFF" d="M630.667,580.083c-2.75,8.25-8.334,11.25-16.834,9c-1.083-0.25-1.5,0.167-2.083,0.667
		c-4,2.833-8.333,4.583-13.333,3.917c-1.167-0.167-1.084,0.666-1.167,1.166c-0.333,1.917-1.917,2.834-2.833,4.334
		c-2.834,2.666-5.667,5.25-8.417,7.75c-0.5-1.5,1.167-2.834,1.667-4.417c1.333-1.167,2.75-2.25,3.833-3.583
		c1.667-2,4.667-3.167,4.25-6.5c0.667-0.917,1.5-1.584,2.667-1.584c4.166,2,11.25-0.75,13-5c0.75-0.75,1.749-0.916,2.833-0.916
		c0.417,1.25,0.417,3,2.417,2.666c4.833-0.666,9.666-1.333,11.75-6.75C629.083,580.583,629.833,580.333,630.667,580.083z"/>
	<path fill="#FFFFFF" d="M623.083,243c-7.25,0.083-11.833,4.583-17,8.25c-3.25,2.333-6.833,1.083-9.666-1.083
		c-3.917-2.917-7.917-4.333-12.75-3.333c-0.75,0.167-1.667,0.417-2.084-0.667c-0.25-0.667,0.25-1,0.75-1.25
		c11.5-6.917,23.25-11.833,36.667-5.167c1,0.5,2,0.917,2.917,1.5C622.167,241.417,622.333,241.917,623.083,243z M607,238.333
		c1.25,2.917,2.333,5.333,1.583,8.833c3.167-2.5,6-4.083,9.584-5.333C614.75,239.333,611.25,239.083,607,238.333z M594.583,246.583
		c0.084-2,0.167-3.833,0.334-6c-2.834,1.417-5.25,2.667-8.25,4.167C589.583,245.5,591.833,246,594.583,246.583z"/>
	<path fill="#FFFFFF" d="M620.833,262.583c-0.25-0.167-0.583-0.25-0.833-0.417C620.417,262,620.667,262.083,620.833,262.583z"/>
	<path fill="#FFFFFF" d="M464.167,687.5c0.333,0,0.583,0,0.916-0.083c0,0.333,0,0.583-0.083,0.916
		C464.333,688.417,464.083,688.083,464.167,687.5z"/>
	<path fill="#FFFFFF" d="M424.167,675c0.333,0,0.583,0,0.916-0.083c0,0.333,0,0.583-0.083,0.916
		C424.333,675.917,424.083,675.667,424.167,675z"/>
</g>
</svg>
