<?xml version="1.0" encoding="UTF-8"?>
<svg width="884px" height="296px" viewBox="0 0 884 296" version="1.1" xmlns="http://www.w3.org/2000/svg" xmlns:xlink="http://www.w3.org/1999/xlink">
    <!-- Generator: Sketch 46.1 (44463) - http://www.bohemiancoding.com/sketch -->
    <title>vatjss_logo_text side</title>
    <desc>Created with Sketch.</desc>
    <defs></defs>
    <g id="Page-1" stroke="none" stroke-width="1" fill="none" fill-rule="evenodd">
        <g id="vatjss_logo_text-side" transform="translate(1.000000, 1.000000)">
            <ellipse id="Oval" stroke="#FFFFFF" fill="#FFFFFF" fill-rule="nonzero" cx="145.5" cy="144" rx="144.5" ry="144"></ellipse>
            <g id="VATJSS_logo" transform="translate(0.000000, 1.000000)" fill-rule="nonzero">
                <path d="M293,146.696302 C292.705331,228.263313 226.79762,293.196023 146.287407,292.999555 C64.5002921,292.803087 -0.196000047,226.560589 0.000446184092,146.237876 C0.196892415,64.8345883 66.0718618,-0.0981227426 146.614817,0.000111313291 C228.238226,0.131090055 293,66.2098648 293,146.696302 Z M146.549335,283.896533 C221.657277,284.289469 284.716517,222.402014 283.930732,144.993578 C283.177688,70.1064824 221.624536,8.251772 144.945024,9.03764444 C70.0007866,9.79077224 8.2511879,71.4162701 9.03697282,148.038833 C9.82275775,223.35161 71.6378384,284.256724 146.549335,283.896533 Z M151.525973,292.115449 C157.812252,291.951725 163.869344,291.395066 169.893695,290.347236 C205.155794,284.289469 234.524505,267.720658 257.737901,240.509825 C275.156134,220.077141 285.862454,196.468223 290.315235,170.010517 C291.526653,162.839431 292.083251,155.635601 292.181474,148.36628 C292.214215,147.351195 291.985028,146.892769 290.839092,146.958259 C289.333004,147.056493 287.794175,147.056493 286.255346,146.958259 C285.011187,146.860025 284.618294,147.220216 284.618294,148.562749 C284.520071,159.073792 283.21043,169.421113 280.689369,179.637455 C274.108421,206.127905 260.881041,228.754483 240.941749,247.353464 C215.109069,271.420808 184.365234,283.732809 149.037654,284.682405 C146.909486,284.747895 146.909486,284.71515 146.909486,286.876299 C146.909486,287.040022 146.909486,287.203746 146.909486,287.367469 C147.04045,288.939214 146.221924,290.93664 147.236896,291.918981 C148.186386,292.868576 150.150849,291.98447 151.525973,292.115449 Z M292.05051,141.522641 C291.886805,133.434704 290.937315,125.445001 289.333004,117.553532 C285.600525,99.4457207 278.790389,82.5494628 268.640667,67.061227 C260.684595,54.9129484 251.156953,44.1072025 239.992259,34.7749671 C231.053955,27.2764342 221.362608,20.9239652 210.918216,15.7830496 C203.747929,12.2138789 196.282972,9.26685725 188.588828,7.00747396 C176.409162,3.40555859 164.033049,1.24440936 151.329526,0.949707186 C146.942227,0.851473131 146.942227,0.916962503 146.942227,5.37023969 C146.942227,8.12079328 146.942227,8.12079328 149.626992,8.251772 C150.281813,8.2845167 150.903893,8.48098481 151.558713,8.48098481 C158.008698,8.54647419 164.36046,9.36509132 170.67948,10.4456659 C186.362438,13.1307301 201.063164,18.5008585 214.879882,26.359583 C228.36919,34.0218393 240.123223,43.8452449 250.371168,55.4368636 C257.574196,63.5575456 263.664029,72.3986104 268.73889,81.9928034 C278.921353,101.246678 284.028956,121.843085 284.716517,143.552812 C284.781999,146.074152 284.81474,146.074152 287.237577,146.074152 C287.499506,146.074152 287.794175,146.074152 288.056103,146.074152 C292.017769,146.074152 292.017769,146.074152 291.985028,142.046556 C292.05051,141.850088 292.05051,141.686365 292.05051,141.522641 Z M0.786231108,152.131919 C1.08090046,158.124197 1.67023915,164.116474 2.68521134,170.010517 C8.31666998,202.951671 23.2793246,230.882888 47.8023623,253.574954 C68.5929221,272.828829 93.1159598,284.846129 120.978584,289.9543 C128.705469,291.362321 136.530577,291.98447 144.388426,292.213683 C145.796291,292.246428 146.189183,291.853491 146.058219,290.510959 C145.927255,289.037449 145.927255,287.563938 146.058219,286.090427 C146.189183,284.780639 145.665327,284.616916 144.51939,284.616916 C136.759764,284.551426 129.06562,283.863788 121.436958,282.390277 C88.1720627,276.070553 60.7678137,259.69821 39.2896924,233.600696 C23.8686633,214.870736 14.275539,193.357478 10.2156502,169.453858 C9.03697282,162.446495 8.38215206,155.406388 8.38215206,148.300791 C8.38215206,147.154727 8.05474166,146.794536 6.94154634,146.860025 C5.43545858,146.958259 3.89662977,146.958259 2.35780096,146.860025 C1.17912357,146.794536 0.655266956,147.056493 0.786231108,148.36628 C0.884454225,149.643323 0.786231108,150.887621 0.786231108,152.131919 Z" id="Shape" stroke="#000000" fill="#FFFFFF"></path>
                <path d="M151.700966,291.883618 C150.356784,291.752823 148.356903,292.668391 147.438925,291.720124 C146.422592,290.739158 147.242215,288.711827 147.111076,287.174981 C147.111076,287.011486 147.111076,286.847992 147.111076,286.684497 C147.111076,284.493673 147.111076,284.526372 149.242096,284.493673 C184.584251,283.545405 215.402085,271.250629 241.269395,247.184258 C261.235417,228.611299 274.480528,206.016377 281.070299,179.562989 C283.594739,169.393639 284.906136,159.028097 285.004491,148.531758 C285.004491,147.223803 285.39791,146.864116 286.643737,146.929514 C288.151844,147.02761 289.692736,147.02761 291.233628,146.929514 C292.3811,146.864116 292.57781,147.3219 292.57781,148.335565 C292.44667,155.594715 291.889326,162.788467 290.709069,169.94952 C286.283103,196.37021 275.529646,219.978796 258.088063,240.350194 C234.810763,267.522958 205.402681,284.068587 170.093312,290.117879 C164.060884,291.164243 157.962887,291.720124 151.700966,291.883618 Z" id="Shape" fill="#FBEE03"></path>
                <path d="M292.150384,141.556304 C292.150384,141.720127 292.150384,141.883949 292.150384,142.047772 C292.183166,146.07781 292.183166,146.07781 288.216437,146.07781 C287.954174,146.07781 287.659128,146.07781 287.396865,146.07781 C284.938148,146.07781 284.938148,146.07781 284.872582,143.55494 C284.184142,121.832053 279.070011,101.223161 268.874533,81.9576142 C263.793185,72.3903701 257.662785,63.5111807 250.483333,55.3855759 C240.189506,43.7869307 228.420449,33.95757 214.946683,26.2906687 C201.112304,18.4271803 186.392787,13.0537965 170.689784,10.3671046 C164.329904,9.28587493 157.970023,8.46676156 151.544577,8.40123249 C150.88892,8.40123249 150.266045,8.20464523 149.610387,8.1718807 C146.92219,8.00805802 146.92219,8.04082256 146.92219,5.28860162 C146.92219,0.832624813 146.92219,0.767095743 151.315097,0.865389348 C164.034858,1.16027016 176.426789,3.3227295 188.622024,6.92682837 C196.326002,9.22034586 203.767718,12.169154 210.979953,15.7077238 C221.437694,20.8845204 231.141429,27.2408402 240.091158,34.7111543 C251.270122,44.0490467 260.809943,54.8285791 268.776184,67.0169861 C278.93888,82.5146114 285.790503,99.4211117 289.494969,117.539899 C291.035765,125.468917 291.986469,133.463464 292.150384,141.556304 Z" id="Shape" fill="#9E1C1F"></path>
                <path d="M146.494764,141.978494 C146.494764,142.142317 146.494764,142.306139 146.494764,142.469962 C146.527547,146.5 146.527547,146.5 142.560817,146.5 C142.298554,146.5 142.003508,146.5 141.741245,146.5 C139.282528,146.5 139.282528,146.5 139.216963,143.977131 C138.528522,122.254244 133.414392,101.645351 123.218914,82.3798044 C118.137566,72.8125603 112.007166,63.9333709 104.827713,55.8077662 C94.5338865,44.2091209 82.7648296,34.3797602 69.2910629,26.7128589 C55.4566842,18.8493705 40.7371675,13.4759867 25.0341642,10.7892948 C18.674284,9.70806513 12.3144037,8.88895176 5.88895773,8.82342269 C5.23329994,8.82342269 4.61042508,8.62683544 3.95476731,8.5940709 C1.26657051,8.43024822 1.26657051,8.46301276 1.26657051,5.71079182 C1.26657051,1.25481501 1.26657051,1.18928594 5.65947751,1.28757955 C18.379238,1.58246036 30.7711696,3.7449197 42.9664041,7.34901857 C50.6703827,9.64253606 58.112098,12.5913442 65.3243335,16.129914 C75.7820748,21.3067106 85.4858096,27.6630304 94.4355381,35.1333445 C105.614503,44.4712369 115.154323,55.2507694 123.120565,67.4391763 C133.28326,82.9368016 140.134884,99.8433019 143.83935,117.96209 C145.380146,125.891107 146.330849,133.885654 146.494764,141.978494 Z" id="Shape" fill="#000000" transform="translate(73.883285, 73.883285) scale(-1, 1) translate(-73.883285, -73.883285) "></path>
                <path d="M42.2190202,146.233716 C48.2386908,120.986317 54.2256459,95.7716654 60.2453166,70.5570134 C61.5866562,64.9901421 62.8952804,59.4232713 64.2693355,53.8564001 C64.498345,52.8740108 64.6946385,52.1208458 63.4187299,51.5314126 C62.0773903,50.9419789 61.6520873,49.2064251 62.1755373,47.8310805 C62.7317023,46.4229897 63.811317,45.7025711 65.3489506,45.735317 C77.7481634,45.8663023 90.1473763,45.1786301 102.579305,44.9821525 C111.903252,44.8184208 121.194482,44.5237041 130.518429,44.2944798 C131.041878,44.2944798 131.598044,44.3927188 132.21964,43.9670168 C130.322135,41.9039999 129.209804,39.4807736 129.111658,36.6645917 C128.915364,31.0977205 131.728906,27.0699255 137.257843,25.7600734 C144.389844,24.0572657 151.652707,24.0572657 158.817424,25.7928197 C168.108655,28.0195682 168.501242,38.5638772 164.379076,43.2465982 C164.182783,43.4758226 163.986489,43.7377929 163.888342,44.4582115 C167.192618,44.4582115 170.496894,44.3927188 173.768454,44.4582115 C189.439227,44.8184208 205.142716,45.2441227 220.813489,45.6370784 C223.005434,45.7025711 225.164664,45.7025711 227.356609,45.735317 C229.057821,45.7680633 230.333729,46.3902433 230.889894,48.0603045 C231.380628,49.632127 230.824463,50.8764866 228.992389,51.9243682 C228.043637,52.4483088 228.567086,53.0704888 228.697949,53.5944294 C230.92261,62.992618 233.179986,72.3580603 235.404647,81.7235022 C240.540997,103.237822 245.64463,124.752142 250.78098,146.299208 C250.453824,146.069984 250.126668,145.84076 249.799512,145.611536 C249.734081,145.185834 249.668649,144.760132 249.570503,144.33443 C245.05575,125.374322 240.508281,106.414214 235.993528,87.4541051 C233.408995,76.5823329 230.857179,65.7433071 228.272646,54.8715353 C228.370793,54.511326 228.174499,54.085624 227.912774,54.1511167 C227.585618,54.2493553 227.651049,54.6423109 228.010921,54.838789 C227.978205,57.5567321 227.94549,60.2746749 227.94549,63.0253643 C227.94549,90.8597205 227.94549,118.726823 227.978205,146.561179 C227.716481,146.561179 227.454756,146.561179 227.193031,146.528432 C227.193031,134.248569 227.193031,121.968707 227.225747,109.72159 C227.225747,92.3333041 227.258462,74.9122717 227.258462,57.5239858 C227.454756,57.0655375 227.454756,56.6398355 227.193031,55.9849096 C227.029453,56.6070891 226.898591,57.0327911 226.767728,57.4584931 C223.659746,69.6401171 220.519049,81.8217412 217.411066,93.9706189 C212.798166,111.948339 208.152551,129.893311 203.539651,147.871031 C203.245211,148.002016 202.918055,148.133001 202.623614,148.263987 C208.185267,126.684174 213.746919,105.104361 219.308571,83.5245487 C221.827672,73.7006585 224.37949,63.9095142 226.931306,54.085624 C227.225747,53.0049961 227.291178,52.2845775 226.01527,51.5969053 C224.248627,50.6800086 224.215911,48.9117084 224.96837,47.0779156 C224.608499,47.0779156 224.37949,47.0451693 224.346774,47.1106619 C222.80914,49.1081861 220.715342,49.1081861 218.457965,48.9772011 C203.670514,48.2240362 188.850346,47.6673488 174.062894,47.3398859 C171.282068,47.2743932 168.501242,47.3071395 165.720416,47.2089009 C164.902526,47.1761546 164.706232,47.5036176 164.57537,48.1912898 C164.150067,50.2215603 164.57537,52.2190848 164.673517,54.2166094 C165.262397,68.3957575 165.164251,82.5749061 164.608086,96.7213084 C163.528471,124.195455 163.561186,151.702348 163.593902,179.176495 C163.593902,187.068354 163.430324,194.992958 163.332177,202.884817 C163.332177,204.227415 163.397608,205.60276 163.528471,206.945358 C163.921058,211.0059 168.174086,213.429126 171.576508,211.202378 C174.324619,209.401331 177.040014,209.2376 180.11528,209.597809 C184.957189,210.154496 189.799099,209.2376 194.608292,208.942883 C201.642146,208.549927 208.643285,208.648166 215.644424,209.434077 C217.345635,209.630555 218.915984,210.121749 220.453617,210.907661 C225.851692,213.723843 230.824463,217.129458 235.339216,221.19 C237.105858,222.761822 237.989179,224.759346 238.120042,227.11708 C238.250904,229.638545 237.073143,230.620934 234.619473,230.162486 C230.759032,229.442067 227.029453,228.197708 223.234443,227.280811 C222.678278,227.149826 222.122113,227.018841 221.500517,226.855109 C221.533232,227.706513 222.154828,227.575528 222.547416,227.673767 C226.931306,229.016365 231.282481,230.358964 235.666372,231.636069 C237.138574,232.061771 237.989179,233.011414 238.447198,234.354013 C240.082978,239.036733 236.516978,243.22826 231.675068,242.311364 C227.552903,241.525453 223.496168,240.477571 219.308571,240.051869 C216.78947,239.789898 214.368515,240.281093 212.372864,241.885662 C205.11,247.74725 197.323687,247.583518 189.177502,244.210649 C186.462107,243.097275 184.073868,241.394467 181.652914,239.69166 C181.260326,240.346586 181.423904,240.968765 181.423904,241.525453 C181.45662,244.046918 180.671446,245.094799 178.217776,245.684233 C175.960399,246.24092 173.670307,246.077188 171.380215,246.077188 C164.019205,246.044442 156.658194,246.011696 149.297184,245.946203 C139.875091,245.847964 130.452998,245.61874 121.030904,246.24092 C119.460555,246.339159 117.857491,246.175427 116.352573,245.684233 C113.964334,244.898322 112.917435,243.457484 112.852004,240.968765 C112.852004,240.608556 112.852004,240.248347 112.852004,239.69166 C106.734186,245.847964 99.2423137,246.044442 91.5541474,245.585994 C90.2455233,245.520501 88.9696147,245.225785 87.6609905,245.127546 C85.3381828,244.963814 83.375247,244.014171 81.7067513,242.409603 C81.0524393,241.787423 80.3326958,241.165243 79.5802371,240.641302 C78.271613,239.724406 76.8975578,239.396943 75.2617777,239.69166 C70.1254282,240.641302 65.0217946,241.820169 59.7545825,241.852916 C57.6280683,241.852916 56.7774627,241.361721 55.9922886,239.429689 C54.291077,235.270909 55.4688386,232.192757 59.492858,230.260725 C63.647739,228.2632 68.1297764,227.706513 72.6118139,227.018841 C75.2290622,226.625885 77.8463104,226.331169 80.3654117,225.512511 C77.0938514,225.086809 73.9858691,226.003706 70.8451717,226.527646 C66.9847303,227.182572 63.1570049,228.132215 59.231133,228.361439 C56.5157382,228.525171 55.3706921,226.986095 56.2212977,224.333644 C56.9083252,222.139642 58.3150959,220.305849 60.0817386,218.963251 C67.0174463,213.691096 74.5747501,209.696048 83.3098156,208.549927 C87.9881466,207.960494 92.6664776,208.811898 97.312093,209.041121 C103.070039,209.368585 108.8607,209.401331 114.618646,209.204853 C118.413656,209.073868 122.045088,209.49957 125.15307,212.283006 C126.886997,213.854828 130.420282,212.315752 131.074594,209.892525 C131.663475,207.73127 131.794337,205.471775 131.794337,203.245026 C131.794337,200.232367 131.827053,197.252453 131.69619,194.239793 C131.467181,188.902146 131.9252,183.564499 132.056062,178.226852 C132.252356,169.942038 132.154209,161.657224 131.9252,153.37241 C131.565328,140.503113 131.434466,127.633817 131.499897,114.76452 C131.565328,104.285704 131.041878,93.8068876 131.303603,83.3608174 C131.565328,73.8643902 131.598044,64.3679625 131.467181,54.9042817 C131.434466,52.7757718 131.238172,50.6472623 131.205456,48.5187528 C131.205456,47.4053786 130.780154,47.0451693 129.635107,47.0779156 C123.550005,47.2416469 117.432188,47.2743932 111.347086,47.4381249 C102.644736,47.7000952 93.9423862,47.9948118 85.2400362,48.3222748 C81.1178703,48.4532601 76.9629889,48.6824845 72.8408234,48.8462158 C71.3359057,48.9117084 69.9291346,48.6169918 68.7840885,47.5363639 C68.7186575,47.3726322 68.6205105,47.2416469 68.4569325,47.3726322 C68.3915014,47.4053786 68.4569325,47.6346025 68.489648,47.7655879 C68.84952,49.9268437 68.5223639,50.909233 66.7230058,51.8261292 C65.5779597,52.4155625 66.0686937,53.2342201 66.2649872,53.889146 C67.5408958,59.0303157 68.8822355,64.1387386 70.1908596,69.2471615 C76.9957044,95.5751878 83.7678341,121.870468 90.5726793,148.198494 C90.2782388,148.067509 89.9510827,147.936523 89.6566422,147.772792 C84.3567151,127.240861 79.0567876,106.676184 73.7895755,86.1442528 C71.3359057,76.5495866 68.8822355,66.9549203 66.4285653,57.3930004 C66.4939963,56.8690594 66.2649872,56.5088501 65.9051157,56.0504022 C65.8396846,56.6398355 65.7742532,57.0655375 65.9705467,57.4584931 C65.9705467,58.113419 66.0032627,58.768345 66.0032627,59.4232713 C66.0032627,88.436494 66.0032627,117.449717 66.0359782,146.46294 C65.7742532,146.46294 65.5125286,146.46294 65.2508036,146.495686 C65.2508036,118.988793 65.2835191,91.4491538 65.2835191,63.9422606 C65.2835191,60.8968549 65.2508036,57.8514488 65.2508036,54.7732963 C65.5452441,54.5440724 65.6433907,54.183863 65.3162347,54.085624 C65.0545101,54.0201314 64.8582166,54.413087 64.9563631,54.7732963 C64.9236476,55.0025202 64.9236476,55.1989983 64.8582166,55.4282222 C60.5397571,73.5041805 56.2212977,91.5473928 51.9355537,109.623351 C49.0892964,121.608497 46.2757546,133.560897 43.4294973,145.546044 C42.8733322,145.775267 42.5461762,146.004492 42.2190202,146.233716 Z M94.1059642,240.477571 L94.1386797,240.510317 C94.1713952,240.248347 94.1713952,239.986376 93.7788082,240.150108 L93.8115237,240.182854 C93.8115237,239.495182 93.5170832,239.003987 92.7973401,238.840256 L92.8300556,238.840256 C93.0263495,238.611032 92.8627715,238.4473 92.731909,238.283569 C88.9368991,232.749444 87.89,226.396662 87.4974125,219.880147 C87.562844,218.43931 87.562844,218.43931 86.8758164,218.766773 C85.8289168,219.519938 84.8147332,220.371342 83.7024031,221.059014 C82.0666229,222.041403 81.7721824,223.449494 82.1974854,225.119556 C82.7536505,227.313558 83.375247,229.50756 83.9641276,231.734308 C83.8986966,231.963532 83.9314121,232.16001 84.1604212,232.290996 C84.8474487,234.583236 85.5017608,236.875478 86.8103849,238.905749 C87.9881466,240.739541 89.4930642,241.983901 91.7831564,242.147632 C92.9282026,242.213125 94.0405331,242.507842 95.1528633,242.704319 C95.4800193,242.900797 95.9053224,242.900797 96.0361849,242.671573 C96.2651939,242.34411 95.8071754,242.016647 95.6108818,241.951154 C94.9892853,241.787423 94.9238543,241.132497 94.4658357,240.870526 C94.4658357,240.608556 94.4331202,240.412078 94.1059642,240.477571 Z M199.777357,240.805034 C199.417485,240.641302 199.38477,240.968765 199.253907,241.165243 C198.730458,241.852916 198.108861,242.475095 197.683559,243.22826 C197.356403,243.784947 197.650843,243.883186 198.108861,243.49023 C199.123045,243.293753 200.104513,242.96629 201.118697,242.868051 C204.521119,242.540588 206.713065,240.608556 208.185267,237.628643 C209.035872,235.860342 209.592037,234.02655 210.115487,232.127264 C210.835231,230.260725 211.325965,228.295947 211.751267,226.331169 C212.47101,222.827314 210.966093,220.273103 207.694533,219.126982 C207.694533,219.126982 207.727248,219.159729 207.727248,219.159729 C207.759964,219.126982 207.792679,219.06149 207.792679,219.028743 C207.759964,218.963251 207.694533,218.865012 207.661817,218.799519 C207.334661,218.472056 207.007505,218.111847 206.516771,218.275578 C206.353193,218.341071 206.385909,218.635788 206.582202,218.766773 C206.713065,221.026268 206.255046,223.187524 205.895175,225.381526 C205.011853,230.719173 202.983486,235.565626 200.071797,240.084615 L200.104513,240.084615 C199.810073,240.2156 199.515632,240.346586 199.777357,240.739541 L199.777357,240.805034 Z M158.882855,121.346527 L158.85014,121.31378 C158.490268,121.804975 158.981002,121.903214 159.210011,122.165184 C160.027901,123.049335 159.831608,122.034199 159.831608,121.772229 C159.929754,119.741958 159.995186,117.711687 160.060617,115.681417 C160.093332,114.011355 160.126048,112.308548 160.126048,110.638486 C160.158764,109.656097 160.158764,108.706454 160.191479,107.724065 C160.191479,107.134632 160.25691,106.512452 160.191479,105.923019 C160.126048,105.333586 160.420488,104.482182 159.504452,104.31845 C158.751993,104.187465 158.522984,103.663524 158.359406,103.106837 C157.901387,101.666 156.789057,100.880089 155.513148,100.388894 C153.255772,99.5047438 150.834817,99.5374901 148.446578,99.4392511 C148.904597,99.7994604 149.395331,99.9959384 149.853349,100.225162 C151.750854,101.240298 153.681075,102.28818 155.578579,103.336061 C156.069313,103.598031 156.560047,103.958241 156.265607,104.613167 C155.938451,105.333586 155.316855,105.2026 154.727974,104.907884 C154.433534,104.776898 154.139093,104.613167 153.844653,104.482182 C150.998395,103.074091 148.119422,102.255433 144.913293,103.303315 C143.473807,103.794509 141.968889,104.023733 140.496687,104.416689 C140.071384,104.547674 139.613366,104.711406 139.318925,104.252957 C139.024485,103.761763 139.449788,103.4343 139.776944,103.172329 C140.823843,102.28818 142.067036,101.698746 143.277513,101.076566 C144.357128,100.519879 145.53489,100.192416 146.614505,99.3082662 C140.92199,98.8170715 137.454136,101.076566 135.360338,107.59308 C134.804172,108.804693 135.065897,110.049053 135.033182,111.326158 C134.935035,112.406786 135.131329,113.487414 135.262191,114.535296 C135.654778,117.285985 137.12698,118.923301 139.875091,119.447241 C141.510871,119.774705 143.146651,120.134914 144.847862,119.971182 L144.815147,119.938436 C145.371312,120.298645 145.992908,120.102168 146.549073,120.134914 C150.573092,120.16766 154.597112,120.003929 158.555699,120.986317 L158.522984,120.953571 C158.359406,121.412019 158.457552,121.510258 158.882855,121.346527 Z M230.857179,225.774482 C231.642353,225.086809 232.55839,224.857585 233.67072,224.98857 C232.85283,224.399137 232.198518,223.776957 231.838646,222.827314 C231.446059,223.875196 230.759032,224.693854 230.857179,225.774482 C230.726316,225.676242 230.628169,225.741735 230.595454,225.905467 C230.595454,225.938213 230.628169,226.003706 230.660885,226.036452 C230.726316,225.938213 230.791747,225.872721 230.857179,225.774482 Z M138.043017,62.141214 C140.267678,61.0605861 142.688632,60.5038992 144.946009,59.5215099 C142.230614,59.3250323 139.842375,60.2419285 137.683145,61.8137511 C137.519567,62.0102291 136.996118,62.1084677 137.323274,62.4359307 C137.617714,62.7306477 137.846723,62.3704384 138.043017,62.141214 Z M149.395331,73.8643902 C149.460762,73.7661512 149.558909,73.6679121 149.62434,73.5696731 C149.787918,73.5369268 149.951496,73.5369268 150.115074,73.5041805 C150.082358,73.9298824 150.115074,74.3883308 150.016927,74.8140327 C149.853349,75.6326904 150.245936,75.7964216 150.998395,75.8619143 C153.779221,76.025646 154.171809,75.698183 154.269956,72.9147472 C154.400818,72.8820009 154.53168,72.8820009 154.662543,72.8492545 C155.251423,74.0936141 156.134745,75.174242 156.461901,76.7788109 C157.606947,75.4362123 157.934103,73.9298824 158.555699,72.6200306 C158.751993,72.5872842 158.948287,72.5545379 159.177296,72.5217916 C159.046433,73.7988975 158.392121,74.8795254 157.901387,75.9928997 C156.756341,78.5798575 156.723625,78.5471111 158.882855,80.3481576 C159.242727,80.6428743 159.471736,81.0358299 159.766177,81.3960392 C159.929754,81.3960392 160.093332,81.3632929 160.25691,81.3632929 C160.25691,78.0886628 160.25691,74.7812864 160.25691,71.5066563 C160.78036,70.2295504 160.649498,68.8869522 160.48592,67.544354 C160.387773,66.9549203 160.322342,66.3654871 160.191479,65.7760534 C159.177296,60.6348842 157.312506,59.0630616 152.176157,58.9975693 C151.685423,58.9975693 151.194689,58.9320767 150.73667,58.8993303 C150.049643,58.7028523 149.395331,58.7355986 148.283,59.0303157 C149.395331,59.2267933 150.049643,59.3250323 150.703955,59.4560172 C152.863184,60.1436899 155.05513,60.8313622 157.214359,61.5190345 C157.606947,61.6500194 158.163112,61.7810047 157.901387,62.3704384 C157.705093,62.894379 157.345222,62.992618 156.723625,62.8616326 C150.900248,61.4535418 145.142303,61.2243178 139.482503,63.5820513 C138.76276,63.8767679 137.814008,64.0077532 137.519567,63.1236034 C137.12698,61.9774828 136.799824,62.7306477 136.472668,63.0253643 C135.229475,64.2369776 135.131329,65.8087997 135.098613,67.4133686 C135.065897,68.0028019 135.098613,68.5922356 135.033182,69.1816688 C134.804172,70.6879987 135.687494,72.0960896 135.393053,73.6024195 C135.589347,73.9298824 135.556631,74.3883308 135.981934,74.5848088 L135.981934,74.5848088 C136.505384,76.3858553 137.552283,77.5647222 139.449788,77.8921852 C141.020137,78.1541555 142.623201,78.4488721 144.19355,78.7435887 C144.487991,78.6453501 144.782431,78.5798575 145.109587,78.4816184 C146.189202,79.1365444 147.399679,78.7763351 148.544725,78.8418277 C149.493478,78.8745741 149.068175,77.9576774 149.133606,77.4664832 C149.199037,76.7460646 148.675587,76.9425422 148.250284,76.9425422 C147.072523,76.9752885 146.221917,77.9249315 145.142303,78.2196481 C145.240449,77.7939462 145.371312,77.3354979 145.469459,76.9097959 C146.189202,76.6805719 146.876229,76.2876163 147.595973,76.2548699 C149.199037,76.1893773 149.591625,75.3052274 149.428047,73.9298824 L149.395331,73.8643902 Z M60.4088946,224.792093 C61.6520873,224.628361 62.8625648,224.46463 63.974895,225.447019 C63.3532989,223.907942 63.4187299,222.205135 62.4372618,220.764298 C62.6008399,222.565344 61.5539407,223.711465 60.4088946,224.824839 C60.3107476,224.857585 60.2126011,224.857585 60.1471696,224.890332 C60.1798856,224.923078 60.2126011,224.955824 60.2453166,225.021317 C60.3107476,224.923078 60.3434636,224.857585 60.4088946,224.792093 Z M79.0567876,236.548015 C78.36976,234.157535 77.6827324,231.799801 76.9629889,229.409321 C76.8321264,229.016365 76.8975578,228.361439 76.1450988,228.590664 C75.0654842,229.081858 73.9531536,229.540306 72.8735389,230.064247 C71.7284928,230.588188 71.3031898,231.570577 71.5649148,232.749444 C72.1210799,235.238163 73.364273,237.170194 76.2105303,237.497658 C77.1919984,237.595896 78.1407505,237.857867 79.0895031,238.021598 C79.4820902,238.316315 79.8419617,238.283568 79.7110996,237.759628 C79.6783841,237.30118 79.3185121,236.94097 79.0567876,236.548015 Z M216.429598,235.958581 C216.037011,236.809985 214.990112,237.268433 214.957396,238.414554 C215.15369,238.414554 215.317268,238.4473 215.44813,238.414554 C215.644424,238.349061 215.840718,238.250822 216.037011,238.152584 C217.182057,237.628643 218.359819,237.30118 219.603012,237.268433 C220.846205,237.235687 221.69681,236.646254 222.22026,235.43464 C223.725177,232.029025 223.267159,230.784666 219.864737,229.24559 C219.53758,229.081858 219.177709,228.950873 218.817837,228.819888 C218.294387,228.721649 218.032663,228.918127 218.163525,229.474814 C217.836369,231.668816 217.149341,233.830072 216.429598,235.958581 Z M64.9563631,236.646254 C65.0217946,236.646254 65.1199411,236.679 65.1853726,236.679 C65.1526566,236.646254 65.1526566,236.613507 65.1199411,236.548015 C65.0545101,236.580761 64.9890786,236.646254 64.9236476,236.679 C64.5964916,235.17267 64.2693355,233.633594 63.9421795,232.127264 C63.484161,234.714222 61.2922157,235.467387 59.3619955,236.449776 C61.2922157,236.613507 63.1242894,235.925835 64.9563631,236.646254 Z M219.439434,221.091761 C219.570296,221.615701 219.76659,222.106896 219.53758,222.729075 C219.374002,223.154777 218.915984,223.907942 219.733874,224.333644 C220.944351,224.10442 222.187544,223.875196 223.398021,223.678718 C224.772077,223.48224 225.753545,222.892807 225.884407,221.353731 C225.884407,221.059014 225.917123,220.731551 225.917123,220.436835 C226.407857,218.963251 225.982554,217.817131 224.837508,216.801995 C223.430737,215.590382 221.860388,214.673485 220.06103,214.28053 C219.570296,214.869963 219.668443,215.557636 219.832021,216.245308 C219.930168,217.915369 219.930168,219.519938 219.439434,221.091761 Z M74.7710436,214.968202 C74.6401811,214.509754 75.1636307,213.822081 74.2803096,213.65835 C73.102548,214.247783 71.8920708,214.738978 70.7797402,215.42665 C69.013098,216.507278 67.7044739,217.915369 68.2606389,220.240357 C68.1952079,220.436835 68.1297764,220.633312 68.3587859,220.764298 C68.3915014,222.827314 69.7001256,223.547733 71.4994833,223.776957 C72.6445294,223.907942 73.75686,224.169913 74.8691906,224.399137 C75.8833742,223.711465 75.2944932,222.892807 75.0327686,222.106896 C75.0000527,219.716416 74.9019061,217.325936 74.7710436,214.968202 Z M157.606947,157.301966 L157.639662,157.301966 C157.410653,155.795636 157.116213,154.322052 156.592763,152.881215 C156.232891,151.898826 155.644011,151.047422 154.597112,150.687213 C151.358267,149.573839 145.992908,149.901301 143.441091,153.699873 C142.819495,154.649515 142.001605,155.468173 141.281862,156.352323 C141.085568,157.53119 142.067036,157.007249 142.55777,157.269219 C147.432395,157.629429 152.339735,157.956891 157.214359,158.317101 C157.541515,158.448086 157.868671,158.742803 158.163112,158.41534 C158.32669,158.218862 158.130396,158.055131 157.934103,157.989638 C157.835956,157.727668 157.966818,157.400205 157.606947,157.301966 Z M145.142303,242.769812 C145.142303,242.769812 145.175018,242.802558 145.175018,242.802558 C144.258981,240.281093 143.37566,237.759628 142.426908,235.238163 C142.132467,234.484998 141.576302,233.699087 140.692981,233.699087 C137.094265,233.66634 133.495548,233.764579 130.354851,235.860342 C128.162905,237.333926 127.246869,240.444825 128.13019,242.835305 C128.457346,242.835305 128.817217,242.802558 129.144373,242.802558 C133.724557,242.868051 138.272026,242.933544 142.85221,242.999036 C143.604669,243.359245 144.389844,243.031783 145.142303,243.130021 C145.240449,243.064528 145.338596,242.999036 145.436743,242.900797 C145.371312,242.868051 145.273165,242.802558 145.142303,242.769812 Z M149.068175,243.130021 C149.297184,243.097275 149.526193,243.064528 149.787918,243.064528 C155.022414,242.999036 160.224195,242.900797 165.458691,242.835305 C165.883994,243.031783 166.276581,243.391992 166.669168,242.802558 C166.603737,242.147632 166.538306,241.525453 166.50559,240.870526 C166.178434,237.333926 164.804379,235.663864 161.434672,234.583236 C159.569883,233.993803 157.606947,233.797326 155.676726,233.699087 C152.961331,233.535355 152.241588,233.993803 151.456414,236.646254 C150.900248,238.578286 150.245936,240.477571 149.297184,242.245871 C148.904597,242.442349 149.002744,242.769812 149.068175,243.130021 C149.002744,243.162767 148.937312,243.195514 148.904597,243.261006 C148.970028,243.22826 149.002744,243.195514 149.068175,243.130021 Z M77.8790259,221.320985 C80.9542923,217.751638 85.1418893,215.78686 89.1004772,213.494618 C87.726422,213.461872 86.4505134,213.887574 85.2073207,214.346022 C83.8986966,214.837217 82.7536505,214.968202 81.7394669,213.265395 C82.0339074,215.78686 81.0851548,217.29319 79.4820902,218.603042 C78.696916,219.257968 77.4537229,219.847401 77.8790259,221.320985 C77.8463104,221.288238 77.8135945,221.288238 77.780879,221.288238 C77.8135945,221.288238 77.8463104,221.320985 77.8790259,221.320985 Z M159.798892,162.672359 C159.766177,162.279404 159.471736,162.279404 159.177296,162.246657 C157.966818,162.017433 156.854488,160.773074 155.513148,161.788209 C153.779221,163.098061 152.012579,163.032568 150.14779,162.115672 C147.595973,160.871312 144.847862,160.707581 141.870742,160.969551 C142.754064,162.377642 142.884926,163.851226 143.212082,165.292063 C143.637385,167.09311 144.226266,168.828664 144.946009,170.564218 C145.763899,172.561742 147.203385,173.707863 149.297184,174.035326 C151.325551,174.362789 153.386634,174.722998 155.415001,175.050461 C156.919919,175.279685 158.261259,175.803626 158.882855,177.375448 C159.013718,177.637419 159.046433,177.997628 159.569883,178.030374 C159.308158,176.917 160.191479,175.836372 159.537167,174.722998 C159.635314,170.695203 159.733461,166.667408 159.798892,162.672359 Z M107.552077,212.970678 C107.519361,212.839693 107.45393,212.643215 107.323067,212.7742 C107.192205,212.905185 107.323067,213.003424 107.45393,213.068917 C108.893416,216.638264 110.038462,220.305849 110.954499,224.038928 C111.379802,220.043879 111.54338,216.081576 112.426701,211.759065 C110.823636,213.494618 109.253288,213.723843 107.552077,212.970678 Z M187.836163,212.7742 C185.905942,213.068917 183.943006,213.625604 182.110932,211.922796 C182.928822,216.179815 182.438088,220.20761 183.32141,224.46463 C184.531887,220.273103 185.676933,216.310801 187.803447,212.7742 C187.803447,212.675961 187.803447,212.577722 187.836163,212.51223 C187.803447,212.51223 187.738016,212.51223 187.738016,212.544976 C187.607153,212.643215 187.672585,212.741454 187.836163,212.7742 Z M135.981934,148.100255 C136.603531,151.080168 138.108448,153.667126 139.875091,156.417816 C140.954706,154.289306 142.459623,152.782976 143.212082,150.785452 C144.226266,149.835809 145.207734,148.886166 146.221917,147.936523 C148.544725,147.117866 150.96568,146.888642 153.41935,146.561179 C155.840304,146.266462 156.429185,145.677029 156.98535,143.253802 C157.247075,142.042189 157.770525,141.092547 159.079149,140.863323 C160.027901,140.699591 160.093332,140.110158 160.060617,139.324246 C159.929754,137.326722 159.111865,135.525675 158.359406,133.757375 C157.541515,131.792597 155.709442,130.908447 153.582928,131.203164 C152.241588,131.399641 150.900248,131.694358 149.558909,131.661612 C146.679936,131.596119 143.964541,132.38203 141.281862,133.26618 C136.505384,134.870749 134.935035,137.130244 135.033182,142.271413 C134.738741,144.367177 135.262191,146.233716 135.981934,148.100255 Z M134.836888,210.252735 C136.210943,209.958018 137.584999,209.663301 138.959054,209.368585 C139.711513,209.237599 140.562118,209.696048 141.249146,209.041121 C146.908945,208.713659 152.536028,209.106614 158.163112,209.663301 C158.653846,209.696048 159.111865,209.76154 159.602599,209.728794 C160.093332,209.696048 160.322342,209.466823 159.897039,209.041121 C159.471736,204.784103 159.537167,200.527083 159.537167,196.270064 L159.504452,196.302811 C159.929754,195.975348 159.439021,195.516899 159.733461,195.15669 C159.733461,194.53451 159.733461,193.945077 159.733461,193.322897 C159.766177,190.211998 160.027901,187.1011 159.602599,184.022947 C159.177296,181.010288 157.541515,179.471211 154.498965,179.274734 C151.685423,179.078256 148.839165,179.045509 146.025624,179.56945 C145.731183,179.634943 145.207734,179.372973 145.142303,180.158884 C146.418211,180.060645 147.137954,181.272258 148.315716,181.566975 C150.605808,182.058169 152.863184,182.647603 155.120561,183.237036 C155.840304,183.433514 156.592763,183.662738 157.279791,183.990201 C157.835956,184.252171 157.80324,184.841605 157.639662,185.300053 C157.410653,185.954979 156.919919,185.59477 156.560047,185.398292 C155.774873,184.97259 154.956983,184.743366 154.106378,184.546888 C148.610156,183.302529 143.571953,184.612381 138.795476,187.36307 C138.337457,187.62504 137.781292,188.148981 137.355989,187.690533 C136.897971,187.199339 137.257843,186.577159 137.748577,186.151457 C138.043017,185.889487 138.337457,185.660263 138.599182,185.365546 C140.038669,183.891962 142.001605,182.844081 142.754064,180.617332 C141.150999,180.879302 139.875091,181.730706 138.533751,182.385632 C136.668962,183.302529 135.687494,184.776112 135.523916,186.904622 C135.327622,189.295102 135.262191,191.685582 135.294907,194.076062 C135.262191,194.174301 135.262191,194.239793 135.294907,194.338032 C134.902319,196.204572 134.869604,198.071111 135.098613,199.970396 C135.131329,202.295384 135.164044,204.620371 135.262191,206.912612 C135.294907,208.025986 135.098613,209.041121 134.575163,210.023511 C134.444301,210.089003 134.248007,210.154496 134.411585,210.318227 C134.477016,210.350974 134.706026,210.252735 134.836888,210.252735 Z M125.807382,236.908224 C126.396263,235.303655 127.083291,233.731833 128.71907,232.880429 C131.499897,231.308606 134.67331,231.243114 137.715861,230.751919 C141.510871,230.162486 142.001605,229.638545 142.85221,226.003706 C143.015788,225.283287 143.277513,224.530122 143.604669,223.84245 C144.029972,222.9583 144.782431,222.368866 145.731183,222.237881 C149.722487,221.681194 150.769386,222.368866 151.78357,225.479765 C151.914432,225.905467 152.110726,226.298422 152.208872,226.724124 C152.765038,229.114604 154.368102,230.358964 156.69091,230.620934 C159.700745,231.01389 162.677865,231.505084 165.425975,232.978668 C166.767315,234.02655 167.814214,235.336401 168.501242,236.908224 C168.861114,239.036733 167.716068,240.903273 167.258049,243.097275 C170.038875,242.769812 172.75427,242.999036 175.404234,242.475095 C176.745573,242.213125 178.152345,241.656438 178.70851,240.346586 C179.886271,237.595896 180.049849,234.714222 179.395537,231.799801 C179.788125,230.65368 179.460969,229.50756 179.395537,228.361439 C179.559115,224.628361 178.675794,223.056539 175.698674,221.648447 C169.973444,218.865012 163.822911,217.391429 157.835956,215.459397 C155.742157,214.771724 153.910084,215.393904 152.503313,217.260443 C149.297184,221.550209 145.175018,221.681194 141.674449,217.620652 C140.39854,216.147069 138.959054,215.361158 136.963402,215.655875 C131.565328,216.474532 126.330832,217.817131 121.227198,219.814655 C117.039601,221.45197 114.880371,224.399137 114.913087,228.918127 C114.455068,229.540306 115.240243,230.162486 114.945802,230.784666 C114.29149,233.011414 114.520499,235.303655 114.880371,237.530404 C115.469252,241.067004 117.006885,242.507842 120.507455,243.097275 C122.143235,243.359245 123.746299,243.293753 125.382079,243.162767 C125.872813,243.130021 126.428979,243.097275 126.232685,242.34411 C125.774667,240.510317 126.003676,238.676524 125.807382,236.908224 Z M145.305881,87.7160754 C143.604669,87.3886124 141.838027,87.7488217 140.234962,86.8974178 C139.711513,86.6354475 139.0572,86.3734772 138.991769,85.7185508 C138.926338,84.8998936 139.842375,85.0963712 140.562118,84.5396843 C137.454136,84.6379229 135.818356,83.0988471 135.033182,80.5118893 C135.033182,85.5875659 135.033182,90.6304961 135.033182,95.738919 C136.570815,95.5751878 135.720209,93.2829466 137.388705,93.3484393 C137.323274,93.2502003 137.290558,93.1519612 137.225127,93.0537227 C137.061549,92.7262597 137.159696,92.5952743 137.552283,92.562528 C138.795476,92.464289 139.940522,92.3333041 141.21643,91.8421094 C142.361476,91.3836611 144.062688,90.8597205 145.633037,91.2199298 C146.320064,91.3836611 147.072523,91.3509147 147.857697,91.4164074 C147.595973,91.0889444 147.236101,90.8269742 147.268817,90.5977498 C147.301532,90.1720478 147.759551,90.3030332 148.053991,90.3030332 C149.3299,90.2375405 150.605808,90.1720478 151.881716,90.1393019 C151.096542,89.7790926 150.311368,89.7135999 149.526193,89.6481072 C148.217569,89.5498682 146.908945,89.5826146 145.698468,89.0259276 C145.076871,88.6984643 144.520706,88.4037476 145.305881,87.7160754 C145.338596,87.6178364 145.371312,87.4868514 145.338596,87.4541051 C145.207734,87.3558661 145.175018,87.4213587 145.273165,87.5523441 C145.273165,87.6178364 145.273165,87.683329 145.305881,87.7160754 Z M93.2880741,220.502327 C93.3207896,224.530122 95.7744599,231.406845 98.8170107,235.827596 C102.154002,240.739541 104.051507,241.132497 109.187856,238.087091 C112.034114,236.384283 112.590279,234.583236 110.987214,231.668816 C109.744022,229.409321 108.926132,227.018841 108.108242,224.595615 C107.094058,221.550209 106.276168,218.43931 104.411379,215.754113 C102.873746,213.592857 101.532406,213.167155 99.0787357,214.116798 C97.9664051,214.5425 96.9522215,215.197426 95.9053224,215.754113 C94.0078172,216.769249 93.2880741,218.43931 93.2880741,220.502327 Z M201.02055,221.386477 C201.053266,217.587906 199.777357,216.016084 196.342219,214.869963 C193.495962,213.92032 191.991044,214.378769 190.191686,216.965727 C186.854695,221.746686 185.120767,227.280811 183.354125,232.749444 C182.241795,236.220552 187.574438,240.870526 190.97686,240.084615 C191.729319,239.920884 192.416347,239.593421 192.939796,239.003987 C197.650843,233.764579 200.235375,227.575528 201.02055,221.386477 Z M142.099752,31.6871539 C140.202247,31.588915 137.846723,32.2765873 136.439953,33.2262301 C134.248007,34.7653062 133.299255,37.3850103 134.051713,39.8409829 C134.804172,42.2969556 137.225127,44.0980022 139.842375,44.0325095 C145.436743,43.8687782 151.063826,43.8360319 156.658194,44.0325095 C159.079149,44.0980022 161.336525,42.5261796 162.219846,40.2666849 C163.103168,38.0726827 162.579718,35.6494564 160.813076,33.9466487 C159.046433,32.243841 156.821772,31.7853928 154.466249,31.6871539 C156.429185,32.669543 157.999534,34.0448876 158.751993,36.1406509 C159.635314,38.5311309 157.934103,41.0525961 155.415001,40.8888646 C150.573092,40.6268942 145.731183,40.6268942 140.889274,40.8888646 C138.402888,41.0198498 136.734393,38.432892 137.617714,36.1079046 C138.46832,34.0121413 139.973238,32.6367967 142.099752,31.6871539 Z M160.158764,58.440882 C160.060617,54.838789 160.126048,51.6296516 160.747644,48.4532601 C160.943938,47.5363639 160.551351,47.5036176 159.798892,47.6018562 C157.966818,47.8638269 156.134745,47.9293195 154.269956,47.8310805 C150.998395,47.7000952 147.694119,47.7983342 144.19355,47.7983342 C145.502174,49.0754397 145.436743,50.6145159 145.665752,52.1208458 C146.123771,55.1007593 147.628688,56.2141335 150.638524,55.8866705 C151.390982,55.8211779 152.143441,55.7229393 152.8959,55.6901929 C155.545864,55.6247003 158.032249,56.0176559 160.158764,58.440882 Z M159.733461,100.519879 C159.995186,95.3132175 159.66803,90.0738092 160.126048,84.8671473 C160.224195,83.7865194 159.439021,83.8520121 158.784709,83.6227877 C153.550212,81.8872339 148.119422,83.131593 142.819495,82.3456822 C146.450927,83.982997 150.016927,85.6203122 153.746506,86.9301641 C154.564396,87.2248807 155.34957,87.6505827 156.069313,88.109031 C157.80324,89.2551516 157.737809,91.0561981 155.971167,92.1040797 C154.335387,93.086469 152.503313,93.2502003 150.638524,93.3156929 C147.857697,93.413932 145.044156,93.1847076 142.361476,94.2653355 C147.137954,94.1016042 151.78357,94.5927989 156.298323,96.164621 C158.359406,96.8850396 159.766177,98.0966529 159.733461,100.519879 Z M141.73988,210.743929 C142.361476,212.119274 142.754064,213.003424 143.146651,213.887574 C143.571953,214.771724 143.964541,215.688621 144.422559,216.540025 C145.469459,218.504803 147.857697,218.930505 149.297184,217.162204 C150.932964,215.16468 152.274304,212.872439 153.746506,210.743929 C149.755203,211.660826 145.927477,212.119274 141.73988,210.743929 Z M146.974376,240.83778 C147.334248,240.379332 147.530541,240.248347 147.595973,240.051869 C149.493478,235.43464 149.199037,230.686427 148.152138,225.938213 C148.053991,225.512511 147.759551,225.054063 147.268817,225.086809 C146.549073,225.119556 146.287349,225.774482 146.156486,226.331169 C144.815147,231.177621 145.01144,235.893089 146.974376,240.83778 Z M146.025624,174.952222 C145.305881,174.330042 144.618853,173.871594 144.095403,173.282161 C142.001605,170.957173 139.449788,172.267025 137.192411,172.627235 C135.654778,172.889205 136.701677,174.755744 136.570815,175.901865 C136.538099,176.29482 136.276375,176.720522 136.668962,177.211717 C139.515219,175.639894 142.721348,175.41067 146.025624,174.952222 Z M137.323274,56.9018058 C140.005953,55.9194169 142.688632,56.2796262 145.436743,55.8211779 C144.520706,54.6750573 143.833678,53.7254147 143.37566,52.6120405 C143.015788,51.7278902 142.197898,51.4659199 141.347293,51.6296516 C138.141164,52.3500702 137.912155,52.2518312 137.584999,55.2972373 C137.584999,55.7556852 137.454136,56.1813872 137.323274,56.9018058 Z M160.453204,144.039714 C157.181644,147.772792 157.279791,152.39002 160.453204,155.599158 C160.453204,151.898826 160.453204,148.133001 160.453204,144.039714 Z M159.66803,130.122536 C159.798892,129.99155 159.929754,129.893311 160.027901,129.762326 C160.027901,129.500356 160.027901,129.205639 160.027901,128.943669 C159.96247,127.240861 160.355057,125.603546 157.934103,124.752142 C156.298323,124.195455 154.76069,123.606022 153.026762,123.44229 C153.255772,124.129963 153.484781,124.719396 153.615643,125.341575 C153.779221,126.127487 154.171809,126.520442 155.05513,126.553189 C157.279791,126.684174 159.406305,127.044383 159.66803,130.122536 Z M212.438295,212.283006 C210.933377,215.295665 208.610569,214.182291 206.418624,213.723843 C209.297597,215.328411 212.012992,216.998473 214.597524,219.094236 C212.99446,217.096712 211.751267,215.066441 212.438295,212.283006 Z M146.745367,123.671514 C145.142303,123.671514 143.866394,123.671514 142.492339,123.671514 C143.931825,124.850381 143.473807,126.323965 143.342944,127.732056 C143.310229,128.22325 142.884926,128.976415 143.604669,129.140146 C144.422559,129.303878 144.422559,128.485221 144.553422,127.928533 C144.913293,126.422204 145.142303,124.850381 146.745367,123.671514 Z M234.063308,237.137448 C232.165802,236.220552 230.202867,235.43464 229.548555,233.076907 C229.221399,234.583236 228.76338,235.925835 228.23993,237.464911 C230.301013,236.548015 232.165802,237.30118 234.063308,237.137448 Z M176.745573,212.217513 C176.156693,214.313276 174.61906,213.723843 173.081426,213.789336 C175.109793,215.033695 176.909151,216.114323 178.675794,217.227697 C177.923335,215.623128 176.876436,214.28053 176.745573,212.217513 Z M154.924267,74.7485401 C154.53168,76.353109 153.648359,77.6302145 152.60146,78.9728131 C154.106378,79.0710517 155.316855,79.1692907 156.723625,79.3002761 C156.069313,77.6302145 155.513148,76.1893773 154.924267,74.7485401 Z M117.595766,212.283006 C117.170463,214.28053 116.090848,215.361158 114.847655,216.769249 C117.26861,216.081576 119.002537,214.869963 121.096336,213.854828 C119.72228,213.65835 118.315509,214.313276 117.595766,212.283006 Z M135.360338,126.782413 C136.01465,125.341575 136.930687,124.195455 138.664613,123.245812 C137.061549,123.016588 136.30909,122.001453 135.360338,121.019064 C135.360338,123.114827 135.360338,124.94862 135.360338,126.782413 Z M153.681075,76.5168402 C152.37245,76.5168402 151.55456,76.5168402 150.769386,76.5168402 C149.526193,76.5168402 150.14779,77.5647222 149.91878,78.1214091 C149.558909,78.9728131 150.311368,78.7763351 150.73667,78.8745741 C152.470597,79.202037 152.437882,77.4337369 153.681075,76.5168402 Z M135.262191,157.498444 C135.393053,159.397729 135.360338,160.871312 135.785641,162.508627 C136.30909,161.395253 137.061549,160.838566 138.075733,160.281879 C136.963402,159.626953 136.178228,158.808295 135.262191,157.498444 Z M138.860907,165.521287 C138.599182,166.601915 138.533751,167.61705 137.584999,168.370215 C139.188063,168.370215 140.594834,168.370215 142.001605,168.370215 C140.562118,167.813528 139.646082,166.831139 138.860907,165.521287 Z M137.552283,131.923582 C138.893622,131.596119 140.1041,131.072178 141.412724,130.253521 C140.169531,130.024297 140.038669,129.074654 139.646082,128.190504 C139.744228,129.893311 138.337457,130.679223 137.552283,131.923582 Z M149.493478,125.439814 C149.428047,126.651428 148.839165,127.240861 148.479294,128.026772 C149.493478,127.764802 150.376799,127.568324 151.26012,127.3391 C150.474946,127.044383 150.14779,126.422204 149.493478,125.439814 Z M135.425769,49.8940973 C136.01465,48.7807231 136.701677,48.1585435 137.977586,47.7328415 C136.767109,47.5691102 135.949219,47.4708712 135.098613,47.3398859 C135.229475,48.1912898 135.294907,48.8789621 135.425769,49.8940973 Z M221.075214,227.018841 C219.733874,226.396662 218.294387,226.134691 216.822185,226.101944 C218.228956,226.462154 219.53758,227.11708 221.075214,227.018841 Z" id="Shape" fill="#272324"></path>
                <path d="M226.948522,146.254702 C227.209776,146.254702 227.47103,146.254702 227.732284,146.287378 C231.847035,146.254702 235.994443,145.993295 240.109194,145.797241 C243.244243,145.633862 246.346634,144.980346 249.51434,145.33978 C249.840907,145.56851 250.167475,145.797241 250.494042,146.025971 C250.689983,146.516108 250.91858,147.006245 251.114521,147.529058 C252.094223,150.110446 251.702342,151.842263 249.61231,153.639432 C246.771172,156.05744 243.440183,157.429824 239.815283,158.148691 C233.218619,159.455723 226.589298,160.730079 219.829349,160.370645 C215.486001,160.141915 211.175309,159.55375 206.962588,158.540801 C201.084372,157.103066 199.451534,153.312673 202.390642,148.019195 C202.684553,147.888492 203.01112,147.757789 203.305031,147.627085 C205.395064,146.973569 207.550409,146.842866 209.705755,146.646812 C215.453344,146.058647 221.200933,146.418081 226.948522,146.254702 Z M239.325432,148.280601 C238.900894,148.247925 238.476357,148.215249 238.051819,148.215249 C230.279511,148.476656 222.507203,148.117222 214.734895,148.509332 C212.024385,148.640035 209.313874,148.476656 206.603364,148.868766 C205.558347,149.032144 204.578644,149.424254 204.350048,150.469879 C204.088793,151.744236 204.02348,153.083943 204.317391,154.619706 C205.721631,152.920564 207.452439,152.495779 209.215904,152.201696 C214.963493,151.188747 220.776395,151.156071 226.556641,150.600583 C230.867332,150.143121 235.112711,149.391578 239.325432,148.280601 Z M245.856783,153.476053 C246.836486,153.279998 247.685561,152.822537 248.469323,152.201696 C249.253086,151.580856 250.167475,150.763961 249.808251,149.816364 C249.383713,148.672711 248.110099,149.130172 247.19571,149.293551 C244.452542,149.751012 241.742032,150.306501 239.031521,150.861989 C233.839097,151.972966 228.581359,152.757185 223.421592,154.129568 C222.670487,154.325623 221.723441,154.489002 221.821411,155.632655 C221.919382,156.612929 222.605174,157.201093 223.519562,157.397148 C224.923803,157.723906 226.328043,157.952637 227.862911,157.658555 C226.523984,155.959413 226.687268,155.240545 228.744643,154.717733 C233.643157,153.476053 238.54167,152.299724 243.47284,151.221423 C245.432245,150.763961 246.020067,151.384802 245.856783,153.476053 Z M219.274184,153.476053 C216.726957,154.162244 214.343014,154.325623 211.959071,154.423651 C211.305936,154.456326 210.750771,154.58703 210.718115,155.371249 C210.685458,155.959413 211.077339,156.318847 211.599847,156.351523 C214.114417,156.612929 216.628987,156.874335 219.241528,157.135742 C218.849646,155.894061 218.784333,154.783084 219.274184,153.476053 Z" id="Shape" fill="#98673E"></path>
                <path d="M64.9405204,146.274534 C65.2020326,146.274534 65.4635453,146.274534 65.7250579,146.2418 C69.1900987,146.2418 72.6878284,146.209067 76.1528692,146.307268 C80.5985819,146.40547 85.0442949,146.40547 89.3919404,147.583892 C89.6861419,147.714828 90.0130324,147.845763 90.307234,148.009433 C91.0917714,149.155121 91.4840406,150.399011 91.5821078,151.773836 C91.84362,155.04723 90.5687466,157.240404 87.3979073,158.058752 C79.4217756,160.186459 71.3148878,161.103009 63.0445546,159.891853 C59.5141355,159.36811 55.9510275,158.877101 52.4532978,158.12422 C49.8708617,157.567743 47.4845599,156.585725 45.2290147,155.276367 C39.9660751,152.166643 40.391033,149.64613 42.1235534,146.045397 C42.4504442,145.816259 42.7773346,145.587122 43.1369144,145.357984 C43.888763,145.259782 44.6079222,145.194314 45.3924597,145.259782 C51.8975836,145.816259 58.4027076,146.2418 64.9405204,146.274534 Z M53.630104,148.533176 C60.135228,150.202607 67.0653096,150.628148 73.9627018,151.282827 C78.8987508,151.741102 84.0636227,151.151891 88.4439575,154.425285 C88.4439575,153.476001 88.4439575,152.592184 88.4439575,151.741102 C88.4112685,149.8098 87.7901761,149.187855 85.8288324,148.893249 C83.1156402,148.500442 80.4024475,148.56591 77.6892552,148.56591 C69.6150564,148.500442 61.5081685,148.533176 53.630104,148.533176 Z M46.8634679,153.574203 C46.6019552,151.479231 47.2230473,150.824552 49.2170803,151.250093 C54.087751,152.330313 58.9584213,153.508735 63.7964031,154.71989 C65.9865701,155.276367 66.1500156,155.898312 64.8424532,157.698679 C66.3461499,157.927817 67.7844688,157.731413 69.1900987,157.371339 C70.0727034,157.142202 70.7591736,156.520257 70.8245519,155.538239 C70.8899298,154.490753 70.0073251,154.392551 69.3208548,154.13068 C68.8632078,153.96701 68.3728719,153.836074 67.9152249,153.737872 C61.9985045,152.559451 56.0817836,151.348295 50.1650632,150.169873 C48.3671646,149.8098 46.536577,149.449726 44.7059894,149.155121 C44.0195191,149.056919 43.1696034,148.893249 42.8100235,149.678864 C42.4831331,150.399011 43.0715362,151.020955 43.4964943,151.544698 C44.3790989,152.592184 45.4905269,153.115928 46.8634679,153.574203 Z M73.3742987,153.541469 C73.7992568,154.588955 73.897324,155.505505 73.6031224,156.389321 C73.3089209,157.305872 73.7665674,157.273138 74.3876599,157.174936 C76.545138,156.945798 78.7026164,156.716661 80.8600945,156.487523 C81.4484976,156.422055 81.9388335,156.192918 81.9388335,155.505505 C81.9715229,154.71989 81.4484976,154.490753 80.7620273,154.490753 C78.3757255,154.392551 75.9567348,154.163414 73.3742987,153.541469 Z" id="Shape" fill="#98673E"></path>
                <path d="M135.159273,193.921841 C135.980642,194.087097 136.144916,194.847278 136.506319,195.442201 C138.149057,197.987152 140.186053,199.243102 143.47153,198.747333 C146.297041,198.317666 148.892568,197.226972 151.652369,196.632048 C152.440883,196.466792 153.262253,196.334587 154.182186,196.16933 C153.820784,195.442201 152.90085,194.880329 153.295107,193.888789 C153.525091,193.326917 153.919348,192.864199 154.445024,192.566737 C156.712004,191.178582 158.387597,191.409941 159.668933,193.260814 C159.668933,193.888789 159.668933,194.483713 159.668933,195.111688 C159.833207,195.541355 159.636079,195.904919 159.43895,196.268484 C159.43895,196.268484 159.471805,196.235433 159.471805,196.235433 C158.946128,196.6651 158.847564,197.491383 158.059049,197.623588 C157.730502,197.722742 157.434809,197.821896 157.106261,197.92105 C155.233539,198.449871 153.393672,199.011743 151.52095,199.540564 C151.093838,199.540564 150.732435,199.606667 150.403887,199.904128 C148.596875,200.267693 146.921282,200.994822 145.278543,201.887207 C144.785721,201.887207 144.490028,202.151618 144.22719,202.515182 C142.650161,203.440619 141.631663,204.795723 141.040277,206.514391 C140.843149,207.175417 140.186053,207.671187 140.383182,208.266111 C141.434535,207.274571 142.584451,206.216929 143.701514,205.192338 C143.964352,205.159287 144.260045,205.192338 144.490028,205.060133 C147.381249,203.407568 150.633871,202.944849 153.820784,202.416028 C156.810568,201.920258 157.599083,202.581285 158.091904,205.555903 C158.321888,206.877956 158.584726,208.23306 159.800352,209.125445 C160.19461,209.588163 159.997481,209.819522 159.504659,209.819522 C159.011838,209.852574 158.551871,209.786471 158.059049,209.75342 C157.434809,208.464419 156.810568,207.208469 156.219182,205.919467 C155.726361,204.861826 155.003556,204.399107 153.787929,204.46521 C149.056842,204.72962 144.785721,206.117775 141.073132,209.125445 C140.383182,209.786471 139.528958,209.323752 138.773298,209.455958 C138.379041,206.811853 139.561812,204.597415 140.941713,202.283823 C136.440609,203.044003 135.61924,202.680439 135.422111,199.904128 C135.027854,198.020204 135.093564,196.136279 135.126418,194.219303 C135.126418,194.087097 135.126418,193.987943 135.159273,193.921841 Z M156.219182,195.805766 C157.171971,195.541355 157.960485,195.309996 157.92763,194.219303 C157.894775,193.723533 157.730502,193.492174 157.23768,193.624379 C156.48202,193.789636 155.693506,194.020995 155.824925,195.045586 C155.85778,195.343047 155.759215,195.871868 156.219182,195.805766 Z" id="Shape" fill="#9E1C1F"></path>
                <path d="M135.056576,107.667824 C135.777965,111.450701 138.729103,111.907256 141.778612,112.168144 C146.369271,112.559476 150.730397,111.515923 155.058733,110.211483 C155.419427,110.11365 155.681751,110.048428 155.517799,109.591874 C155.025942,108.352655 155.681751,107.635213 156.731045,107.146048 C157.94429,106.559049 159.059164,106.754715 160.010086,107.700435 C159.977296,108.678765 159.977296,109.624485 159.944506,110.602815 C158.075452,113.99436 154.698038,114.255248 151.418996,114.646581 C149.549942,114.874858 147.976002,115.461856 146.828337,116.961962 C146.598804,117.157629 146.23811,117.288073 146.598804,117.679405 C146.434852,117.418517 146.2709,117.581572 146.106948,117.679405 C146.074157,117.712016 146.074157,117.907682 146.106948,117.907682 C146.336481,117.972904 146.500433,117.907682 146.533223,117.646794 C146.697175,117.51635 146.893918,117.353295 147.05787,117.222851 C150.17296,114.287859 154.140601,114.809635 157.911499,114.581359 C158.600098,114.548748 159.321487,115.005302 159.846134,115.624911 C159.780553,117.646794 159.714973,119.668677 159.616601,121.690559 C159.616601,121.951448 159.813344,122.962389 158.993583,122.081891 C159.124745,121.690559 159.190326,121.331838 158.632889,121.234005 C158.632889,121.234005 158.665679,121.266616 158.665679,121.266616 C158.698469,121.005728 158.600098,120.842673 158.304984,120.907895 C158.304984,120.907895 158.337775,120.940506 158.337775,120.940506 C158.370565,120.157842 158.075452,119.407788 158.206613,118.559902 C158.370565,117.712016 157.878709,116.798907 156.960577,116.766296 C153.156888,116.668463 149.189247,116.016243 146.205319,119.407788 C145.746253,119.929565 145.254397,120.288286 144.533007,119.929565 C144.533007,119.929565 144.565798,119.962176 144.565798,119.962176 C144.205103,119.636065 144.205103,119.342566 144.434636,118.853401 C144.992073,117.679405 145.385558,116.407575 145.844624,115.200968 C143.549295,116.701074 141.122804,116.440186 138.696313,116.179298 C137.450277,116.048854 136.663306,115.396634 136.237031,114.157415 C135.876336,113.179085 135.450061,112.168144 134.695881,111.352868 C134.761462,110.11365 134.466348,108.84182 135.056576,107.667824 Z M157.97708,108.51571 C157.681967,108.580932 157.15732,108.580932 157.026158,109.200541 C156.960577,109.49404 157.19011,109.78754 157.452434,109.689707 C157.911499,109.559263 158.600098,109.657096 158.632889,108.907042 C158.698469,108.548321 158.403356,108.51571 157.97708,108.51571 Z" id="Shape" fill="#9E1C1F"></path>
                <path d="M134.826494,67.26519 C135.844922,71.2572622 138.670239,72.0037473 142.415426,71.8090121 C145.930646,71.6142768 149.215898,70.316042 152.698265,70.0239391 C153.02679,69.9914832 153.355315,69.8941156 153.68384,69.9265715 C154.767974,70.0239391 155.589287,70.1213067 155.556434,68.530969 C155.523582,67.2976459 157.59329,66.3888815 158.940244,66.8108078 C159.400179,66.9730872 159.827262,67.2002783 160.287197,67.3950135 C160.45146,68.7257043 160.58287,70.0239391 160.057229,71.322174 C159.695852,71.6791886 159.367326,72.0037473 159.005949,72.3607619 C158.808834,72.3932178 158.611719,72.4256736 158.381751,72.4581295 C157.100503,72.7826882 155.786402,72.6204089 154.472301,72.7177765 C154.340891,72.7502323 154.209481,72.7502323 154.078071,72.7826882 C154.078071,72.7826882 154.110923,72.8151441 154.110923,72.8151441 C154.078071,72.6204089 153.94666,72.587953 153.782398,72.6528647 C152.468297,72.7502323 151.121344,72.8476 149.905801,73.3993498 C149.741538,73.4318057 149.577276,73.4318057 149.413013,73.4642615 C149.347308,73.5616291 149.24875,73.6589968 149.183045,73.7563644 C149.183045,73.7563644 149.215898,73.7239085 149.215898,73.7239085 C147.474714,74.1782907 146.160614,75.1519669 145.273595,76.6773928 C145.175038,77.0993192 145.043628,77.5537014 144.94507,77.9756277 C144.94507,78.0729953 144.94507,78.1703629 144.879365,78.2677305 C144.583693,78.3650982 144.28802,78.4300099 143.959495,78.5273775 C143.466707,76.7423046 144.616545,75.379158 145.273595,73.8861879 C144.879365,73.7563644 144.780808,73.9510996 144.649398,74.0809231 C142.119753,76.7747604 139.360142,76.9370398 136.436267,74.600217 C136.239152,74.4379377 136.07489,73.9835555 135.68066,74.3730259 C135.68066,74.3730259 135.68066,74.3730259 135.68066,74.3730259 C135.877775,73.7888202 135.844922,73.3668939 135.089314,73.3993498 C135.352134,71.9063797 134.465116,70.5107772 134.727936,69.0178071 C134.826494,68.4336014 134.793641,67.8493957 134.826494,67.26519 Z" id="Shape" fill="#9E1C1F"></path>
                <path d="M165.498559,232.595882 C166.027992,232.006967 166.722874,232.36686 167.318486,232.36686 C169.138413,232.334142 170.95834,232.268707 172.778267,232.432295 C176.318852,232.75947 178.304227,230.89457 179.6609,227.982709 C179.727079,229.127823 180.057975,230.272937 179.6609,231.418051 C179.363094,232.89034 179.098377,234.36263 178.701302,235.834919 C178.204958,237.601667 177.079913,238.35417 175.259986,238.485041 C172.778267,238.681346 170.461996,238.386888 168.60898,236.554706 C167.881009,234.984263 166.855232,233.675562 165.498559,232.595882 Z" id="Shape" fill="#9E1C1F"></path>
                <path d="M114.996385,228.827089 C115.061809,228.827089 115.159944,228.827089 115.159944,228.827089 C116.959088,233.635374 120.786357,233.734174 124.940743,233.207239 C126.216499,233.042572 127.459544,232.581503 128.768012,232.844971 C127.132426,233.701241 126.445481,235.282047 125.85667,236.895786 C125.038878,237.159253 124.515491,237.98259 123.566851,237.949656 C121.931266,237.949656 120.328393,238.048457 118.692808,238.114323 C117.024511,238.147257 116.075872,237.32392 115.748755,235.677248 C115.388926,234.030575 115.127232,232.350969 115.029097,230.671363 C115.323503,230.078561 114.50571,229.452825 114.996385,228.827089 Z" id="Shape" fill="#9E1C1F"></path>
                <path d="M134.747601,142.278098 C135.441287,142.376451 135.375222,142.933781 135.47432,143.392759 C136.234072,148.113676 138.282098,148.671006 143.203967,148.015323 C144.161914,147.884187 145.119862,147.654698 146.07781,147.916971 C145.053797,148.867711 144.062816,149.818451 143.038803,150.769192 C142.741509,150.900328 142.444215,150.965896 142.179954,151.129817 C139.801601,152.506751 138.909719,152.277262 137.291118,150.080725 C136.795627,149.392257 136.564399,148.507085 135.771614,148.048108 C135.011863,146.179411 134.48334,144.310715 134.747601,142.278098 Z" id="Shape" fill="#9E1C1F"></path>
                <path d="M159.083992,177.06149 C159.216291,174.66324 158.687094,172.329807 158.257121,170.028782 C158.124822,169.186154 157.099503,169.348198 156.438007,169.28338 C153.229751,168.926884 150.021494,168.570387 146.813238,168.21389 C146.41634,168.181482 146.052517,168.116664 145.65562,167.662941 C146.647864,167.111991 147.673183,166.982356 148.731577,166.982356 C150.980664,166.949947 153.229751,166.982356 155.478838,166.982356 C157.727925,166.982356 158.356346,166.463815 158.786318,164.292427 C158.918618,163.547024 159.183216,162.834031 159.381665,162.121037 C159.679338,162.121037 159.977012,162.153446 160.010086,162.542352 C159.613189,163.028484 159.513964,163.611842 159.41474,164.1952 C158.951693,166.88513 158.025598,167.630532 155.214239,167.598123 C153.097451,167.565715 150.980664,167.598123 148.863876,167.598123 C151.64216,168.149073 154.387369,168.570387 157.198728,168.829657 C158.554795,168.959292 158.984768,169.639877 159.083992,170.774185 C159.216291,172.005719 159.050917,173.30207 159.745488,174.468787 C160.406984,175.570686 159.513964,176.640176 159.778563,177.742075 C159.216291,177.677257 159.183216,177.320761 159.083992,177.06149 Z" id="Shape" fill="#98673E"></path>
                <path d="M165.548214,242.438402 C165.054869,241.796473 164.265518,241.635991 163.541947,241.539702 C161.009446,241.154545 158.246717,241.154545 158.641393,237.270878 C158.279607,238.618927 158.180938,239.838591 157.227139,240.705195 C156.207561,241.668087 154.891976,241.539702 153.67506,241.668087 C152.326585,241.82857 150.978111,241.892763 149.794085,242.663077 C149.563857,242.695173 149.33363,242.727269 149.070513,242.727269 L149.070513,242.759366 C149.037623,242.438402 148.938954,242.085341 149.30074,241.860666 C151.208338,241.507605 153.083047,241.186641 154.990645,240.994063 C156.931133,240.801484 157.753373,239.710206 157.786263,237.720227 C157.819152,236.821528 157.687594,235.922828 157.687594,234.992031 C157.687594,234.638971 157.884932,234.3822 158.279607,234.318006 C158.707172,234.28591 158.838731,234.574778 158.90451,234.895742 C159.134737,235.762346 159.266296,236.661046 159.299185,237.591842 C159.332075,239.902784 159.858309,240.544713 162.226362,240.769388 C163.903733,240.961966 165.416655,241.411316 166.76513,242.406305 C166.370454,242.984041 165.942889,242.663077 165.548214,242.438402 Z" id="Shape" fill="#98673E"></path>
                <path d="M127.923631,242.810543 C128.831218,241.727887 130.160186,241.596657 131.424325,241.465426 C134.114673,241.137348 134.633295,240.579616 134.698123,237.823764 C134.730537,237.00357 134.795364,236.183376 135.054675,235.39599 C135.151916,235.067912 135.281572,234.707027 135.638124,234.739834 C136.059504,234.772642 136.2864,235.133528 136.2864,235.560029 C136.2864,236.216184 136.189159,236.872339 136.124331,237.528494 C135.897434,240.054692 136.86985,241.39981 139.333301,241.662272 C141.213303,241.826311 143.060892,242.154389 144.811239,242.810543 C144.811239,242.810543 144.778826,242.777736 144.778826,242.777736 C144.778826,242.908967 144.778826,243.00739 144.778826,243.138621 C144.033307,243.040198 143.255375,243.368276 142.509857,243.00739 C141.569856,242.055965 140.305716,242.384043 139.203646,242.252812 C136.70778,241.891926 135.573296,240.743655 135.573296,238.184649 C135.573296,237.462879 135.638124,236.741108 135.670538,236.019337 C135.346399,236.839531 135.216744,237.692533 135.151916,238.545535 C134.989847,240.973309 134.568468,241.39981 132.13743,241.957542 C131.067773,242.220004 129.868461,242.023157 128.92846,242.843351 C128.604322,242.777736 128.247769,242.810543 127.923631,242.810543 Z" id="Shape" fill="#98673E"></path>
                <path d="M156.944255,158.085197 C156.161899,157.24177 155.020963,157.20933 154.043018,156.787616 C152.5761,156.171265 150.946192,155.781991 150.522415,153.673422 C149.90305,156.982254 147.197402,156.009068 145.208914,156.463221 C144.263567,156.690298 143.187828,156.333463 142.307677,157.047132 C141.851303,156.820056 140.840759,157.306648 141.036348,156.138826 C143.513809,156.203705 145.958672,155.911749 148.370936,155.490035 C149.511872,155.295398 149.577069,154.387092 149.740059,153.576104 C149.968246,152.47316 150.033443,151.370216 150.522415,150.299712 C151.402566,150.883623 151.076584,151.662172 151.043986,152.278523 C150.946192,154.127575 151.630753,155.425156 153.456251,155.944189 C154.727579,156.333463 155.901114,157.112012 157.335433,157.079572 C157.335433,157.079572 157.302835,157.079572 157.302835,157.079572 C156.976853,157.501286 157.368031,157.566165 157.596218,157.695923 C157.791807,157.793241 158.019995,157.922999 157.824405,158.117637 C157.596218,158.506911 157.270237,158.247395 156.944255,158.085197 Z" id="Shape" fill="#98673E"></path>
                <path d="M74.5961492,224.182997 C74.4993558,223.731112 74.4025624,223.246949 74.2735043,222.795063 C73.499156,219.986917 73.1765106,219.793252 70.2727046,220.60019 C69.562885,220.793856 68.8530659,221.181186 68.1432464,220.632468 C67.9173949,220.503358 67.9496596,220.309692 68.046453,220.116027 C69.0143882,219.438199 70.1113819,219.050869 71.2406398,218.728093 C72.3698977,218.405318 73.0474526,217.759767 73.2087752,216.533221 C73.3378333,215.564894 73.6927428,214.596568 73.9831236,213.628242 C74.8542653,213.78963 74.3380331,214.467458 74.4670912,214.919344 C73.6927428,216.920551 73.2733041,219.244534 70.5953495,219.760974 C70.3049688,219.728697 70.0145885,219.664142 69.6596785,220.116027 C70.1113819,220.019195 70.4340268,220.148305 70.6276141,219.793252 C73.9831236,219.760974 73.9831236,219.760974 74.7897365,221.955847 C75.015588,222.665953 75.5640849,223.472891 74.5961492,224.182997 Z" id="Shape" fill="#98673E"></path>
                <path d="M225.772632,221.159838 C224.649201,221.325946 223.657939,220.76118 222.600593,220.561851 C220.94849,220.229636 220.089396,220.727958 219.891144,222.422256 C219.82506,223.020244 219.461597,223.551788 219.593765,224.182997 C218.767713,223.751117 219.230302,222.953801 219.395513,222.555142 C219.626807,221.923933 219.428555,221.42561 219.296386,220.894066 C220.551985,219.930642 221.972794,219.797756 223.492729,220.063528 C223.757065,220.362522 224.054444,220.395743 224.517033,220.063528 C224.120528,219.997085 223.856192,219.997085 223.591855,219.963863 C221.642373,219.399097 220.254606,218.302787 220.023312,216.110167 C220.023312,216.076945 219.82506,216.076945 219.725933,216.043724 C219.560723,215.346072 219.428555,214.681641 219.957228,214.050432 C220.485901,217.27292 222.171046,219.365876 225.475253,220.030306 C225.607421,220.063528 225.73959,220.196414 225.871758,220.296079 C225.805674,220.561851 225.805674,220.860845 225.772632,221.159838 Z" id="Shape" fill="#98673E"></path>
                <path d="M92.7132892,239.381844 C91.1967942,238.047009 90.1320212,236.354047 89.2285773,234.628529 C88.1315384,232.512327 86.5505121,231.600732 84.2596367,231.828631 C84.0015096,231.698403 83.9692437,231.503061 84.0660414,231.275162 C84.2919026,231.047263 84.4532316,230.754251 84.7113583,230.591466 C86.2278532,229.614758 88.1638043,228.931062 87.2926266,226.293948 C88.4219314,228.475264 88.2283361,228.833391 84.7113583,231.307719 C88.0992725,231.014707 89.0349824,233.358808 90.3256161,235.344782 C91.0354652,236.419161 91.4871868,237.72144 92.7778209,238.372579 C92.7778209,238.372579 92.7455551,238.372579 92.7455551,238.372579 C92.4551625,238.698148 93.197277,239.056275 92.7132892,239.381844 Z" id="Shape" fill="#98673E"></path>
                <path d="M205.606628,233.048991 C206.33598,231.63262 207.858104,232.027886 208.999698,231.566742 C208.936276,231.402048 208.936276,231.237353 208.904565,231.204414 C205.923737,230.150371 206.209136,227.877589 206.716511,225.341296 C207.097042,223.46378 207.255597,221.553326 206.906776,219.642872 C206.843355,219.313483 206.811644,218.984094 206.494534,218.8194 C206.272558,218.687644 206.240847,218.391195 206.431113,218.325317 C206.906776,218.127684 207.223886,218.52295 207.540995,218.852339 C207.445862,218.984094 207.223886,219.148788 207.604417,219.214666 L207.572706,219.181727 C207.636128,222.01447 207.540995,224.814274 206.970198,227.581139 C206.716511,228.733999 207.065331,229.524532 208.143502,230.084493 C208.904565,230.47976 210.046158,230.710332 209.792471,232.093764 C208.365479,232.390214 206.970198,232.719603 205.606628,233.048991 Z" id="Shape" fill="#98673E"></path>
                <path d="M218.827848,228.429504 C218.794517,230.80602 218.694524,233.215543 222.494236,233.116522 C219.227817,233.512608 216.961323,234.865902 215.994729,237.836547 C215.794744,237.935568 215.59476,238.034589 215.394775,238.100604 C215.261452,238.133611 215.094797,238.100604 214.894813,238.100604 C214.928143,236.945353 215.994729,236.483253 216.394699,235.625066 C217.494616,234.700866 218.161232,233.149529 219.961095,233.149529 C218.761186,232.885472 218.361216,232.126306 218.394547,230.971056 C218.394547,230.34392 218.594532,229.650769 218.161232,229.05664 C218.061239,228.528525 218.294555,228.330482 218.827848,228.429504 Z" id="Shape" fill="#98673E"></path>
                <path d="M200.071129,239.706699 C200.875708,240.125057 201.036623,239.320523 201.261905,238.966528 C202.356132,237.325279 203.321626,235.651848 204.383669,233.978418 C204.7055,233.463516 204.834233,232.755527 205.606628,232.626801 C204.029655,236.005843 202.291766,239.288341 199.330917,241.766306 C198.912536,242.120301 198.268873,242.313389 198.140141,242.957016 C197.689577,243.343193 197.399929,243.214467 197.72176,242.699565 C198.140141,241.959394 198.751621,241.347948 199.266551,240.67214 C199.524016,240.67214 199.749298,240.639959 199.781481,240.318145 C199.781481,240.318145 199.749298,240.350326 199.749298,240.350326 C200.135495,240.285964 200.457327,240.157238 200.071129,239.706699 L200.071129,239.706699 Z" id="Shape" fill="#98673E"></path>
                <path d="M76.7063445,229.261887 C76.3893189,229.909919 76.4844266,230.622753 76.4527239,231.303186 C76.4210216,232.145627 76.1991037,232.890863 75.3431346,233.214879 C75.7552678,233.830508 76.9282625,233.636099 76.8331548,234.737752 C75.6284575,233.798107 74.0433296,234.154524 72.6167147,233.538894 C73.0605506,232.858461 73.726304,232.82606 74.2652475,232.82606 C75.4382422,232.793658 75.9454831,232.242831 75.8820781,231.011572 C75.8186732,230.169132 75.9137808,229.326691 75.9137808,228.451848 C76.6429396,228.225037 76.5478319,228.873069 76.7063445,229.261887 Z" id="Shape" fill="#98673E"></path>
                <path d="M87.3685985,219.527296 C86.8029151,220.991943 87.1304157,222.488432 87.2495071,223.98492 C87.3090528,224.526203 87.6663262,225.131166 86.9220061,225.449568 C86.5647327,223.157075 86.3563227,220.800902 86.8029151,218.444729 C87.4281438,218.126328 87.4281438,218.126328 87.3685985,219.527296 Z" id="Shape" fill="#98673E"></path>
                <path d="M94.9074792,242.623753 C94.4573383,241.556666 93.1069148,241.246867 92.8818444,239.973248 C93.1069148,239.560182 93.3319853,240.042092 93.5570561,239.973248 C93.5570561,239.973248 93.524903,239.938826 93.524903,239.938826 C93.524903,240.17978 93.621362,240.317469 93.8785852,240.317469 C93.8785852,240.317469 93.8464325,240.283047 93.8464325,240.283047 C93.8464325,240.558424 94.007197,240.661691 94.2322674,240.661691 C94.6824088,240.937068 94.7788674,241.62551 95.3576205,241.797621 C95.5505378,241.866465 96.0006791,242.210687 95.7756086,242.554909 C95.6469968,242.795863 95.2290087,242.830286 94.9074792,242.623753 Z" id="Shape" fill="#98673E"></path>
                <path d="M77.2608069,235.180708 C78.3433832,234.985956 78.2735395,236.219386 79.0418197,236.446597 C79.286272,236.836102 79.6704123,237.225606 79.7751776,237.647569 C79.8799432,238.199367 79.5307248,238.231826 79.111663,237.907239 C78.4830703,236.998395 77.8544777,236.089552 77.2608069,235.180708 Z" id="Shape" fill="#98673E"></path>
                <path d="M135.945245,199.695965 C135.727275,199.695965 135.509304,199.695965 135.291334,199.695965 C134.986176,197.845201 135.02977,196.026347 135.552899,194.207493 C135.509304,196.058257 135.465711,197.877111 135.945245,199.695965 Z" id="Shape" fill="#98673E"></path>
                <path d="M150.721902,58.8380967 C150.721902,59.0818807 150.688127,59.2850344 150.688127,59.5288184 C150.012622,59.4069262 149.337118,59.2444037 148.188761,59.0006192 C149.337118,58.634943 150.012622,58.5943123 150.721902,58.8380967 Z" id="Shape" fill="#98673E"></path>
                <path d="M227.361318,57.4178674 C227.146259,57.3819365 226.931198,57.3819365 226.716138,57.3460052 C226.888186,56.8789011 227.017222,56.4117971 227.275294,55.7291066 C227.662403,56.4477284 227.61939,56.9507634 227.361318,57.4178674 Z" id="Shape" fill="#98673E"></path>
                <path d="M176.053314,226.587667 C175.792448,227.070015 175.335932,227.005702 174.944633,226.844919 C172.694662,226.008849 170.542516,226.587667 168.716452,227.680989 C165.16215,229.771166 162.12958,228.774313 159.29266,226.523354 C157.433989,225.044152 155.70575,223.436324 153.227521,223.018288 C152.836222,222.953975 152.444923,222.728879 152.412314,222.343001 C152.379706,221.860653 152.836222,221.635556 153.227521,221.474774 C154.238378,221.121052 155.281842,220.799486 156.325307,220.542234 C158.477454,220.059885 160.662208,219.609693 162.846963,219.223815 C164.118685,218.998719 165.3578,219.095188 166.433873,219.834789 C169.499051,221.860653 172.53162,223.918672 175.56419,225.976692 C175.792448,226.137475 176.053314,226.233944 176.053314,226.587667 Z M167.672987,221.732026 C167.575162,221.539087 167.444729,221.378304 167.216471,221.6034 C167.183863,221.635556 167.314296,221.828496 167.379513,221.957122 C168.520803,223.66142 168.520803,225.301404 166.727347,227.166485 C169.075143,226.459041 170.966423,225.62297 173.542477,225.62297 C171.325114,224.143768 169.499051,222.921819 167.672987,221.732026 Z M165.292583,220.606547 C164.21651,219.834789 156.84704,220.799486 153.586212,222.246531 C156.683999,222.63241 158.444845,224.786899 160.727425,226.523354 C159.390485,222.793193 161.18394,220.413607 165.292583,220.606547 Z M166.792564,221.153208 C166.759956,221.185365 166.694739,221.217521 166.694739,221.249678 C166.694739,221.313991 166.759956,221.378304 166.792564,221.442617 C166.825172,221.410461 166.890389,221.378304 166.890389,221.346147 C166.890389,221.281834 166.825172,221.217521 166.792564,221.153208 Z" id="Shape" fill="#272324"></path>
                <path d="M130.388801,219.123711 C133.907118,219.928695 137.555743,220.218488 140.976329,221.442063 C141.39983,221.60306 141.855908,221.860655 141.855908,222.279246 C141.855908,222.730036 141.334676,222.955432 140.911174,223.05203 C138.56563,223.470621 136.904203,224.95179 135.112467,226.40076 C132.213114,228.751311 129.085721,229.813889 125.437096,227.656534 C123.580206,226.561756 121.430124,226.014368 119.214887,226.915949 C118.85654,227.044746 118.400462,227.109145 118.237577,226.658354 C118.107269,226.271963 118.53077,226.143165 118.791386,225.982169 C121.723317,223.98581 124.687825,221.989452 127.652333,220.025292 C128.434181,219.445705 129.346337,219.059313 130.388801,219.123711 Z M126.707599,221.60306 C124.818133,222.858833 122.961243,224.146807 120.746007,225.627976 C123.31959,225.660175 125.274211,226.368561 127.293985,227.109145 C125.762866,225.40258 125.82802,223.663817 126.935638,221.892854 C127.065946,221.828455 127.196254,221.731857 127.098523,221.60306 C127.033369,221.506462 126.837907,221.60306 126.707599,221.60306 Z M133.646502,225.949969 C133.77681,226.239763 134.004849,226.143165 134.135157,226.014368 C135.992046,224.340003 137.91409,222.697837 140.911174,222.053851 C131.007764,219.6711 130.063031,219.574502 128.043257,220.765877 C133.223001,220.765877 134.884428,222.279246 133.711656,225.982169 C133.646502,226.046567 133.613925,226.110966 133.548771,226.175365 C133.613925,226.175365 133.679079,226.175365 133.744233,226.175365 C133.711656,226.078767 133.679079,226.014368 133.646502,225.949969 Z" id="Shape" fill="#272324"></path>
                <path d="M98.9690473,216.161383 C99.5153201,219.8179 100.350796,223.34265 101.764679,226.702693 C103.178561,230.029794 104.753113,233.291011 106.391931,236.848703 C103.146428,235.234565 97.7479668,219.784959 98.9690473,216.161383 Z" id="Shape" fill="#272324"></path>
                <path d="M195.181616,216.161383 C196.821137,219.349052 191.199925,234.571797 187.45245,236.848703 C190.664571,229.920403 194.612803,223.642647 195.181616,216.161383 Z" id="Shape" fill="#272324"></path>
                <path d="M148.909641,185.372389 C151.405246,185.439812 153.835178,186.046617 156.199435,186.990535 C156.560641,187.125381 157.020358,187.260226 157.053195,187.698474 C157.086032,188.170433 156.593478,188.237856 156.232272,188.372701 C154.590427,189.013217 153.17844,190.091981 151.733615,191.069611 C149.500705,192.586622 147.202122,193.092293 144.673679,191.710127 C143.228855,190.901054 141.619846,190.56394 139.945164,190.631363 C139.583958,190.631363 139.124241,190.698786 138.960057,190.260538 C138.763035,189.788579 139.091404,189.485176 139.419774,189.316619 C142.342259,187.529917 145.067722,185.035276 148.909641,185.372389 Z M140.634739,189.721156 C142.375096,189.754867 143.951267,190.395383 145.954319,191.137033 C144.969212,189.552599 144.870701,188.237856 145.231907,186.754556 C143.458714,187.529917 142.046726,188.574969 140.634739,189.721156 Z M150.51865,186.248885 C151.503757,187.631051 151.602268,188.743526 151.47092,190.05827 C152.882907,189.181774 154.065036,188.406413 155.378513,187.563628 C153.868015,187.159092 152.456028,186.788267 150.51865,186.248885 Z" id="Shape" fill="#272324"></path>
                <path d="M146.865251,144.385883 C145.976193,144.419212 145.120064,144.185908 144.296862,143.852618 C142.683387,143.186037 141.069912,142.786088 139.324726,143.119379 C139.061301,143.186037 138.764949,143.286024 138.56738,143.019392 C138.435668,142.819417 138.435668,142.586114 138.666165,142.452798 C141.79433,140.353068 144.461502,137.186809 148.808006,137.686744 C151.244682,137.953377 153.516718,138.719945 155.558258,140.119765 C156.118034,140.486384 156.644884,141.186294 155.657042,141.386268 C152.924013,141.986191 150.421481,143.219366 147.853092,144.252566 C147.55674,144.385883 147.194531,144.352554 146.865251,144.385883 Z M143.671229,139.91979 C142.97974,140.919662 141.695546,141.186294 140.806488,142.186166 C141.991898,142.38614 143.078524,142.586114 144.362718,142.819417 C143.770013,141.752888 144.000509,140.786345 143.671229,139.91979 C143.671229,139.953119 143.704157,139.953119 143.737085,139.986448 C143.737085,139.953119 143.704157,139.953119 143.671229,139.91979 Z M150.026344,139.119893 C150.026344,139.053235 150.026344,138.986577 149.993416,138.919919 C149.960488,138.919919 149.894632,138.953248 149.861704,138.953248 C149.92756,138.986577 149.993416,139.053235 150.059272,139.086564 C150.355625,140.019778 150.553193,140.98632 150.355625,142.01952 C151.738603,141.586243 153.022797,141.152965 154.636272,140.653029 C152.989869,139.853132 151.705675,138.953248 150.026344,139.119893 Z" id="Shape" fill="#272324"></path>
                <path d="M156.632565,136.122662 C156.468343,136.825591 155.877147,137.113154 155.28595,136.857543 C150.392155,134.620949 145.892491,136.410224 141.359983,138.071694 C140.440344,138.423158 139.520705,138.774623 138.601065,139.094136 C138.042712,139.285844 137.385828,139.573407 136.991696,138.902428 C136.630409,138.295353 136.761787,137.624375 137.320139,137.145105 C137.845647,136.697786 138.469688,136.31437 139.093729,136.026808 C141.425671,135.004365 143.790458,134.013873 146.122401,132.991431 C147.337639,132.448258 148.487188,132.416307 149.73527,132.95948 C151.640237,133.758263 153.610893,134.429241 155.51586,135.164122 C156.041368,135.35583 156.566876,135.451684 156.632565,136.122662 Z" id="Shape" fill="#272324"></path>
                <path d="M149.582293,107.959809 C148.240451,109.462154 146.538603,109.595695 144.836754,109.061529 C143.789462,108.727674 142.90581,107.826267 141.727608,107.692725 C140.680316,107.592569 139.600297,107.65934 138.520278,107.65934 C138.520278,107.392256 138.454822,107.225329 138.48755,107.191944 C143.003994,104.22064 147.684078,103.052149 152.691439,105.956683 C152.920534,106.090224 153.182357,106.290537 153.247813,106.49085 C153.313269,106.92486 152.920534,106.991631 152.625984,107.091788 C152.102338,107.225329 151.578692,107.325485 151.022319,107.425642 C150.924135,107.325485 150.858679,107.225329 150.760496,107.125173 C151.185958,106.92486 151.61142,106.724547 152.265977,106.390693 C150.891407,105.889912 149.713204,105.489286 148.56773,105.088661 C148.56773,105.956683 148.600457,106.657777 148.56773,107.358871 C148.535002,108.293663 149.091375,107.726111 149.418654,107.726111 C149.48411,107.826267 149.549565,107.893038 149.582293,107.959809 Z M143.331273,105.522672 C142.283981,105.990068 141.433057,106.357308 140.222126,106.891475 C141.531241,107.191944 142.44762,107.425642 143.429456,107.65934 C143.429456,106.958246 143.396728,106.357308 143.331273,105.522672 Z" id="Shape" fill="#272324"></path>
                <path d="M158.321326,197.585014 C157.231874,200.83011 155.019955,202.010144 151.652557,201.125119 C151.223379,201.026782 151.058311,201.190676 150.827215,201.387348 C149.242557,202.501826 147.525845,203.19018 145.545022,202.92795 C145.08283,202.862392 145.115844,203.19018 145.08283,203.386852 C144.950776,204.140763 144.323515,204.501329 143.960364,205.091346 C142.837899,206.140266 141.715432,207.156407 140.62598,208.139769 C140.427898,207.549752 141.088172,207.025292 141.286254,206.402496 C141.814474,205.943594 142.375707,205.51747 142.804885,204.99301 C143.465159,204.20632 144.653652,203.747418 144.488584,202.436268 C144.752693,202.075702 145.08283,201.813472 145.545022,201.813472 C147.195707,202.600162 150.001872,201.518463 150.69516,199.846748 C150.992283,199.551739 151.388448,199.486182 151.817626,199.486182 C151.982695,199.977863 151.982695,200.666216 152.775024,200.535101 C154.689818,200.272871 156.604613,200.010642 157.429955,197.880023 C157.694065,197.781687 157.991189,197.683351 158.321326,197.585014 Z" id="Shape" fill="#272324"></path>
                <path d="M155.365994,65.0350737 C152.494107,65.0682342 150.678546,66.8589143 148.631914,68.3179872 C147.344517,69.2464881 145.925078,68.7490767 144.802732,67.8868976 C143.251253,66.7262714 141.666763,66.162539 139.752172,66.5604676 C139.45508,66.6267895 139.091968,66.7262714 138.926917,66.2951819 C138.827887,66.0298961 139.025948,65.8972528 139.224009,65.7977709 C143.779416,63.0454294 148.433853,61.0889455 153.748494,63.7418046 C154.144617,63.9407694 154.540739,64.1065728 154.903851,64.338698 C155.002882,64.4050194 155.068902,64.6039842 155.365994,65.0350737 Z M148.995027,63.1780722 C149.490179,64.338698 149.919312,65.3003595 149.62222,66.6931109 C150.876608,65.6982885 151.998954,65.0682342 153.418393,64.5708232 C152.064975,63.5760008 150.678546,63.4765189 148.995027,63.1780722 Z M144.076507,66.4609857 C144.109518,65.6651276 144.142528,64.9355914 144.208548,64.0734123 C143.086202,64.6371447 142.128906,65.1345561 140.940539,65.7314494 C142.095896,66.0298961 142.987171,66.2288604 144.076507,66.4609857 Z" id="Shape" fill="#272324"></path>
            </g>
            <g id="VATJSS" transform="translate(309.000000, 68.000000)" font-size="130" font-family="LucidaGrande-Bold, Lucida Grande" fill="#FFFFFF" letter-spacing="20" font-weight="bold">
                <g id="Group">
                    <text id="VATJSS">
                        <tspan x="0" y="126">VATJS</tspan>
                        <tspan x="504.916992" y="126">S</tspan>
                    </text>
                </g>
            </g>
        </g>
    </g>
</svg>