<?xml version="1.0" encoding="utf-8"?>
<!-- Generator: Adobe Illustrator 21.1.0, SVG Export Plug-In . SVG Version: 6.00 Build 0)  -->
<svg version="1.1" id="Layer_1" xmlns="http://www.w3.org/2000/svg" xmlns:xlink="http://www.w3.org/1999/xlink" x="0px" y="0px"
	 viewBox="0 0 884 296" style="enable-background:new 0 0 884 296;" xml:space="preserve">
<style type="text/css">
	.st0{fill:#FFFFFF;stroke:#FFFFFF;}
	.st1{fill:#FFFFFF;stroke:#000000;}
	.st2{fill:#FBEE03;}
	.st3{fill:#9E1C1F;}
	.st4{fill:#272324;}
	.st5{fill:#98673E;}
	.st6{fill:#FFFFFF;}
	.st7{font-family:'LucidaGrande-Bold';}
	.st8{font-size:130px;}
	.st9{letter-spacing:19;}
</style>
<title>vatjss_logo_text side</title>
<desc>Created with Sketch.</desc>
<g id="Page-1">
	<g id="vatjss_logo_text-side" transform="translate(1.000000, 1.000000)">
		<ellipse id="Oval" class="st0" cx="145.5" cy="144" rx="144.5" ry="144"/>
		<g id="VATJSS_logo" transform="translate(0.000000, 1.000000)">
			<path id="Shape" class="st1" d="M293,146.7c-0.3,81.6-66.2,146.5-146.7,146.3C64.5,292.8-0.2,226.6,0,146.2
				C0.2,64.8,66.1-0.1,146.6,0C228.2,0.1,293,66.2,293,146.7z M146.5,283.9c75.1,0.4,138.2-61.5,137.4-138.9
				c-0.8-74.9-62.3-136.7-139-136C70,9.8,8.3,71.4,9,148C9.8,223.4,71.6,284.3,146.5,283.9z M151.5,292.1c6.3-0.2,12.3-0.7,18.4-1.8
				c35.3-6.1,64.6-22.6,87.8-49.8c17.4-20.4,28.1-44,32.6-70.5c1.2-7.2,1.8-14.4,1.9-21.6c0-1-0.2-1.5-1.3-1.4c-1.5,0.1-3,0.1-4.6,0
				c-1.2-0.1-1.6,0.3-1.6,1.6c-0.1,10.5-1.4,20.9-3.9,31.1c-6.6,26.5-19.8,49.1-39.7,67.7c-25.8,24.1-56.6,36.4-91.9,37.3
				c-2.1,0.1-2.1,0-2.1,2.2c0,0.2,0,0.3,0,0.5c0.1,1.6-0.7,3.6,0.3,4.6C148.2,292.9,150.2,292,151.5,292.1z M292.1,141.5
				c-0.2-8.1-1.1-16.1-2.7-24c-3.7-18.1-10.5-35-20.7-50.5c-8-12.1-17.5-23-28.6-32.3c-8.9-7.5-18.6-13.9-29.1-19
				c-7.2-3.6-14.6-6.5-22.3-8.8c-12.2-3.6-24.6-5.8-37.3-6.1c-4.4-0.1-4.4,0-4.4,4.4c0,2.8,0,2.8,2.7,2.9c0.7,0,1.3,0.2,1.9,0.2
				c6.4,0.1,12.8,0.9,19.1,2c15.7,2.7,30.4,8.1,44.2,15.9c13.5,7.7,25.2,17.5,35.5,29.1c7.2,8.1,13.3,17,18.4,26.6
				c10.2,19.3,15.3,39.9,16,61.6c0.1,2.5,0.1,2.5,2.5,2.5c0.3,0,0.6,0,0.8,0c4,0,4,0,3.9-4C292.1,141.9,292.1,141.7,292.1,141.5z
				 M0.8,152.1c0.3,6,0.9,12,1.9,17.9c5.6,32.9,20.6,60.9,45.1,83.6c20.8,19.3,45.3,31.3,73.2,36.4c7.7,1.4,15.6,2,23.4,2.3
				c1.4,0,1.8-0.4,1.7-1.7c-0.1-1.5-0.1-2.9,0-4.4c0.1-1.3-0.4-1.5-1.5-1.5c-7.8-0.1-15.5-0.8-23.1-2.2
				c-33.3-6.3-60.7-22.7-82.1-48.8c-15.4-18.7-25-40.2-29.1-64.1c-1.2-7-1.8-14-1.8-21.2c0-1.1-0.3-1.5-1.4-1.4
				c-1.5,0.1-3,0.1-4.6,0c-1.2-0.1-1.7,0.2-1.6,1.5C0.9,149.6,0.8,150.9,0.8,152.1z"/>
			<path id="Shape_1_" class="st2" d="M151.7,291.9c-1.3-0.1-3.3,0.8-4.3-0.2c-1-1-0.2-3-0.3-4.5c0-0.2,0-0.3,0-0.5
				c0-2.2,0-2.2,2.1-2.2c35.3-0.9,66.2-13.2,92-37.3c20-18.6,33.2-41.2,39.8-67.6c2.5-10.2,3.8-20.5,3.9-31c0-1.3,0.4-1.7,1.6-1.6
				c1.5,0.1,3,0.1,4.6,0c1.1-0.1,1.3,0.4,1.3,1.4c-0.1,7.3-0.7,14.5-1.9,21.6c-4.4,26.4-15.2,50-32.6,70.4
				c-23.3,27.2-52.7,43.7-88,49.8C164.1,291.2,158,291.7,151.7,291.9z"/>
			<path id="Shape_2_" class="st3" d="M292.2,141.6c0,0.2,0,0.3,0,0.5c0,4,0,4-3.9,4c-0.3,0-0.6,0-0.8,0c-2.5,0-2.5,0-2.5-2.5
				c-0.7-21.7-5.8-42.3-16-61.6c-5.1-9.6-11.2-18.4-18.4-26.6c-10.3-11.6-22.1-21.4-35.5-29.1c-13.8-7.9-28.6-13.2-44.3-15.9
				c-6.4-1.1-12.7-1.9-19.1-2c-0.7,0-1.3-0.2-1.9-0.2c-2.7-0.2-2.7-0.1-2.7-2.9c0-4.5,0-4.5,4.4-4.4c12.7,0.3,25.1,2.5,37.3,6.1
				c7.7,2.3,15.1,5.2,22.4,8.8c10.5,5.2,20.2,11.5,29.1,19c11.2,9.3,20.7,20.1,28.7,32.3c10.2,15.5,17,32.4,20.7,50.5
				C291,125.5,292,133.5,292.2,141.6z"/>
			<path id="Shape_3_" d="M1.3,142c0,0.2,0,0.3,0,0.5c0,4,0,4,3.9,4c0.3,0,0.6,0,0.8,0c2.5,0,2.5,0,2.5-2.5
				c0.7-21.7,5.8-42.3,16-61.6c5.1-9.6,11.2-18.4,18.4-26.6C53.2,44.2,65,34.4,78.5,26.7c13.8-7.9,28.6-13.2,44.3-15.9
				c6.4-1.1,12.7-1.9,19.1-2c0.7,0,1.3-0.2,1.9-0.2c2.7-0.2,2.7-0.1,2.7-2.9c0-4.5,0-4.5-4.4-4.4c-12.7,0.3-25.1,2.5-37.3,6.1
				c-7.7,2.3-15.1,5.2-22.4,8.8c-10.5,5.2-20.2,11.5-29.1,19c-11.2,9.3-20.7,20.1-28.7,32.3C14.5,82.9,7.6,99.8,3.9,118
				C2.4,125.9,1.4,133.9,1.3,142z"/>
			<path id="Shape_4_" class="st4" d="M42.2,146.2c6-25.2,12-50.5,18-75.7c1.3-5.6,2.6-11.1,4-16.7c0.2-1,0.4-1.7-0.9-2.3
				c-1.3-0.6-1.8-2.3-1.2-3.7c0.6-1.4,1.6-2.1,3.2-2.1c12.4,0.1,24.8-0.6,37.2-0.8c9.3-0.2,18.6-0.5,27.9-0.7c0.5,0,1.1,0.1,1.7-0.3
				c-1.9-2.1-3-4.5-3.1-7.3c-0.2-5.6,2.6-9.6,8.1-10.9c7.1-1.7,14.4-1.7,21.6,0c9.3,2.2,9.7,12.8,5.6,17.5c-0.2,0.2-0.4,0.5-0.5,1.2
				c3.3,0,6.6-0.1,9.9,0c15.7,0.4,31.4,0.8,47,1.2c2.2,0.1,4.4,0.1,6.5,0.1c1.7,0,3,0.7,3.5,2.3c0.5,1.6-0.1,2.8-1.9,3.9
				c-0.9,0.5-0.4,1.1-0.3,1.7c2.2,9.4,4.5,18.8,6.7,28.1c5.1,21.5,10.2,43,15.4,64.6c-0.3-0.2-0.7-0.5-1-0.7
				c-0.1-0.4-0.1-0.9-0.2-1.3c-4.5-19-9.1-37.9-13.6-56.9c-2.6-10.9-5.1-21.7-7.7-32.6c0.1-0.4-0.1-0.8-0.4-0.7
				c-0.3,0.1-0.3,0.5,0.1,0.7c0,2.7-0.1,5.4-0.1,8.2c0,27.8,0,55.7,0,83.5c-0.3,0-0.5,0-0.8,0c0-12.3,0-24.6,0-36.8
				c0-17.4,0-34.8,0-52.2c0.2-0.5,0.2-0.9-0.1-1.5c-0.2,0.6-0.3,1-0.4,1.5c-3.1,12.2-6.2,24.4-9.4,36.5c-4.6,18-9.3,35.9-13.9,53.9
				c-0.3,0.1-0.6,0.3-0.9,0.4c5.6-21.6,11.1-43.2,16.7-64.7c2.5-9.8,5.1-19.6,7.6-29.4c0.3-1.1,0.4-1.8-0.9-2.5
				c-1.8-0.9-1.8-2.7-1-4.5c-0.4,0-0.6,0-0.6,0c-1.5,2-3.6,2-5.9,1.9c-14.8-0.8-29.6-1.3-44.4-1.6c-2.8-0.1-5.6,0-8.3-0.1
				c-0.8,0-1,0.3-1.1,1c-0.4,2,0,4,0.1,6c0.6,14.2,0.5,28.4-0.1,42.5c-1.1,27.5-1,55-1,82.5c0,7.9-0.2,15.8-0.3,23.7
				c0,1.3,0.1,2.7,0.2,4.1c0.4,4.1,4.6,6.5,8,4.3c2.7-1.8,5.5-2,8.5-1.6c4.8,0.6,9.7-0.4,14.5-0.7c7-0.4,14-0.3,21,0.5
				c1.7,0.2,3.3,0.7,4.8,1.5c5.4,2.8,10.4,6.2,14.9,10.3c1.8,1.6,2.6,3.6,2.8,5.9c0.1,2.5-1,3.5-3.5,3c-3.9-0.7-7.6-2-11.4-2.9
				c-0.6-0.1-1.1-0.3-1.7-0.4c0,0.9,0.7,0.7,1,0.8c4.4,1.3,8.7,2.7,13.1,4c1.5,0.4,2.3,1.4,2.8,2.7c1.6,4.7-1.9,8.9-6.8,8
				c-4.1-0.8-8.2-1.8-12.4-2.3c-2.5-0.3-4.9,0.2-6.9,1.8c-7.3,5.9-15,5.7-23.2,2.3c-2.7-1.1-5.1-2.8-7.5-4.5
				c-0.4,0.7-0.2,1.3-0.2,1.8c0,2.5-0.8,3.6-3.2,4.2c-2.3,0.6-4.5,0.4-6.8,0.4c-7.4,0-14.7-0.1-22.1-0.1c-9.4-0.1-18.8-0.3-28.3,0.3
				c-1.6,0.1-3.2-0.1-4.7-0.6c-2.4-0.8-3.4-2.2-3.5-4.7c0-0.4,0-0.7,0-1.3c-6.1,6.2-13.6,6.4-21.3,5.9c-1.3-0.1-2.6-0.4-3.9-0.5
				c-2.3-0.2-4.3-1.1-6-2.7c-0.7-0.6-1.4-1.2-2.1-1.8c-1.3-0.9-2.7-1.2-4.3-0.9c-5.1,0.9-10.2,2.1-15.5,2.2c-2.1,0-3-0.5-3.8-2.4
				c-1.7-4.2-0.5-7.2,3.5-9.2c4.2-2,8.6-2.6,13.1-3.2c2.6-0.4,5.2-0.7,7.8-1.5c-3.3-0.4-6.4,0.5-9.5,1c-3.9,0.7-7.7,1.6-11.6,1.8
				c-2.7,0.2-3.9-1.4-3-4c0.7-2.2,2.1-4,3.9-5.4c6.9-5.3,14.5-9.3,23.2-10.4c4.7-0.6,9.4,0.3,14,0.5c5.8,0.3,11.5,0.4,17.3,0.2
				c3.8-0.1,7.4,0.3,10.5,3.1c1.7,1.6,5.3,0,5.9-2.4c0.6-2.2,0.7-4.4,0.7-6.6c0-3,0-6-0.1-9c-0.2-5.3,0.2-10.7,0.4-16
				c0.2-8.3,0.1-16.6-0.1-24.9c-0.4-12.9-0.5-25.7-0.4-38.6c0.1-10.5-0.5-21-0.2-31.4c0.3-9.5,0.3-19,0.2-28.5
				c0-2.1-0.2-4.3-0.3-6.4c0-1.1-0.4-1.5-1.6-1.4c-6.1,0.2-12.2,0.2-18.3,0.4c-8.7,0.3-17.4,0.6-26.1,0.9c-4.1,0.1-8.3,0.4-12.4,0.5
				c-1.5,0.1-2.9-0.2-4.1-1.3c-0.1-0.2-0.2-0.3-0.3-0.2c-0.1,0,0,0.3,0,0.4c0.4,2.2,0,3.1-1.8,4.1c-1.1,0.6-0.7,1.4-0.5,2.1
				c1.3,5.1,2.6,10.2,3.9,15.4c6.8,26.3,13.6,52.6,20.4,79c-0.3-0.1-0.6-0.3-0.9-0.4c-5.3-20.5-10.6-41.1-15.9-61.6
				c-2.5-9.6-4.9-19.2-7.4-28.8c0.1-0.5-0.2-0.9-0.5-1.3c-0.1,0.6-0.1,1,0.1,1.4c0,0.7,0,1.3,0,2c0,29,0,58,0,87c-0.3,0-0.5,0-0.8,0
				c0-27.5,0-55,0-82.6c0-3,0-6.1,0-9.2c0.3-0.2,0.4-0.6,0.1-0.7c-0.3-0.1-0.5,0.3-0.4,0.7c0,0.2,0,0.4-0.1,0.7
				c-4.3,18.1-8.6,36.1-12.9,54.2c-2.8,12-5.7,23.9-8.5,35.9C42.9,145.8,42.5,146,42.2,146.2z M94.1,240.5L94.1,240.5
				c0.1-0.2,0.1-0.5-0.3-0.3l0,0c0-0.7-0.3-1.2-1-1.3h0c0.2-0.2,0-0.4-0.1-0.6c-3.8-5.5-4.8-11.9-5.2-18.4c0.1-1.4,0.1-1.4-0.6-1.1
				c-1,0.8-2.1,1.6-3.2,2.3c-1.6,1-1.9,2.4-1.5,4.1c0.6,2.2,1.2,4.4,1.8,6.6c-0.1,0.2,0,0.4,0.2,0.6c0.7,2.3,1.3,4.6,2.6,6.6
				c1.2,1.8,2.7,3.1,5,3.2c1.1,0.1,2.3,0.4,3.4,0.6c0.3,0.2,0.8,0.2,0.9,0c0.2-0.3-0.2-0.7-0.4-0.7c-0.6-0.2-0.7-0.8-1.1-1.1
				C94.5,240.6,94.4,240.4,94.1,240.5z M199.8,240.8c-0.4-0.2-0.4,0.2-0.5,0.4c-0.5,0.7-1.1,1.3-1.6,2.1c-0.3,0.6,0,0.7,0.4,0.3
				c1-0.2,2-0.5,3-0.6c3.4-0.3,5.6-2.3,7.1-5.2c0.9-1.8,1.4-3.6,1.9-5.5c0.7-1.9,1.2-3.8,1.6-5.8c0.7-3.5-0.8-6.1-4.1-7.2l0,0
				c0,0,0.1-0.1,0.1-0.1c0-0.1-0.1-0.2-0.1-0.2c-0.3-0.3-0.7-0.7-1.1-0.5c-0.2,0.1-0.1,0.4,0.1,0.5c0.1,2.3-0.3,4.4-0.7,6.6
				c-0.9,5.3-2.9,10.2-5.8,14.7h0C199.8,240.2,199.5,240.3,199.8,240.8L199.8,240.8z M158.9,121.3L158.9,121.3
				c-0.4,0.5,0.1,0.6,0.3,0.8c0.8,0.9,0.6-0.1,0.6-0.4c0.1-2,0.2-4.1,0.2-6.1c0-1.7,0.1-3.4,0.1-5c0-1,0-1.9,0.1-2.9
				c0-0.6,0.1-1.2,0-1.8s0.2-1.4-0.7-1.6c-0.8-0.1-1-0.7-1.1-1.2c-0.5-1.4-1.6-2.2-2.8-2.7c-2.3-0.9-4.7-0.9-7.1-0.9
				c0.5,0.4,0.9,0.6,1.4,0.8c1.9,1,3.8,2.1,5.7,3.1c0.5,0.3,1,0.6,0.7,1.3c-0.3,0.7-0.9,0.6-1.5,0.3c-0.3-0.1-0.6-0.3-0.9-0.4
				c-2.8-1.4-5.7-2.2-8.9-1.2c-1.4,0.5-2.9,0.7-4.4,1.1c-0.4,0.1-0.9,0.3-1.2-0.2c-0.3-0.5,0.1-0.8,0.5-1.1c1-0.9,2.3-1.5,3.5-2.1
				c1.1-0.6,2.3-0.9,3.3-1.8c-5.7-0.5-9.2,1.8-11.3,8.3c-0.6,1.2-0.3,2.5-0.3,3.7c-0.1,1.1,0.1,2.2,0.2,3.2c0.4,2.8,1.9,4.4,4.6,4.9
				c1.6,0.3,3.3,0.7,5,0.5l0,0c0.6,0.4,1.2,0.2,1.7,0.2c4,0,8-0.1,12,0.9l0,0C158.4,121.4,158.5,121.5,158.9,121.3z M230.9,225.8
				c0.8-0.7,1.7-0.9,2.8-0.8c-0.8-0.6-1.5-1.2-1.8-2.2C231.4,223.9,230.8,224.7,230.9,225.8c-0.1-0.1-0.2,0-0.3,0.1
				c0,0,0,0.1,0.1,0.1C230.7,225.9,230.8,225.9,230.9,225.8z M138,62.1c2.2-1.1,4.6-1.6,6.9-2.6c-2.7-0.2-5.1,0.7-7.3,2.3
				c-0.2,0.2-0.7,0.3-0.4,0.6C137.6,62.7,137.8,62.4,138,62.1z M149.4,73.9c0.1-0.1,0.2-0.2,0.2-0.3c0.2,0,0.3,0,0.5-0.1
				c0,0.4,0,0.9-0.1,1.3c-0.2,0.8,0.2,1,1,1c2.8,0.2,3.2-0.2,3.3-2.9c0.1,0,0.3,0,0.4-0.1c0.6,1.2,1.5,2.3,1.8,3.9
				c1.1-1.3,1.5-2.8,2.1-4.2c0.2,0,0.4-0.1,0.6-0.1c-0.1,1.3-0.8,2.4-1.3,3.5c-1.1,2.6-1.2,2.6,1,4.4c0.4,0.3,0.6,0.7,0.9,1
				c0.2,0,0.3,0,0.5,0c0-3.3,0-6.6,0-9.9c0.5-1.3,0.4-2.6,0.2-4c-0.1-0.6-0.2-1.2-0.3-1.8c-1-5.1-2.9-6.7-8-6.8
				c-0.5,0-1-0.1-1.4-0.1c-0.7-0.2-1.3-0.2-2.5,0.1c1.1,0.2,1.8,0.3,2.4,0.4c2.2,0.7,4.4,1.4,6.5,2.1c0.4,0.1,0.9,0.3,0.7,0.9
				c-0.2,0.5-0.6,0.6-1.2,0.5c-5.8-1.4-11.6-1.6-17.2,0.7c-0.7,0.3-1.7,0.4-2-0.5c-0.4-1.1-0.7-0.4-1-0.1c-1.2,1.2-1.3,2.8-1.4,4.4
				c0,0.6,0,1.2-0.1,1.8c-0.2,1.5,0.7,2.9,0.4,4.4c0.2,0.3,0.2,0.8,0.6,1l0,0c0.5,1.8,1.6,3,3.5,3.3c1.6,0.3,3.2,0.6,4.7,0.9
				c0.3-0.1,0.6-0.2,0.9-0.3c1.1,0.7,2.3,0.3,3.4,0.4c0.9,0,0.5-0.9,0.6-1.4c0.1-0.7-0.5-0.5-0.9-0.5c-1.2,0-2,1-3.1,1.3
				c0.1-0.4,0.2-0.9,0.3-1.3c0.7-0.2,1.4-0.6,2.1-0.7C149.2,76.2,149.6,75.3,149.4,73.9L149.4,73.9z M60.4,224.8
				c1.2-0.2,2.5-0.3,3.6,0.7c-0.6-1.5-0.6-3.2-1.5-4.7C62.6,222.6,61.6,223.7,60.4,224.8c-0.1,0.1-0.2,0.1-0.3,0.1
				c0,0,0.1,0.1,0.1,0.1C60.3,224.9,60.3,224.9,60.4,224.8z M79.1,236.5c-0.7-2.4-1.4-4.7-2.1-7.1c-0.1-0.4-0.1-1-0.8-0.8
				c-1.1,0.5-2.2,0.9-3.3,1.5c-1.1,0.5-1.6,1.5-1.3,2.7c0.6,2.5,1.8,4.4,4.6,4.7c1,0.1,1.9,0.4,2.9,0.5c0.4,0.3,0.8,0.3,0.6-0.3
				C79.7,237.3,79.3,236.9,79.1,236.5z M216.4,236c-0.4,0.9-1.4,1.3-1.5,2.5c0.2,0,0.4,0,0.5,0c0.2-0.1,0.4-0.2,0.6-0.3
				c1.1-0.5,2.3-0.9,3.6-0.9s2.1-0.6,2.6-1.8c1.5-3.4,1-4.6-2.4-6.2c-0.3-0.2-0.7-0.3-1-0.4c-0.5-0.1-0.8,0.1-0.7,0.7
				C217.8,231.7,217.1,233.8,216.4,236z M65,236.6c0.1,0,0.2,0,0.2,0c0,0,0-0.1-0.1-0.1C65.1,236.6,65,236.6,65,236.6
				c-0.4-1.5-0.7-3-1-4.5c-0.5,2.6-2.6,3.3-4.6,4.3C61.3,236.6,63.1,235.9,65,236.6z M219.4,221.1c0.1,0.5,0.3,1,0.1,1.6
				c-0.2,0.4-0.6,1.2,0.2,1.6c1.2-0.2,2.5-0.5,3.7-0.7c1.4-0.2,2.4-0.8,2.5-2.3c0-0.3,0-0.6,0-0.9c0.5-1.5,0.1-2.6-1.1-3.6
				c-1.4-1.2-3-2.1-4.8-2.5c-0.5,0.6-0.4,1.3-0.2,2C219.9,217.9,219.9,219.5,219.4,221.1z M74.8,215c-0.1-0.5,0.4-1.1-0.5-1.3
				c-1.2,0.6-2.4,1.1-3.5,1.8c-1.8,1.1-3.1,2.5-2.5,4.8c-0.1,0.2-0.1,0.4,0.1,0.5c0,2.1,1.3,2.8,3.1,3c1.1,0.1,2.3,0.4,3.4,0.6
				c1-0.7,0.4-1.5,0.2-2.3C75,219.7,74.9,217.3,74.8,215z M157.6,157.3L157.6,157.3c-0.2-1.5-0.5-3-1-4.4c-0.4-1-0.9-1.8-2-2.2
				c-3.2-1.1-8.6-0.8-11.2,3c-0.6,0.9-1.4,1.8-2.2,2.7c-0.2,1.2,0.8,0.7,1.3,0.9c4.9,0.4,9.8,0.7,14.7,1c0.3,0.1,0.7,0.4,0.9,0.1
				c0.2-0.2,0-0.4-0.2-0.4C157.8,157.7,158,157.4,157.6,157.3z M145.1,242.8L145.1,242.8c-0.9-2.5-1.8-5-2.7-7.5
				c-0.3-0.8-0.9-1.5-1.7-1.5c-3.6,0-7.2,0.1-10.3,2.2c-2.2,1.5-3.1,4.6-2.2,7c0.3,0,0.7,0,1,0c4.6,0.1,9.1,0.1,13.7,0.2
				c0.8,0.4,1.5,0,2.3,0.1c0.1-0.1,0.2-0.1,0.3-0.2C145.4,242.9,145.3,242.8,145.1,242.8z M149.1,243.1c0.2,0,0.5-0.1,0.7-0.1
				c5.2-0.1,10.4-0.2,15.7-0.2c0.4,0.2,0.8,0.6,1.2,0c-0.1-0.7-0.1-1.3-0.2-1.9c-0.3-3.5-1.7-5.2-5.1-6.3c-1.9-0.6-3.8-0.8-5.8-0.9
				c-2.7-0.2-3.4,0.3-4.2,2.9c-0.6,1.9-1.2,3.8-2.2,5.6C148.9,242.4,149,242.8,149.1,243.1c-0.1,0-0.1,0.1-0.2,0.1
				C149,243.2,149,243.2,149.1,243.1z M77.9,221.3c3.1-3.6,7.3-5.5,11.2-7.8c-1.4,0-2.6,0.4-3.9,0.9c-1.3,0.5-2.5,0.6-3.5-1.1
				c0.3,2.5-0.7,4-2.3,5.3C78.7,219.3,77.5,219.8,77.9,221.3C77.8,221.3,77.8,221.3,77.9,221.3C77.8,221.3,77.8,221.3,77.9,221.3z
				 M159.8,162.7c0-0.4-0.3-0.4-0.6-0.4c-1.2-0.2-2.3-1.5-3.7-0.5c-1.7,1.3-3.5,1.2-5.4,0.3c-2.6-1.2-5.3-1.4-8.3-1.1
				c0.9,1.4,1,2.9,1.3,4.3c0.4,1.8,1,3.5,1.7,5.3c0.8,2,2.3,3.1,4.4,3.5c2,0.3,4.1,0.7,6.1,1c1.5,0.2,2.8,0.8,3.5,2.3
				c0.1,0.3,0.2,0.6,0.7,0.7c-0.3-1.1,0.6-2.2,0-3.3C159.6,170.7,159.7,166.7,159.8,162.7z M107.6,213c0-0.1-0.1-0.3-0.2-0.2
				C107.2,212.9,107.3,213,107.6,213c1.3,3.7,2.5,7.3,3.4,11.1c0.4-4,0.6-8,1.5-12.3C110.8,213.5,109.3,213.7,107.6,213z
				 M187.8,212.8c-1.9,0.3-3.9,0.9-5.7-0.9c0.8,4.3,0.3,8.3,1.2,12.5C184.5,220.3,185.7,216.3,187.8,212.8c0-0.1,0-0.2,0-0.3
				c0,0-0.1,0-0.1,0C187.6,212.6,187.7,212.7,187.8,212.8z M136,148.1c0.6,3,2.1,5.6,3.9,8.3c1.1-2.1,2.6-3.6,3.3-5.6
				c1-0.9,2-1.9,3-2.8c2.3-0.8,4.7-1,7.2-1.4c2.4-0.3,3-0.9,3.6-3.3c0.3-1.2,0.8-2.2,2.1-2.4c0.9-0.2,1-0.8,1-1.5
				c-0.1-2-0.9-3.8-1.7-5.6c-0.8-2-2.6-2.8-4.8-2.6c-1.3,0.2-2.7,0.5-4,0.5c-2.9-0.1-5.6,0.7-8.3,1.6c-4.8,1.6-6.3,3.9-6.2,9
				C134.7,144.4,135.3,146.2,136,148.1z M134.8,210.3c1.4-0.3,2.7-0.6,4.1-0.9c0.8-0.1,1.6,0.3,2.3-0.3c5.7-0.3,11.3,0.1,16.9,0.6
				c0.5,0,0.9,0.1,1.4,0.1s0.7-0.3,0.3-0.7c-0.4-4.3-0.4-8.5-0.4-12.8l0,0c0.4-0.3-0.1-0.8,0.2-1.1c0-0.6,0-1.2,0-1.8
				c0-3.1,0.3-6.2-0.1-9.3c-0.4-3-2.1-4.6-5.1-4.7c-2.8-0.2-5.7-0.2-8.5,0.3c-0.3,0.1-0.8-0.2-0.9,0.6c1.3-0.1,2,1.1,3.2,1.4
				c2.3,0.5,4.5,1.1,6.8,1.7c0.7,0.2,1.5,0.4,2.2,0.8c0.6,0.3,0.5,0.9,0.4,1.3c-0.2,0.7-0.7,0.3-1.1,0.1c-0.8-0.4-1.6-0.7-2.5-0.9
				c-5.5-1.2-10.5,0.1-15.3,2.8c-0.5,0.3-1,0.8-1.4,0.3c-0.5-0.5-0.1-1.1,0.4-1.5c0.3-0.3,0.6-0.5,0.9-0.8c1.4-1.5,3.4-2.5,4.2-4.7
				c-1.6,0.3-2.9,1.1-4.2,1.8c-1.9,0.9-2.8,2.4-3,4.5c-0.2,2.4-0.3,4.8-0.2,7.2c0,0.1,0,0.2,0,0.3c-0.4,1.9-0.4,3.7-0.2,5.6
				c0,2.3,0.1,4.6,0.2,6.9c0,1.1-0.2,2.1-0.7,3.1c-0.1,0.1-0.3,0.1-0.2,0.3C134.5,210.4,134.7,210.3,134.8,210.3z M125.8,236.9
				c0.6-1.6,1.3-3.2,2.9-4c2.8-1.6,6-1.6,9-2.1c3.8-0.6,4.3-1.1,5.1-4.7c0.2-0.7,0.4-1.5,0.8-2.2c0.4-0.9,1.2-1.5,2.1-1.6
				c4-0.6,5,0.1,6.1,3.2c0.1,0.4,0.3,0.8,0.4,1.2c0.6,2.4,2.2,3.6,4.5,3.9c3,0.4,6,0.9,8.7,2.4c1.3,1,2.4,2.4,3.1,3.9
				c0.4,2.1-0.8,4-1.2,6.2c2.8-0.3,5.5-0.1,8.1-0.6c1.3-0.3,2.7-0.8,3.3-2.1c1.2-2.8,1.3-5.6,0.7-8.5c0.4-1.1,0.1-2.3,0-3.4
				c0.2-3.7-0.7-5.3-3.7-6.7c-5.7-2.8-11.9-4.3-17.9-6.2c-2.1-0.7-3.9-0.1-5.3,1.8c-3.2,4.3-7.3,4.4-10.8,0.4
				c-1.3-1.5-2.7-2.3-4.7-2c-5.4,0.8-10.6,2.2-15.7,4.2c-4.2,1.6-6.3,4.6-6.3,9.1c-0.5,0.6,0.3,1.2,0,1.9c-0.7,2.2-0.4,4.5-0.1,6.7
				c0.6,3.5,2.1,5,5.6,5.6c1.6,0.3,3.2,0.2,4.9,0.1c0.5,0,1-0.1,0.9-0.8C125.8,240.5,126,238.7,125.8,236.9z M145.3,87.7
				c-1.7-0.3-3.5,0-5.1-0.8c-0.5-0.3-1.2-0.5-1.2-1.2c-0.1-0.8,0.9-0.6,1.6-1.2c-3.1,0.1-4.7-1.4-5.5-4c0,5.1,0,10.1,0,15.2
				c1.5-0.2,0.7-2.5,2.4-2.4c-0.1-0.1-0.1-0.2-0.2-0.3c-0.2-0.3-0.1-0.5,0.3-0.5c1.2-0.1,2.4-0.2,3.7-0.7c1.1-0.5,2.8-1,4.4-0.6
				c0.7,0.2,1.4,0.1,2.2,0.2c-0.3-0.3-0.6-0.6-0.6-0.8c0-0.4,0.5-0.3,0.8-0.3c1.3-0.1,2.6-0.1,3.8-0.2c-0.8-0.4-1.6-0.4-2.4-0.5
				c-1.3-0.1-2.6-0.1-3.8-0.6C145.1,88.7,144.5,88.4,145.3,87.7c0-0.1,0.1-0.2,0-0.3c-0.1-0.1-0.2,0-0.1,0.1
				C145.3,87.6,145.3,87.7,145.3,87.7z M93.3,220.5c0,4,2.5,10.9,5.5,15.3c3.3,4.9,5.2,5.3,10.4,2.3c2.8-1.7,3.4-3.5,1.8-6.4
				c-1.2-2.3-2.1-4.6-2.9-7.1c-1-3-1.8-6.2-3.7-8.8c-1.5-2.2-2.9-2.6-5.3-1.6c-1.1,0.4-2.1,1.1-3.2,1.6
				C94,216.8,93.3,218.4,93.3,220.5z M201,221.4c0-3.8-1.2-5.4-4.7-6.5c-2.8-0.9-4.4-0.5-6.2,2.1c-3.3,4.8-5.1,10.3-6.8,15.8
				c-1.1,3.5,4.2,8.1,7.6,7.3c0.8-0.2,1.4-0.5,2-1.1C197.7,233.8,200.2,227.6,201,221.4z M142.1,31.7c-1.9-0.1-4.3,0.6-5.7,1.5
				c-2.2,1.5-3.1,4.2-2.4,6.6c0.8,2.5,3.2,4.3,5.8,4.2c5.6-0.2,11.2-0.2,16.8,0c2.4,0.1,4.7-1.5,5.6-3.8c0.9-2.2,0.4-4.6-1.4-6.3
				c-1.8-1.7-4-2.2-6.3-2.3c2,1,3.5,2.4,4.3,4.5c0.9,2.4-0.8,4.9-3.3,4.7c-4.8-0.3-9.7-0.3-14.5,0c-2.5,0.1-4.2-2.5-3.3-4.8
				C138.5,34,140,32.6,142.1,31.7z M160.2,58.4c-0.1-3.6,0-6.8,0.6-10c0.2-0.9-0.2-0.9-0.9-0.9c-1.8,0.3-3.7,0.3-5.5,0.2
				c-3.3-0.1-6.6,0-10.1,0c1.3,1.3,1.2,2.8,1.5,4.3c0.5,3,2,4.1,5,3.8c0.8-0.1,1.5-0.2,2.3-0.2C155.5,55.6,158,56,160.2,58.4z
				 M159.7,100.5c0.3-5.2-0.1-10.4,0.4-15.7c0.1-1.1-0.7-1-1.3-1.2c-5.2-1.7-10.7-0.5-16-1.3c3.6,1.6,7.2,3.3,10.9,4.6
				c0.8,0.3,1.6,0.7,2.3,1.2c1.7,1.1,1.7,2.9-0.1,4c-1.6,1-3.5,1.1-5.3,1.2c-2.8,0.1-5.6-0.1-8.3,0.9c4.8-0.2,9.4,0.3,13.9,1.9
				C158.4,96.9,159.8,98.1,159.7,100.5z M141.7,210.7c0.6,1.4,1,2.3,1.4,3.1c0.4,0.9,0.8,1.8,1.3,2.7c1,2,3.4,2.4,4.9,0.6
				c1.6-2,3-4.3,4.4-6.4C149.8,211.7,145.9,212.1,141.7,210.7z M147,240.8c0.4-0.5,0.6-0.6,0.6-0.8c1.9-4.6,1.6-9.4,0.6-14.1
				c-0.1-0.4-0.4-0.9-0.9-0.9c-0.7,0-1,0.7-1.1,1.2C144.8,231.2,145,235.9,147,240.8z M146,175c-0.7-0.6-1.4-1.1-1.9-1.7
				c-2.1-2.3-4.6-1-6.9-0.7c-1.5,0.3-0.5,2.1-0.6,3.3c0,0.4-0.3,0.8,0.1,1.3C139.5,175.6,142.7,175.4,146,175z M137.3,56.9
				c2.7-1,5.4-0.6,8.1-1.1c-0.9-1.1-1.6-2.1-2.1-3.2c-0.4-0.9-1.2-1.1-2-1c-3.2,0.7-3.4,0.6-3.8,3.7
				C137.6,55.8,137.5,56.2,137.3,56.9z M160.5,144c-3.3,3.7-3.2,8.4,0,11.6C160.5,151.9,160.5,148.1,160.5,144z M159.7,130.1
				c0.1-0.1,0.3-0.2,0.4-0.4c0-0.3,0-0.6,0-0.8c-0.1-1.7,0.3-3.3-2.1-4.2c-1.6-0.6-3.2-1.1-4.9-1.3c0.2,0.7,0.5,1.3,0.6,1.9
				c0.2,0.8,0.6,1.2,1.4,1.2C157.3,126.7,159.4,127,159.7,130.1z M212.4,212.3c-1.5,3-3.8,1.9-6,1.4c2.9,1.6,5.6,3.3,8.2,5.4
				C213,217.1,211.8,215.1,212.4,212.3z M146.7,123.7c-1.6,0-2.9,0-4.3,0c1.4,1.2,1,2.7,0.9,4.1c0,0.5-0.5,1.2,0.3,1.4
				c0.8,0.2,0.8-0.7,0.9-1.2C144.9,126.4,145.1,124.9,146.7,123.7z M234.1,237.1c-1.9-0.9-3.9-1.7-4.5-4.1c-0.3,1.5-0.8,2.8-1.3,4.4
				C230.3,236.5,232.2,237.3,234.1,237.1z M176.7,212.2c-0.6,2.1-2.1,1.5-3.7,1.6c2,1.2,3.8,2.3,5.6,3.4
				C177.9,215.6,176.9,214.3,176.7,212.2z M154.9,74.7c-0.4,1.6-1.3,2.9-2.3,4.2c1.5,0.1,2.7,0.2,4.1,0.3
				C156.1,77.6,155.5,76.2,154.9,74.7z M117.6,212.3c-0.4,2-1.5,3.1-2.7,4.5c2.4-0.7,4.2-1.9,6.2-2.9
				C119.7,213.7,118.3,214.3,117.6,212.3z M135.4,126.8c0.7-1.4,1.6-2.6,3.3-3.5c-1.6-0.2-2.4-1.2-3.3-2.2
				C135.4,123.1,135.4,124.9,135.4,126.8z M153.7,76.5c-1.3,0-2.1,0-2.9,0c-1.2,0-0.6,1-0.9,1.6c-0.4,0.9,0.4,0.7,0.8,0.8
				C152.5,79.2,152.4,77.4,153.7,76.5z M135.3,157.5c0.1,1.9,0.1,3.4,0.5,5c0.5-1.1,1.3-1.7,2.3-2.2
				C137,159.6,136.2,158.8,135.3,157.5z M138.9,165.5c-0.3,1.1-0.3,2.1-1.3,2.8c1.6,0,3,0,4.4,0
				C140.6,167.8,139.6,166.8,138.9,165.5z M137.6,131.9c1.3-0.3,2.6-0.9,3.9-1.7c-1.2-0.2-1.4-1.2-1.8-2.1
				C139.7,129.9,138.3,130.7,137.6,131.9z M149.5,125.4c-0.1,1.2-0.7,1.8-1,2.6c1-0.3,1.9-0.5,2.8-0.7
				C150.5,127,150.1,126.4,149.5,125.4z M135.4,49.9c0.6-1.1,1.3-1.7,2.6-2.2c-1.2-0.2-2-0.3-2.9-0.4
				C135.2,48.2,135.3,48.9,135.4,49.9z M221.1,227c-1.3-0.6-2.8-0.9-4.3-0.9C218.2,226.5,219.5,227.1,221.1,227z"/>
			<path id="Shape_5_" class="st5" d="M226.9,146.3c0.3,0,0.5,0,0.8,0c4.1,0,8.3-0.3,12.4-0.5c3.1-0.2,6.2-0.8,9.4-0.5
				c0.3,0.2,0.7,0.5,1,0.7c0.2,0.5,0.4,1,0.6,1.5c1,2.6,0.6,4.3-1.5,6.1c-2.8,2.4-6.2,3.8-9.8,4.5c-6.6,1.3-13.2,2.6-20,2.2
				c-4.3-0.2-8.7-0.8-12.9-1.8c-5.9-1.4-7.5-5.2-4.6-10.5c0.3-0.1,0.6-0.3,0.9-0.4c2.1-0.7,4.2-0.8,6.4-1
				C215.5,146.1,221.2,146.4,226.9,146.3z M239.3,148.3c-0.4,0-0.8-0.1-1.3-0.1c-7.8,0.3-15.5-0.1-23.3,0.3c-2.7,0.1-5.4,0-8.1,0.4
				c-1,0.2-2,0.6-2.3,1.6c-0.3,1.3-0.3,2.6,0,4.1c1.4-1.7,3.1-2.1,4.9-2.4c5.7-1,11.6-1,17.3-1.6
				C230.9,150.1,235.1,149.4,239.3,148.3z M245.9,153.5c1-0.2,1.8-0.7,2.6-1.3c0.8-0.6,1.7-1.4,1.3-2.4c-0.4-1.1-1.7-0.7-2.6-0.5
				c-2.7,0.5-5.5,1-8.2,1.6c-5.2,1.1-10.5,1.9-15.6,3.3c-0.8,0.2-1.7,0.4-1.6,1.5c0.1,1,0.8,1.6,1.7,1.8c1.4,0.3,2.8,0.6,4.3,0.3
				c-1.3-1.7-1.2-2.4,0.9-2.9c4.9-1.2,9.8-2.4,14.7-3.5C245.4,150.8,246,151.4,245.9,153.5z M219.3,153.5c-2.5,0.7-4.9,0.8-7.3,0.9
				c-0.7,0-1.2,0.2-1.2,0.9c0,0.6,0.4,0.9,0.9,1c2.5,0.3,5,0.5,7.6,0.8C218.8,155.9,218.8,154.8,219.3,153.5z"/>
			<path id="Shape_6_" class="st5" d="M64.9,146.3c0.3,0,0.5,0,0.8,0c3.5,0,7,0,10.4,0.1c4.4,0.1,8.9,0.1,13.2,1.3
				c0.3,0.1,0.6,0.3,0.9,0.4c0.8,1.1,1.2,2.4,1.3,3.8c0.3,3.3-1,5.5-4.2,6.3c-8,2.1-16.1,3-24.4,1.8c-3.5-0.5-7.1-1-10.6-1.8
				c-2.6-0.6-5-1.5-7.2-2.8c-5.3-3.1-4.8-5.6-3.1-9.2c0.3-0.2,0.7-0.5,1-0.7c0.8-0.1,1.5-0.2,2.3-0.1
				C51.9,145.8,58.4,146.2,64.9,146.3z M53.6,148.5c6.5,1.7,13.4,2.1,20.3,2.7c4.9,0.5,10.1-0.1,14.5,3.1c0-0.9,0-1.8,0-2.7
				c0-1.9-0.7-2.6-2.6-2.8c-2.7-0.4-5.4-0.3-8.1-0.3C69.6,148.5,61.5,148.5,53.6,148.5z M46.9,153.6c-0.3-2.1,0.4-2.7,2.4-2.3
				c4.9,1.1,9.7,2.3,14.6,3.5c2.2,0.6,2.4,1.2,1,3c1.5,0.2,2.9,0,4.3-0.3c0.9-0.2,1.6-0.9,1.6-1.8c0.1-1-0.8-1.1-1.5-1.4
				c-0.5-0.2-0.9-0.3-1.4-0.4c-5.9-1.2-11.8-2.4-17.8-3.6c-1.8-0.4-3.6-0.7-5.5-1c-0.7-0.1-1.5-0.3-1.9,0.5
				c-0.3,0.7,0.3,1.3,0.7,1.9C44.4,152.6,45.5,153.1,46.9,153.6z M73.4,153.5c0.4,1,0.5,2,0.2,2.8c-0.3,0.9,0.2,0.9,0.8,0.8
				c2.2-0.2,4.3-0.5,6.5-0.7c0.6-0.1,1.1-0.3,1.1-1c0-0.8-0.5-1-1.2-1C78.4,154.4,76,154.2,73.4,153.5z"/>
			<path id="Shape_7_" class="st3" d="M135.2,193.9c0.8,0.2,1,0.9,1.3,1.5c1.6,2.5,3.7,3.8,7,3.3c2.8-0.4,5.4-1.5,8.2-2.1
				c0.8-0.2,1.6-0.3,2.5-0.5c-0.4-0.7-1.3-1.3-0.9-2.3c0.2-0.6,0.6-1,1.1-1.3c2.3-1.4,3.9-1.2,5.2,0.7c0,0.6,0,1.2,0,1.9
				c0.2,0.4,0,0.8-0.2,1.2l0,0c-0.5,0.4-0.6,1.3-1.4,1.4c-0.3,0.1-0.6,0.2-1,0.3c-1.9,0.5-3.7,1.1-5.6,1.6c-0.4,0-0.8,0.1-1.1,0.4
				c-1.8,0.4-3.5,1.1-5.1,2c-0.5,0-0.8,0.3-1.1,0.6c-1.6,0.9-2.6,2.3-3.2,4c-0.2,0.7-0.9,1.2-0.7,1.8c1.1-1,2.2-2,3.3-3.1
				c0.3,0,0.6,0,0.8-0.1c2.9-1.7,6.1-2.1,9.3-2.6c3-0.5,3.8,0.2,4.3,3.1c0.2,1.3,0.5,2.7,1.7,3.6c0.4,0.5,0.2,0.7-0.3,0.7
				c-0.5,0-1,0-1.4-0.1c-0.6-1.3-1.2-2.5-1.8-3.8c-0.5-1.1-1.2-1.5-2.4-1.5c-4.7,0.3-9,1.7-12.7,4.7c-0.7,0.7-1.5,0.2-2.3,0.3
				c-0.4-2.6,0.8-4.9,2.2-7.2c-4.5,0.8-5.3,0.4-5.5-2.4c-0.4-1.9-0.3-3.8-0.3-5.7C135.1,194.1,135.1,194,135.2,193.9z M156.2,195.8
				c1-0.3,1.7-0.5,1.7-1.6c0-0.5-0.2-0.7-0.7-0.6c-0.8,0.2-1.5,0.4-1.4,1.4C155.9,195.3,155.8,195.9,156.2,195.8z"/>
			<path id="Shape_8_" class="st3" d="M135.1,107.7c0.7,3.8,3.7,4.2,6.7,4.5c4.6,0.4,9-0.7,13.3-2c0.4-0.1,0.6-0.2,0.5-0.6
				c-0.5-1.2,0.2-2,1.2-2.4c1.2-0.6,2.3-0.4,3.3,0.6c0,1,0,1.9-0.1,2.9c-1.9,3.4-5.2,3.7-8.5,4c-1.9,0.2-3.4,0.8-4.6,2.3
				c-0.2,0.2-0.6,0.3-0.2,0.7c-0.2-0.3-0.3-0.1-0.5,0c0,0,0,0.2,0,0.2c0.2,0.1,0.4,0,0.4-0.3c0.2-0.1,0.4-0.3,0.5-0.4
				c3.1-2.9,7.1-2.4,10.9-2.6c0.7,0,1.4,0.4,1.9,1c-0.1,2-0.1,4-0.2,6.1c0,0.3,0.2,1.3-0.6,0.4c0.1-0.4,0.2-0.8-0.4-0.8l0,0
				c0-0.3-0.1-0.4-0.4-0.4l0,0c0-0.8-0.3-1.5-0.1-2.4c0.2-0.8-0.3-1.8-1.2-1.8c-3.8-0.1-7.8-0.8-10.8,2.6c-0.5,0.5-1,0.9-1.7,0.5
				l0,0c-0.4-0.3-0.4-0.6-0.1-1.1c0.6-1.2,1-2.4,1.4-3.7c-2.3,1.5-4.7,1.2-7.1,1c-1.2-0.1-2-0.8-2.5-2c-0.4-1-0.8-2-1.5-2.8
				C134.8,110.1,134.5,108.8,135.1,107.7z M158,108.5c-0.3,0.1-0.8,0.1-1,0.7c-0.1,0.3,0.2,0.6,0.4,0.5c0.5-0.1,1.1,0,1.2-0.8
				C158.7,108.5,158.4,108.5,158,108.5z"/>
			<path id="Shape_9_" class="st3" d="M134.8,67.3c1,4,3.8,4.7,7.6,4.5c3.5-0.2,6.8-1.5,10.3-1.8c0.3,0,0.7-0.1,1-0.1
				c1.1,0.1,1.9,0.2,1.9-1.4c0-1.2,2-2.1,3.4-1.7c0.5,0.2,0.9,0.4,1.3,0.6c0.2,1.3,0.3,2.6-0.2,3.9c-0.4,0.4-0.7,0.7-1.1,1
				c-0.2,0-0.4,0.1-0.6,0.1c-1.3,0.3-2.6,0.2-3.9,0.3c-0.1,0-0.3,0-0.4,0.1l0,0c0-0.2-0.2-0.2-0.3-0.2c-1.3,0.1-2.7,0.2-3.9,0.7
				c-0.2,0-0.3,0-0.5,0.1c-0.1,0.1-0.2,0.2-0.2,0.3l0,0c-1.7,0.5-3.1,1.4-3.9,3c-0.1,0.4-0.2,0.9-0.3,1.3c0,0.1,0,0.2-0.1,0.3
				c-0.3,0.1-0.6,0.2-0.9,0.3c-0.5-1.8,0.7-3.1,1.3-4.6c-0.4-0.1-0.5,0.1-0.6,0.2c-2.5,2.7-5.3,2.9-8.2,0.5
				c-0.2-0.2-0.4-0.6-0.8-0.2l0,0c0.2-0.6,0.2-1-0.6-1c0.3-1.5-0.6-2.9-0.4-4.4C134.8,68.4,134.8,67.8,134.8,67.3z"/>
			<path id="Shape_10_" class="st3" d="M165.5,232.6c0.5-0.6,1.2-0.2,1.8-0.2c1.8,0,3.6-0.1,5.5,0.1c3.5,0.3,5.5-1.5,6.9-4.4
				c0.1,1.1,0.4,2.3,0,3.4c-0.3,1.5-0.6,2.9-1,4.4c-0.5,1.8-1.6,2.5-3.4,2.7c-2.5,0.2-4.8-0.1-6.7-1.9
				C167.9,235,166.9,233.7,165.5,232.6z"/>
			<path id="Shape_11_" class="st3" d="M115,228.8c0.1,0,0.2,0,0.2,0c1.8,4.8,5.6,4.9,9.8,4.4c1.3-0.2,2.5-0.6,3.8-0.4
				c-1.6,0.9-2.3,2.4-2.9,4.1c-0.8,0.3-1.3,1.1-2.3,1.1c-1.6,0-3.2,0.1-4.9,0.2c-1.7,0-2.6-0.8-2.9-2.4c-0.4-1.6-0.6-3.3-0.7-5
				C115.3,230.1,114.5,229.5,115,228.8z"/>
			<path id="Shape_12_" class="st3" d="M134.7,142.3c0.7,0.1,0.6,0.7,0.7,1.1c0.8,4.7,2.8,5.3,7.7,4.6c1-0.1,1.9-0.4,2.9-0.1
				c-1,1-2,1.9-3,2.9c-0.3,0.1-0.6,0.2-0.9,0.4c-2.4,1.4-3.3,1.1-4.9-1c-0.5-0.7-0.7-1.6-1.5-2C135,146.2,134.5,144.3,134.7,142.3z"
				/>
			<path id="Shape_13_" class="st5" d="M159.1,177.1c0.1-2.4-0.4-4.7-0.8-7c-0.1-0.8-1.2-0.7-1.8-0.7c-3.2-0.4-6.4-0.7-9.6-1.1
				c-0.4,0-0.8-0.1-1.2-0.6c1-0.6,2-0.7,3.1-0.7c2.2,0,4.5,0,6.7,0s2.9-0.5,3.3-2.7c0.1-0.7,0.4-1.5,0.6-2.2c0.3,0,0.6,0,0.6,0.4
				c-0.4,0.5-0.5,1.1-0.6,1.7c-0.5,2.7-1.4,3.4-4.2,3.4c-2.1,0-4.2,0-6.4,0c2.8,0.6,5.5,1,8.3,1.2c1.4,0.1,1.8,0.8,1.9,1.9
				c0.1,1.2,0,2.5,0.7,3.7c0.7,1.1-0.2,2.2,0,3.3C159.2,177.7,159.2,177.3,159.1,177.1z"/>
			<path id="Shape_14_" class="st5" d="M165.5,242.4c-0.5-0.6-1.3-0.8-2-0.9c-2.5-0.4-5.3-0.4-4.9-4.3c-0.4,1.3-0.5,2.6-1.4,3.4
				c-1,1-2.3,0.8-3.6,1c-1.3,0.2-2.7,0.2-3.9,1c-0.2,0-0.5,0.1-0.7,0.1v0c0-0.3-0.1-0.7,0.2-0.9c1.9-0.4,3.8-0.7,5.7-0.9
				c1.9-0.2,2.8-1.3,2.8-3.3c0-0.9-0.1-1.8-0.1-2.7c0-0.4,0.2-0.6,0.6-0.7c0.4,0,0.6,0.3,0.6,0.6c0.2,0.9,0.4,1.8,0.4,2.7
				c0,2.3,0.6,3,2.9,3.2c1.7,0.2,3.2,0.6,4.5,1.6C166.4,243,165.9,242.7,165.5,242.4z"/>
			<path id="Shape_15_" class="st5" d="M127.9,242.8c0.9-1.1,2.2-1.2,3.5-1.3c2.7-0.3,3.2-0.9,3.3-3.6c0-0.8,0.1-1.6,0.4-2.4
				c0.1-0.3,0.2-0.7,0.6-0.7c0.4,0,0.6,0.4,0.6,0.8c0,0.7-0.1,1.3-0.2,2c-0.2,2.5,0.7,3.9,3.2,4.1c1.9,0.2,3.7,0.5,5.5,1.1l0,0
				c0,0.1,0,0.2,0,0.4c-0.7-0.1-1.5,0.2-2.3-0.1c-0.9-1-2.2-0.6-3.3-0.8c-2.5-0.4-3.6-1.5-3.6-4.1c0-0.7,0.1-1.4,0.1-2.2
				c-0.3,0.8-0.5,1.7-0.5,2.5c-0.2,2.4-0.6,2.9-3,3.4c-1.1,0.3-2.3,0.1-3.2,0.9C128.6,242.8,128.2,242.8,127.9,242.8z"/>
			<path id="Shape_16_" class="st5" d="M156.9,158.1c-0.8-0.8-1.9-0.9-2.9-1.3c-1.5-0.6-3.1-1-3.5-3.1c-0.6,3.3-3.3,2.3-5.3,2.8
				c-0.9,0.2-2-0.1-2.9,0.6c-0.5-0.2-1.5,0.3-1.3-0.9c2.5,0.1,4.9-0.2,7.3-0.6c1.1-0.2,1.2-1.1,1.4-1.9c0.2-1.1,0.3-2.2,0.8-3.3
				c0.9,0.6,0.6,1.4,0.5,2c-0.1,1.8,0.6,3.1,2.4,3.7c1.3,0.4,2.4,1.2,3.9,1.1h0c-0.3,0.4,0.1,0.5,0.3,0.6c0.2,0.1,0.4,0.2,0.2,0.4
				C157.6,158.5,157.3,158.2,156.9,158.1z"/>
			<path id="Shape_17_" class="st5" d="M74.6,224.2c-0.1-0.5-0.2-0.9-0.3-1.4c-0.8-2.8-1.1-3-4-2.2c-0.7,0.2-1.4,0.6-2.1,0
				c-0.2-0.1-0.2-0.3-0.1-0.5c1-0.7,2.1-1.1,3.2-1.4c1.1-0.3,1.8-1,2-2.2c0.1-1,0.5-1.9,0.8-2.9c0.9,0.2,0.4,0.8,0.5,1.3
				c-0.8,2-1.2,4.3-3.9,4.8c-0.3,0-0.6-0.1-0.9,0.4c0.5-0.1,0.8,0,1-0.3c3.4,0,3.4,0,4.2,2.2C75,222.7,75.6,223.5,74.6,224.2z"/>
			<path id="Shape_18_" class="st5" d="M225.8,221.2c-1.1,0.2-2.1-0.4-3.2-0.6c-1.7-0.3-2.5,0.2-2.7,1.9c-0.1,0.6-0.4,1.1-0.3,1.8
				c-0.8-0.4-0.4-1.2-0.2-1.6c0.2-0.6,0-1.1-0.1-1.7c1.3-1,2.7-1.1,4.2-0.8c0.3,0.3,0.6,0.3,1,0c-0.4-0.1-0.7-0.1-0.9-0.1
				c-1.9-0.6-3.3-1.7-3.6-3.9c0,0-0.2,0-0.3-0.1c-0.2-0.7-0.3-1.4,0.2-2c0.5,3.2,2.2,5.3,5.5,6c0.1,0,0.3,0.2,0.4,0.3
				C225.8,220.6,225.8,220.9,225.8,221.2z"/>
			<path id="Shape_19_" class="st5" d="M92.7,239.4c-1.5-1.3-2.6-3-3.5-4.8c-1.1-2.1-2.7-3-5-2.8c-0.3-0.1-0.3-0.3-0.2-0.6
				c0.2-0.2,0.4-0.5,0.6-0.7c1.5-1,3.5-1.7,2.6-4.3c1.1,2.2,0.9,2.5-2.6,5c3.4-0.3,4.3,2.1,5.6,4c0.7,1.1,1.2,2.4,2.5,3h0
				C92.5,238.7,93.2,239.1,92.7,239.4z"/>
			<path id="Shape_20_" class="st5" d="M205.6,233c0.7-1.4,2.3-1,3.4-1.5c-0.1-0.2-0.1-0.3-0.1-0.4c-3-1.1-2.7-3.3-2.2-5.9
				c0.4-1.9,0.5-3.8,0.2-5.7c-0.1-0.3-0.1-0.7-0.4-0.8c-0.2-0.1-0.3-0.4-0.1-0.5c0.5-0.2,0.8,0.2,1.1,0.5c-0.1,0.1-0.3,0.3,0.1,0.4
				l0,0c0.1,2.8,0,5.6-0.6,8.4c-0.3,1.2,0.1,1.9,1.2,2.5c0.8,0.4,1.9,0.6,1.6,2C208.4,232.4,207,232.7,205.6,233z"/>
			<path id="Shape_21_" class="st5" d="M218.8,228.4c0,2.4-0.1,4.8,3.7,4.7c-3.3,0.4-5.5,1.7-6.5,4.7c-0.2,0.1-0.4,0.2-0.6,0.3
				c-0.1,0-0.3,0-0.5,0c0-1.2,1.1-1.6,1.5-2.5c1.1-0.9,1.8-2.5,3.6-2.5c-1.2-0.3-1.6-1-1.6-2.2c0-0.6,0.2-1.3-0.2-1.9
				C218.1,228.5,218.3,228.3,218.8,228.4z"/>
			<path id="Shape_22_" class="st5" d="M200.1,239.7c0.8,0.4,1-0.4,1.2-0.7c1.1-1.6,2.1-3.3,3.1-5c0.3-0.5,0.5-1.2,1.2-1.4
				c-1.6,3.4-3.3,6.7-6.3,9.1c-0.4,0.4-1.1,0.5-1.2,1.2c-0.5,0.4-0.7,0.3-0.4-0.3c0.4-0.7,1-1.4,1.5-2c0.3,0,0.5,0,0.5-0.4l0,0
				C200.1,240.3,200.5,240.2,200.1,239.7L200.1,239.7z"/>
			<path id="Shape_23_" class="st5" d="M76.7,229.3c-0.3,0.6-0.2,1.4-0.3,2c0,0.8-0.3,1.6-1.1,1.9c0.4,0.6,1.6,0.4,1.5,1.5
				c-1.2-0.9-2.8-0.6-4.2-1.2c0.4-0.7,1.1-0.7,1.6-0.7c1.2,0,1.7-0.6,1.6-1.8c-0.1-0.8,0-1.7,0-2.6
				C76.6,228.2,76.5,228.9,76.7,229.3z"/>
			<path id="Shape_24_" class="st5" d="M87.4,219.5c-0.6,1.5-0.2,3-0.1,4.5c0.1,0.5,0.4,1.1-0.3,1.5c-0.4-2.3-0.6-4.6-0.1-7
				C87.4,218.1,87.4,218.1,87.4,219.5z"/>
			<path id="Shape_25_" class="st5" d="M94.9,242.6c-0.5-1.1-1.8-1.4-2-2.7c0.2-0.4,0.5,0.1,0.7,0l0,0c0,0.2,0.1,0.4,0.4,0.4l0,0
				c0,0.3,0.2,0.4,0.4,0.4c0.5,0.3,0.5,1,1.1,1.1c0.2,0.1,0.6,0.4,0.4,0.8C95.6,242.8,95.2,242.8,94.9,242.6z"/>
			<path id="Shape_26_" class="st5" d="M77.3,235.2c1.1-0.2,1,1,1.8,1.3c0.2,0.4,0.6,0.8,0.7,1.2c0.1,0.6-0.2,0.6-0.7,0.3
				C78.5,237,77.9,236.1,77.3,235.2z"/>
			<path id="Shape_27_" class="st5" d="M135.9,199.7c-0.2,0-0.4,0-0.7,0c-0.3-1.9-0.3-3.7,0.3-5.5
				C135.5,196.1,135.5,197.9,135.9,199.7z"/>
			<path id="Shape_28_" class="st5" d="M150.7,58.8c0,0.2,0,0.4,0,0.7c-0.7-0.1-1.4-0.3-2.5-0.5C149.3,58.6,150,58.6,150.7,58.8z"/>
			<path id="Shape_29_" class="st5" d="M227.4,57.4c-0.2,0-0.4,0-0.6-0.1c0.2-0.5,0.3-0.9,0.6-1.6C227.7,56.4,227.6,57,227.4,57.4z"
				/>
			<path id="Shape_30_" class="st4" d="M176.1,226.6c-0.3,0.5-0.7,0.4-1.1,0.3c-2.2-0.8-4.4-0.3-6.2,0.8c-3.6,2.1-6.6,1.1-9.4-1.2
				c-1.9-1.5-3.6-3.1-6.1-3.5c-0.4-0.1-0.8-0.3-0.8-0.7c0-0.5,0.4-0.7,0.8-0.9c1-0.4,2.1-0.7,3.1-0.9c2.2-0.5,4.3-0.9,6.5-1.3
				c1.3-0.2,2.5-0.1,3.6,0.6c3.1,2,6.1,4.1,9.1,6.1C175.8,226.1,176.1,226.2,176.1,226.6z M167.7,221.7c-0.1-0.2-0.2-0.4-0.5-0.1
				c0,0,0.1,0.2,0.2,0.4c1.1,1.7,1.1,3.3-0.7,5.2c2.3-0.7,4.2-1.5,6.8-1.5C171.3,224.1,169.5,222.9,167.7,221.7z M165.3,220.6
				c-1.1-0.8-8.4,0.2-11.7,1.6c3.1,0.4,4.9,2.5,7.1,4.3C159.4,222.8,161.2,220.4,165.3,220.6z M166.8,221.2
				C166.8,221.2,166.7,221.2,166.8,221.2c-0.1,0.2,0,0.2,0,0.3c0,0,0.1-0.1,0.1-0.1C166.9,221.3,166.8,221.2,166.8,221.2z"/>
			<path id="Shape_31_" class="st4" d="M130.4,219.1c3.5,0.8,7.2,1.1,10.6,2.3c0.4,0.2,0.9,0.4,0.9,0.8c0,0.5-0.5,0.7-0.9,0.8
				c-2.3,0.4-4,1.9-5.8,3.3c-2.9,2.4-6,3.4-9.7,1.3c-1.9-1.1-4-1.6-6.2-0.7c-0.4,0.1-0.8,0.2-1-0.3c-0.1-0.4,0.3-0.5,0.6-0.7
				c2.9-2,5.9-4,8.9-6C128.4,219.4,129.3,219.1,130.4,219.1z M126.7,221.6c-1.9,1.3-3.7,2.5-6,4c2.6,0,4.5,0.7,6.5,1.5
				c-1.5-1.7-1.5-3.4-0.4-5.2c0.1-0.1,0.3-0.2,0.2-0.3C127,221.5,126.8,221.6,126.7,221.6z M133.6,225.9c0.1,0.3,0.4,0.2,0.5,0.1
				c1.9-1.7,3.8-3.3,6.8-4c-9.9-2.4-10.8-2.5-12.9-1.3C133.2,220.8,134.9,222.3,133.6,225.9c0,0.1,0,0.2-0.1,0.2c0.1,0,0.1,0,0.2,0
				C133.7,226.1,133.7,226,133.6,225.9z"/>
			<path id="Shape_32_" class="st4" d="M99,216.2c0.5,3.7,1.4,7.2,2.8,10.5c1.4,3.3,3,6.6,4.6,10.1C103.1,235.2,97.7,219.8,99,216.2
				z"/>
			<path id="Shape_33_" class="st4" d="M195.2,216.2c1.6,3.2-4,18.4-7.7,20.7C190.7,229.9,194.6,223.6,195.2,216.2z"/>
			<path id="Shape_34_" class="st4" d="M148.9,185.4c2.5,0.1,4.9,0.7,7.3,1.6c0.4,0.1,0.8,0.3,0.9,0.7c0,0.5-0.5,0.5-0.8,0.7
				c-1.6,0.6-3.1,1.7-4.5,2.7c-2.2,1.5-4.5,2-7.1,0.6c-1.4-0.8-3.1-1.1-4.7-1.1c-0.4,0-0.8,0.1-1-0.4c-0.2-0.5,0.1-0.8,0.5-0.9
				C142.3,187.5,145.1,185,148.9,185.4z M140.6,189.7c1.7,0,3.3,0.7,5.3,1.4c-1-1.6-1.1-2.9-0.7-4.4
				C143.5,187.5,142,188.6,140.6,189.7z M150.5,186.2c1,1.4,1.1,2.5,1,3.8c1.4-0.9,2.6-1.7,3.9-2.5
				C153.9,187.2,152.5,186.8,150.5,186.2z"/>
			<path id="Shape_35_" class="st4" d="M146.9,144.4c-0.9,0-1.7-0.2-2.6-0.5c-1.6-0.7-3.2-1.1-5-0.7c-0.3,0.1-0.6,0.2-0.8-0.1
				c-0.1-0.2-0.1-0.4,0.1-0.6c3.1-2.1,5.8-5.3,10.1-4.8c2.4,0.3,4.7,1,6.8,2.4c0.6,0.4,1.1,1.1,0.1,1.3c-2.7,0.6-5.2,1.8-7.8,2.9
				C147.6,144.4,147.2,144.4,146.9,144.4z M143.7,139.9c-0.7,1-2,1.3-2.9,2.3c1.2,0.2,2.3,0.4,3.6,0.6
				C143.8,141.8,144,140.8,143.7,139.9C143.7,140,143.7,140,143.7,139.9C143.7,140,143.7,140,143.7,139.9z M150,139.1
				c0-0.1,0-0.1,0-0.2c0,0-0.1,0-0.1,0C149.9,139,150,139.1,150,139.1c0.3,0.9,0.5,1.9,0.3,2.9c1.4-0.4,2.7-0.9,4.3-1.4
				C153,139.9,151.7,139,150,139.1z"/>
			<path id="Shape_36_" class="st4" d="M156.6,136.1c-0.2,0.7-0.8,1-1.3,0.7c-4.9-2.2-9.4-0.4-13.9,1.2c-0.9,0.4-1.8,0.7-2.8,1
				c-0.6,0.2-1.2,0.5-1.6-0.2c-0.4-0.6-0.2-1.3,0.3-1.8c0.5-0.4,1.1-0.8,1.8-1.1c2.3-1,4.7-2,7-3c1.2-0.5,2.4-0.6,3.6,0
				c1.9,0.8,3.9,1.5,5.8,2.2C156,135.4,156.6,135.5,156.6,136.1z"/>
			<path id="Shape_37_" class="st4" d="M149.6,108c-1.3,1.5-3,1.6-4.7,1.1c-1-0.3-1.9-1.2-3.1-1.4c-1-0.1-2.1,0-3.2,0
				c0-0.3-0.1-0.4,0-0.5c4.5-3,9.2-4.1,14.2-1.2c0.2,0.1,0.5,0.3,0.6,0.5c0.1,0.4-0.3,0.5-0.6,0.6c-0.5,0.1-1,0.2-1.6,0.3
				c-0.1-0.1-0.2-0.2-0.3-0.3c0.4-0.2,0.9-0.4,1.5-0.7c-1.4-0.5-2.6-0.9-3.7-1.3c0,0.9,0,1.6,0,2.3c0,0.9,0.5,0.4,0.9,0.4
				C149.5,107.8,149.5,107.9,149.6,108z M143.3,105.5c-1,0.5-1.9,0.8-3.1,1.4c1.3,0.3,2.2,0.5,3.2,0.8
				C143.4,107,143.4,106.4,143.3,105.5z"/>
			<path id="Shape_38_" class="st4" d="M158.3,197.6c-1.1,3.2-3.3,4.4-6.7,3.5c-0.4-0.1-0.6,0.1-0.8,0.3c-1.6,1.1-3.3,1.8-5.3,1.5
				c-0.5-0.1-0.4,0.3-0.5,0.5c-0.1,0.8-0.8,1.1-1.1,1.7c-1.1,1-2.2,2.1-3.3,3c-0.2-0.6,0.5-1.1,0.7-1.7c0.5-0.5,1.1-0.9,1.5-1.4
				c0.7-0.8,1.8-1.2,1.7-2.6c0.3-0.4,0.6-0.6,1.1-0.6c1.7,0.8,4.5-0.3,5.2-2c0.3-0.3,0.7-0.4,1.1-0.4c0.2,0.5,0.2,1.2,1,1
				c1.9-0.3,3.8-0.5,4.7-2.7C157.7,197.8,158,197.7,158.3,197.6z"/>
			<path id="Shape_39_" class="st4" d="M155.4,65c-2.9,0-4.7,1.8-6.7,3.3c-1.3,0.9-2.7,0.4-3.8-0.4c-1.6-1.2-3.1-1.7-5.1-1.3
				c-0.3,0.1-0.7,0.2-0.8-0.3c-0.1-0.3,0.1-0.4,0.3-0.5c4.6-2.8,9.2-4.7,14.5-2.1c0.4,0.2,0.8,0.4,1.2,0.6
				C155,64.4,155.1,64.6,155.4,65z M149,63.2c0.5,1.2,0.9,2.1,0.6,3.5c1.3-1,2.4-1.6,3.8-2.1C152.1,63.6,150.7,63.5,149,63.2z
				 M144.1,66.5c0-0.8,0.1-1.5,0.1-2.4c-1.1,0.6-2.1,1.1-3.3,1.7C142.1,66,143,66.2,144.1,66.5z"/>
		</g>
		<g id="VATJSS_1_" transform="translate(309.000000, 68.000000)">
			<g id="Group">
				<text transform="matrix(1 0 0 1 0 126)" class="st6 st7 st8 st9">VATJSS</text>
				<text transform="matrix(1 0 0 1 504.917 126)" class="st6 st7 st8 st9"> </text>
			</g>
		</g>
	</g>
</g>
</svg>
