<svg id="Layer_1" data-name="Layer 1" xmlns="http://www.w3.org/2000/svg" viewBox="0 0 884 296"><defs><style>.cls-1,.cls-2,.cls-8,.cls-9{fill:#fff;}.cls-1{stroke:#fff;}.cls-2{stroke:#000;}.cls-3{fill:#fbee03;}.cls-4{fill:#9e1c1f;}.cls-5{fill:#272324;}.cls-6{fill:#98673e;}.cls-7,.cls-8{isolation:isolate;}.cls-8,.cls-9{font-size:130px;font-family:LucidaGrande-Bold, Lucida Grande;font-weight:700;letter-spacing:0.15em;}</style></defs><title>Artboard 1</title><g id="Page-1"><g id="vatjss_logo_text-side" data-name="vatjss logo text-side"><ellipse id="Oval" class="cls-1" cx="146.5" cy="145" rx="144.5" ry="144"/><g id="VATJSS_logo" data-name="VATJSS logo"><path id="Shape" class="cls-2" d="M294,148.7A146.5,146.5,0,1,1,147.61,2,146.41,146.41,0,0,1,294,148.7ZM147.55,285.9c75.11.39,138.17-61.49,137.38-138.9-.75-74.89-62.31-136.74-139-136C71,11.79,9.25,73.42,10,150,10.82,225.35,72.64,286.26,147.55,285.9Zm5,8.22a125.56,125.56,0,0,0,18.37-1.77c35.26-6.06,64.63-22.63,87.84-49.84A143.3,143.3,0,0,0,291.32,172a141,141,0,0,0,1.87-21.64c0-1-.2-1.47-1.34-1.41a35.68,35.68,0,0,1-4.58,0c-1.24-.1-1.64.26-1.64,1.6a137.06,137.06,0,0,1-43.68,98.79c-25.83,24.07-56.58,36.38-91.9,37.33-2.13.07-2.13,0-2.13,2.19v.49c.13,1.57-.69,3.57.33,4.55S151.15,294,152.53,294.12ZM293.05,143.52a133.71,133.71,0,0,0-2.72-24,144.5,144.5,0,0,0-20.69-50.49A146.28,146.28,0,0,0,241,36.77a144.22,144.22,0,0,0-29.07-19A136.28,136.28,0,0,0,189.59,9a142.48,142.48,0,0,0-37.26-6.06c-4.39-.1-4.39,0-4.39,4.42,0,2.75,0,2.75,2.68,2.88.65,0,1.28.23,1.93.23a120.56,120.56,0,0,1,19.12,2,134.79,134.79,0,0,1,44.2,15.91,138.71,138.71,0,0,1,35.49,29.08A134.75,134.75,0,0,1,269.74,84a139.32,139.32,0,0,1,16,61.56c.07,2.52.1,2.52,2.52,2.52h.82c4,0,4,0,3.93-4A1.53,1.53,0,0,0,293.05,143.52ZM1.79,154.13A148.42,148.42,0,0,0,3.69,172C9.32,205,24.28,232.88,48.8,255.57,69.59,274.83,94.12,286.85,122,292a155.69,155.69,0,0,0,23.41,2.26c1.41,0,1.8-.36,1.67-1.7a24.92,24.92,0,0,1,0-4.42c.13-1.31-.39-1.47-1.54-1.47a127,127,0,0,1-23.08-2.23c-33.26-6.32-60.67-22.69-82.15-48.79a134.78,134.78,0,0,1-29.07-64.15A127.27,127.27,0,0,1,9.38,150.3c0-1.15-.33-1.51-1.44-1.44a35.69,35.69,0,0,1-4.58,0c-1.18-.07-1.7.2-1.57,1.51S1.79,152.89,1.79,154.13Z"/><path id="Shape-2" data-name="Shape" class="cls-3" d="M152.7,293.88c-1.34-.13-3.34.78-4.26-.16s-.2-3-.33-4.55v-.49c0-2.19,0-2.16,2.13-2.19,35.34-.95,66.16-13.24,92-37.31a135.1,135.1,0,0,0,39.8-67.62,133.69,133.69,0,0,0,3.93-31c0-1.31.39-1.67,1.64-1.6a35.83,35.83,0,0,0,4.59,0c1.15-.07,1.34.39,1.34,1.41a149.1,149.1,0,0,1-1.87,21.61,142.51,142.51,0,0,1-32.62,70.4q-34.92,40.76-88,49.77A126.5,126.5,0,0,1,152.7,293.88Z"/><path id="Shape-3" data-name="Shape" class="cls-4" d="M293.15,143.56V144c0,4,0,4-3.93,4h-.82c-2.46,0-2.46,0-2.52-2.52a139.33,139.33,0,0,0-16-61.6,137.22,137.22,0,0,0-18.39-26.57,140,140,0,0,0-35.54-29.09,135,135,0,0,0-44.26-15.92,121.58,121.58,0,0,0-19.15-2c-.66,0-1.28-.2-1.93-.23-2.69-.16-2.69-.13-2.69-2.88,0-4.46,0-4.52,4.39-4.42A145.31,145.31,0,0,1,212,17.71a147.28,147.28,0,0,1,29.11,19A145.66,145.66,0,0,1,269.78,69a143.91,143.91,0,0,1,20.72,50.52A140.62,140.62,0,0,1,293.15,143.56Z"/><path id="Shape-4" data-name="Shape" d="M2.27,144v.49c0,4,0,4,3.93,4H7c2.46,0,2.46,0,2.52-2.52a139.33,139.33,0,0,1,16-61.6A137.22,137.22,0,0,1,43.94,57.81,140,140,0,0,1,79.48,28.71a135,135,0,0,1,44.26-15.92,121.58,121.58,0,0,1,19.15-2c.66,0,1.28-.2,1.93-.23,2.69-.16,2.69-.13,2.69-2.88,0-4.46,0-4.52-4.39-4.42A145.31,145.31,0,0,0,83.44,18.13a147.29,147.29,0,0,0-29.11,19A145.66,145.66,0,0,0,25.65,69.44,143.91,143.91,0,0,0,4.93,120,140.62,140.62,0,0,0,2.27,144Z"/><path id="Shape-5" data-name="Shape" class="cls-5" d="M43.22,148.23q9-37.87,18-75.68c1.34-5.57,2.65-11.13,4-16.7.23-1,.43-1.74-.85-2.32a2.89,2.89,0,0,1-1.24-3.7,3.09,3.09,0,0,1,3.17-2.1c12.4.13,24.8-.56,37.23-.75,9.32-.16,18.62-.46,27.94-.69a2.57,2.57,0,0,0,1.7-.33,11.13,11.13,0,0,1-3.11-7.3c-.2-5.57,2.62-9.59,8.15-10.9a45.71,45.71,0,0,1,21.56,0c9.29,2.23,9.68,12.77,5.56,17.45a2,2,0,0,0-.49,1.21c3.3,0,6.61-.07,9.88,0,15.67.36,31.37.79,47,1.18,2.19.07,4.35.07,6.54.1a3.36,3.36,0,0,1,3.53,2.32c.49,1.57-.07,2.82-1.9,3.86-.95.52-.43,1.15-.29,1.67,2.22,9.4,4.48,18.76,6.71,28.13q7.7,32.27,15.38,64.58l-1-.69c-.07-.43-.13-.85-.23-1.28Q243.8,117.89,237,89.45q-3.88-16.31-7.72-32.58c.1-.36-.1-.79-.36-.72s-.26.49.1.69c0,2.72-.07,5.44-.07,8.19q0,41.75,0,83.54a6.3,6.3,0,0,1-.79,0q0-18.42,0-36.81,0-26.08,0-52.2a1.83,1.83,0,0,0-.07-1.54c-.16.62-.29,1-.43,1.47Q223.11,77.73,218.41,96q-6.92,27-13.87,53.9l-.92.39,16.68-64.74c2.52-9.82,5.07-19.62,7.62-29.44.29-1.08.36-1.8-.92-2.49-1.77-.92-1.8-2.69-1-4.52-.36,0-.59,0-.62,0-1.54,2-3.63,2-5.89,1.87q-22.18-1.13-44.4-1.64c-2.78-.07-5.56,0-8.34-.13-.82,0-1,.29-1.15,1-.43,2,0,4,.1,6,.59,14.18.49,28.36-.07,42.5-1.08,27.47-1,55-1,82.46,0,7.89-.16,15.82-.26,23.71,0,1.34.07,2.72.2,4.06.39,4.06,4.65,6.48,8,4.26,2.75-1.8,5.46-2,8.54-1.6,4.84.56,9.68-.36,14.49-.65a125.37,125.37,0,0,1,21,.49,13.91,13.91,0,0,1,4.81,1.47,71.79,71.79,0,0,1,14.89,10.28,8.21,8.21,0,0,1,2.78,5.93c.13,2.52-1,3.5-3.5,3-3.86-.72-7.59-2-11.39-2.88-.56-.13-1.11-.26-1.73-.43,0,.85.65.72,1,.82,4.38,1.34,8.74,2.69,13.12,4a4,4,0,0,1,2.78,2.72c1.64,4.68-1.93,8.87-6.77,8-4.12-.79-8.18-1.83-12.37-2.26a9.21,9.21,0,0,0-6.94,1.83c-7.26,5.86-15,5.7-23.2,2.32a39.22,39.22,0,0,1-7.52-4.52,3.08,3.08,0,0,0-.23,1.83c0,2.52-.75,3.57-3.21,4.16a28.14,28.14,0,0,1-6.84.39q-11,0-22.08-.13c-9.42-.1-18.84-.33-28.27.29a12.59,12.59,0,0,1-4.68-.56,4.53,4.53,0,0,1-3.5-4.72v-1.28c-6.12,6.16-13.61,6.35-21.3,5.89-1.31-.07-2.58-.36-3.89-.46a9.32,9.32,0,0,1-6-2.72,18.46,18.46,0,0,0-2.13-1.77,5.43,5.43,0,0,0-4.32-.95c-5.14.95-10.24,2.13-15.51,2.16-2.13,0-3-.49-3.76-2.42-1.7-4.16-.52-7.24,3.5-9.17s8.64-2.55,13.12-3.24a47.71,47.71,0,0,0,7.75-1.51c-3.27-.43-6.38.49-9.52,1a107.08,107.08,0,0,1-11.61,1.83c-2.72.16-3.86-1.38-3-4A10.87,10.87,0,0,1,61.08,221c6.94-5.27,14.49-9.27,23.23-10.41,4.68-.59,9.36.26,14,.49,5.76.33,11.55.36,17.31.16,3.8-.13,7.43.29,10.53,3.08,1.73,1.57,5.27,0,5.92-2.39a25.26,25.26,0,0,0,.72-6.65c0-3,0-6-.1-9-.23-5.34.23-10.68.36-16,.2-8.28.1-16.57-.13-24.85q-.54-19.3-.43-38.61c.07-10.48-.46-21-.2-31.4.26-9.5.29-19,.16-28.46,0-2.13-.23-4.26-.26-6.39,0-1.11-.43-1.47-1.57-1.44-6.09.16-12.2.2-18.29.36q-13.05.39-26.11.88c-4.12.13-8.28.36-12.4.52a5.27,5.27,0,0,1-4.06-1.31c-.07-.16-.16-.29-.33-.16s0,.26,0,.39c.36,2.16,0,3.14-1.77,4.06-1.15.59-.65,1.41-.46,2.06,1.28,5.14,2.62,10.25,3.93,15.36q10.21,39.49,20.38,79c-.29-.13-.62-.26-.92-.43Q82.71,119,74.79,88.14q-3.68-14.39-7.36-28.75a1.72,1.72,0,0,0-.52-1.34A2.48,2.48,0,0,0,67,59.46c0,.65,0,1.31,0,2q0,43.52,0,87a6.3,6.3,0,0,0-.79,0q0-41.26,0-82.55c0-3,0-6.09,0-9.17.29-.23.39-.59.07-.69s-.46.33-.36.69a4.52,4.52,0,0,1-.1.65q-6.48,27.11-12.92,54.2-4.27,18-8.51,35.92A5.67,5.67,0,0,0,43.22,148.23Zm51.89,94.24,0,0c0-.26,0-.52-.36-.36l0,0a1.23,1.23,0,0,0-1-1.34h0c.2-.23,0-.39-.1-.56-3.8-5.53-4.84-11.89-5.23-18.4.07-1.44.07-1.44-.62-1.11-1,.75-2.06,1.6-3.17,2.29a3.29,3.29,0,0,0-1.5,4.06c.56,2.19,1.18,4.39,1.77,6.61a.43.43,0,0,0,.2.56,25.22,25.22,0,0,0,2.65,6.61,6.23,6.23,0,0,0,5,3.24,28.92,28.92,0,0,1,3.37.56c.33.2.75.2.88,0s-.23-.65-.43-.72c-.62-.16-.69-.82-1.15-1.08C95.47,242.61,95.43,242.41,95.11,242.48Zm105.67.33c-.36-.16-.39.16-.52.36a19,19,0,0,0-1.57,2.06c-.33.56,0,.65.43.26,1-.2,2-.52,3-.62,3.4-.33,5.59-2.26,7.07-5.24a32.25,32.25,0,0,0,1.93-5.5,39.05,39.05,0,0,0,1.64-5.8c.72-3.5-.79-6.06-4.06-7.2l0,0a.25.25,0,0,0,.07-.13l-.13-.23c-.33-.33-.65-.69-1.15-.52-.16.07-.13.36.07.49a29.88,29.88,0,0,1-.69,6.61,38.52,38.52,0,0,1-5.82,14.7h0c-.29.13-.59.26-.33.65ZM159.88,123.35l0,0c-.36.49.13.59.36.85.82.88.62-.13.62-.39.1-2,.16-4.06.23-6.09,0-1.67.07-3.37.07-5,0-1,0-1.93.07-2.91a16.54,16.54,0,0,0,0-1.8c-.07-.59.23-1.44-.69-1.6-.75-.13-1-.65-1.15-1.21a4.36,4.36,0,0,0-2.85-2.72c-2.26-.88-4.68-.85-7.07-.95a7.58,7.58,0,0,0,1.41.79c1.9,1,3.83,2.06,5.73,3.11.49.26,1,.62.69,1.28s-.95.59-1.54.29c-.29-.13-.59-.29-.88-.43-2.85-1.41-5.73-2.23-8.93-1.18-1.44.49-2.94.72-4.42,1.11-.43.13-.88.29-1.18-.16s.13-.82.46-1.08a18,18,0,0,1,3.5-2.1,16.47,16.47,0,0,0,3.34-1.77c-5.69-.49-9.16,1.77-11.25,8.28-.56,1.21-.29,2.46-.33,3.73a15,15,0,0,0,.23,3.21,5.28,5.28,0,0,0,4.61,4.91,16.92,16.92,0,0,0,5,.52l0,0c.56.36,1.18.16,1.73.2,4,0,8-.13,12,.85l0,0C159.36,123.41,159.46,123.51,159.88,123.35Zm72,104.43a3.41,3.41,0,0,1,2.81-.79,4.7,4.7,0,0,1-1.83-2.16c-.39,1-1.08,1.87-1,2.95-.13-.1-.23,0-.26.13a.25.25,0,0,0,.07.13C231.73,227.94,231.79,227.87,231.86,227.77ZM139,64.14c2.22-1.08,4.65-1.64,6.9-2.62a10.78,10.78,0,0,0-7.26,2.29c-.16.2-.69.29-.36.62S138.85,64.37,139,64.14ZM150.4,75.86c.07-.1.16-.2.23-.29s.33,0,.49-.07a8.83,8.83,0,0,1-.1,1.31c-.16.82.23,1,1,1,2.78.16,3.17-.16,3.27-2.95.13,0,.26,0,.39-.07a16.1,16.1,0,0,1,1.8,3.93c1.15-1.34,1.47-2.85,2.09-4.16l.62-.1A11.64,11.64,0,0,1,158.9,78c-1.15,2.59-1.18,2.55,1,4.36a6.8,6.8,0,0,1,.88,1c.16,0,.33,0,.49,0V73.51a7.74,7.74,0,0,0,.23-4c-.1-.59-.16-1.18-.29-1.77-1-5.14-2.88-6.71-8-6.78-.49,0-1-.07-1.44-.1a4.31,4.31,0,0,0-2.45.13c1.11.2,1.77.29,2.42.43l6.51,2.06c.39.13.95.26.69.85s-.56.62-1.18.49c-5.82-1.41-11.58-1.64-17.24.72-.72.29-1.67.43-2-.46-.39-1.15-.72-.39-1-.1-1.24,1.21-1.34,2.78-1.37,4.39,0,.59,0,1.18-.07,1.77-.23,1.51.65,2.91.36,4.42.2.33.16.79.59,1h0a4.18,4.18,0,0,0,3.47,3.31c1.57.26,3.17.56,4.74.85.29-.1.59-.16.92-.26,1.08.65,2.29.29,3.44.36.95,0,.52-.88.59-1.38.07-.72-.46-.52-.88-.52-1.18,0-2,1-3.11,1.28.1-.43.23-.88.33-1.31a8.82,8.82,0,0,1,2.13-.65c1.6-.07,2-.95,1.83-2.32Zm-89,150.93c1.24-.16,2.45-.33,3.57.65-.62-1.54-.56-3.24-1.54-4.68.16,1.8-.88,2.95-2,4.06-.1,0-.2,0-.26.07a.45.45,0,0,1,.1.13A1.39,1.39,0,0,1,61.41,226.79Zm18.65,11.76c-.69-2.39-1.37-4.75-2.09-7.14-.13-.39-.07-1-.82-.82-1.08.49-2.19.95-3.27,1.47a2.21,2.21,0,0,0-1.31,2.69c.56,2.49,1.8,4.42,4.65,4.75,1,.1,1.93.36,2.88.52.39.29.75.26.62-.26A2.76,2.76,0,0,0,80.06,238.55ZM217.43,238c-.39.85-1.44,1.31-1.47,2.46a2.43,2.43,0,0,0,.49,0,4.63,4.63,0,0,0,.59-.26,9.09,9.09,0,0,1,3.57-.88,2.73,2.73,0,0,0,2.62-1.83c1.5-3.41,1-4.65-2.36-6.19a10,10,0,0,0-1-.43c-.52-.1-.79.1-.65.65A38,38,0,0,1,217.43,238ZM66,238.65l.23,0s0-.07-.07-.13-.13.1-.2.13c-.33-1.51-.65-3-1-4.55-.46,2.59-2.65,3.34-4.58,4.32C62.29,238.61,64.12,237.93,66,238.65Zm154.48-15.55a2.52,2.52,0,0,1,.1,1.64c-.16.43-.62,1.18.2,1.6,1.21-.23,2.45-.46,3.66-.65,1.37-.2,2.36-.79,2.49-2.32,0-.29,0-.62,0-.92a3.14,3.14,0,0,0-1.08-3.63,10.89,10.89,0,0,0-4.78-2.52,2.1,2.1,0,0,0-.23,2A13.36,13.36,0,0,1,220.44,223.09ZM75.77,217c-.13-.46.39-1.15-.49-1.31-1.18.59-2.39,1.08-3.5,1.77-1.77,1.08-3.08,2.49-2.52,4.81-.07.2-.13.39.1.52,0,2.06,1.34,2.78,3.14,3,1.15.13,2.26.39,3.37.62,1-.69.43-1.51.16-2.29C76,221.72,75.9,219.33,75.77,217Zm82.84-57.67h0a22.87,22.87,0,0,0-1-4.42,3.34,3.34,0,0,0-2-2.19c-3.24-1.11-8.6-.79-11.16,3a33.22,33.22,0,0,1-2.16,2.65c-.2,1.18.79.65,1.28.92,4.87.36,9.78.69,14.66,1,.33.13.65.43.95.1s0-.36-.23-.43C158.84,159.73,159,159.4,158.61,159.3Zm-12.46,85.47,0,0c-.92-2.52-1.8-5-2.75-7.56-.29-.75-.85-1.54-1.73-1.54-3.6,0-7.2.07-10.34,2.16a6.17,6.17,0,0,0-2.22,7c.33,0,.69,0,1,0l13.71.2c.75.36,1.54,0,2.29.13a1.8,1.8,0,0,0,.29-.23A1.28,1.28,0,0,0,146.14,244.77Zm3.93.36a4.9,4.9,0,0,1,.72-.07c5.23-.07,10.44-.16,15.67-.23.43.2.82.56,1.21,0-.07-.65-.13-1.28-.16-1.93-.33-3.54-1.7-5.21-5.07-6.29a22.93,22.93,0,0,0-5.76-.88c-2.72-.16-3.44.29-4.22,2.95a28.31,28.31,0,0,1-2.16,5.6c-.39.2-.29.52-.23.88a.33.33,0,0,0-.16.13A.57.57,0,0,0,150.07,245.13ZM78.88,223.32c3.08-3.57,7.26-5.53,11.22-7.83a10.52,10.52,0,0,0-3.89.85c-1.31.49-2.45.62-3.47-1.08a5.45,5.45,0,0,1-2.26,5.34c-.79.65-2,1.24-1.6,2.72a.12.12,0,0,0-.1,0S78.85,223.32,78.88,223.32Zm81.92-58.65c0-.39-.33-.39-.62-.43-1.21-.23-2.32-1.47-3.66-.46a4.74,4.74,0,0,1-5.37.33,15.3,15.3,0,0,0-8.28-1.15,12.72,12.72,0,0,1,1.34,4.32,34.26,34.26,0,0,0,1.73,5.27A5.31,5.31,0,0,0,150.3,176l6.12,1c1.5.23,2.85.75,3.47,2.32.13.26.16.62.69.65-.26-1.11.62-2.19,0-3.31C160.64,172.7,160.73,168.67,160.8,164.67ZM108.55,215c0-.13-.1-.33-.23-.2s0,.23.13.29a80.69,80.69,0,0,1,3.5,11,122.64,122.64,0,0,1,1.47-12.28C111.82,215.49,110.25,215.72,108.55,215Zm80.28-.2c-1.93.29-3.89.85-5.73-.85.82,4.26.33,8.28,1.21,12.54,1.21-4.19,2.36-8.15,4.48-11.69a.64.64,0,0,1,0-.26s-.1,0-.1,0S188.67,214.74,188.84,214.77ZM137,150.1a25,25,0,0,0,3.89,8.32c1.08-2.13,2.58-3.63,3.34-5.63,1-.95,2-1.9,3-2.85a35.39,35.39,0,0,1,7.2-1.38c2.42-.29,3-.88,3.57-3.31.26-1.21.79-2.16,2.09-2.39.95-.16,1-.75,1-1.54a17.2,17.2,0,0,0-1.7-5.57,4.24,4.24,0,0,0-4.78-2.55,24,24,0,0,1-4,.46,24.62,24.62,0,0,0-8.28,1.6c-4.78,1.6-6.35,3.86-6.25,9A11.4,11.4,0,0,0,137,150.1Zm-1.15,62.15,4.12-.88c.75-.13,1.6.33,2.29-.33a108.09,108.09,0,0,1,16.91.62,10.59,10.59,0,0,0,1.44.07c.49,0,.72-.26.29-.69-.43-4.26-.36-8.51-.36-12.77l0,0c.43-.33-.07-.79.23-1.15v-1.83a63,63,0,0,0-.13-9.3c-.43-3-2.06-4.55-5.1-4.75a33.42,33.42,0,0,0-8.47.29c-.29.07-.82-.2-.88.59,1.28-.1,2,1.11,3.17,1.41,2.29.49,4.55,1.08,6.8,1.67a13,13,0,0,1,2.16.75c.56.26.52.85.36,1.31-.23.65-.72.29-1.08.1a9.49,9.49,0,0,0-2.45-.85c-5.5-1.24-10.53.07-15.31,2.82-.46.26-1,.79-1.44.33s-.1-1.11.39-1.54a9.67,9.67,0,0,0,.85-.79c1.44-1.47,3.4-2.52,4.15-4.75a15.14,15.14,0,0,0-4.22,1.77,5.1,5.1,0,0,0-3,4.52c-.2,2.39-.26,4.78-.23,7.17a.36.36,0,0,0,0,.26,17.13,17.13,0,0,0-.2,5.63c0,2.32.07,4.65.16,6.94a6,6,0,0,1-.69,3.11c-.13.07-.33.13-.16.29S135.71,212.25,135.84,212.25Zm-9,26.66c.59-1.6,1.28-3.18,2.91-4,2.78-1.57,6-1.64,9-2.13,3.79-.59,4.29-1.11,5.14-4.75a10.59,10.59,0,0,1,.75-2.16,2.75,2.75,0,0,1,2.13-1.6c4-.56,5,.13,6.05,3.24.13.43.33.82.43,1.24a4.77,4.77,0,0,0,4.48,3.9,24.76,24.76,0,0,1,8.74,2.36,10.06,10.06,0,0,1,3.08,3.93c.36,2.13-.79,4-1.24,6.19,2.78-.33,5.5-.1,8.15-.62a4.19,4.19,0,0,0,3.3-2.13,13.67,13.67,0,0,0,.69-8.55,8.69,8.69,0,0,0,0-3.44c.16-3.73-.72-5.3-3.7-6.71-5.73-2.78-11.88-4.26-17.86-6.19a4.49,4.49,0,0,0-5.33,1.8c-3.21,4.29-7.33,4.42-10.83.36a4.91,4.91,0,0,0-4.71-2,72.91,72.91,0,0,0-15.74,4.16c-4.19,1.64-6.35,4.58-6.31,9.1-.46.62.33,1.24,0,1.87a15.15,15.15,0,0,0-.07,6.75c.59,3.54,2.13,5,5.63,5.57a20.24,20.24,0,0,0,4.87.07c.49,0,1-.07.85-.82C126.77,242.51,127,240.68,126.81,238.91Zm19.5-149.19c-1.7-.33-3.47,0-5.07-.82-.52-.26-1.18-.52-1.24-1.18-.07-.82.85-.62,1.57-1.18-3.11.1-4.74-1.44-5.53-4V97.74c1.54-.16.69-2.46,2.36-2.39-.07-.1-.1-.2-.16-.29-.16-.33-.07-.46.33-.49a12.32,12.32,0,0,0,3.66-.72,7.77,7.77,0,0,1,4.42-.62,15.62,15.62,0,0,0,2.22.2c-.26-.33-.62-.59-.59-.82,0-.43.49-.29.79-.29,1.28-.07,2.55-.13,3.83-.16a6.74,6.74,0,0,0-2.36-.49A10.79,10.79,0,0,1,146.7,91c-.62-.33-1.18-.62-.39-1.31,0-.1.07-.23,0-.26s-.16,0-.07.1A.25.25,0,0,0,146.31,89.72Zm-52,132.79c0,4,2.49,10.9,5.53,15.33,3.34,4.91,5.23,5.3,10.37,2.26,2.85-1.7,3.4-3.5,1.8-6.42a42.75,42.75,0,0,1-2.88-7.07c-1-3-1.83-6.16-3.7-8.84-1.54-2.16-2.88-2.59-5.33-1.64a29.06,29.06,0,0,0-3.17,1.64A4.93,4.93,0,0,0,94.29,222.5Zm107.73.88c0-3.8-1.24-5.37-4.68-6.52-2.85-.95-4.35-.49-6.15,2.1-3.34,4.78-5.07,10.32-6.84,15.78-1.11,3.47,4.22,8.12,7.62,7.34a3.55,3.55,0,0,0,2-1.08A32.3,32.3,0,0,0,202,223.39ZM143.1,33.69a10.27,10.27,0,0,0-5.66,1.54,5.93,5.93,0,0,0-2.39,6.61A6,6,0,0,0,140.84,46c5.59-.16,11.22-.2,16.82,0a5.92,5.92,0,0,0,5.56-3.77,5.69,5.69,0,0,0-1.41-6.32c-1.77-1.7-4-2.16-6.35-2.26a8.05,8.05,0,0,1,4.29,4.45,3.44,3.44,0,0,1-3.34,4.75,134.34,134.34,0,0,0-14.53,0,3.47,3.47,0,0,1-3.27-4.78A8,8,0,0,1,143.1,33.69Zm18.06,26.75a45,45,0,0,1,.59-10c.2-.92-.2-.95-.95-.85a28.32,28.32,0,0,1-5.53.23c-3.27-.13-6.58,0-10.08,0,1.31,1.28,1.24,2.82,1.47,4.32.46,3,2,4.09,5,3.77.75-.07,1.5-.16,2.26-.2C156.55,57.62,159,58,161.16,60.44Zm-.43,42.08c.26-5.21-.07-10.45.39-15.65.1-1.08-.69-1-1.34-1.24-5.23-1.74-10.67-.49-16-1.28,3.63,1.64,7.2,3.27,10.93,4.58a11.91,11.91,0,0,1,2.32,1.18c1.73,1.15,1.67,2.95-.1,4a10.73,10.73,0,0,1-5.33,1.21c-2.78.1-5.59-.13-8.28.95a37.91,37.91,0,0,1,13.94,1.9C159.36,98.89,160.77,100.1,160.73,102.52Zm-18,110.22c.62,1.38,1,2.26,1.41,3.14s.82,1.8,1.28,2.65a2.85,2.85,0,0,0,4.87.62c1.64-2,3-4.29,4.45-6.42C150.76,213.66,146.93,214.12,142.74,212.74ZM148,242.84c.36-.46.56-.59.62-.79,1.9-4.62,1.6-9.37.56-14.11-.1-.43-.39-.88-.88-.85-.72,0-1,.69-1.11,1.24A22,22,0,0,0,148,242.84ZM147,177a20.91,20.91,0,0,1-1.93-1.67c-2.09-2.32-4.65-1-6.9-.65-1.54.26-.49,2.13-.62,3.27,0,.39-.29.82.1,1.31C140.52,177.64,143.72,177.41,147,177ZM138.32,58.9c2.68-1,5.37-.62,8.11-1.08a13.22,13.22,0,0,1-2.06-3.21,1.68,1.68,0,0,0-2-1c-3.21.72-3.44.62-3.76,3.67A10,10,0,0,1,138.32,58.9ZM161.45,146c-3.27,3.73-3.17,8.35,0,11.56Zm-.79-13.92a3.74,3.74,0,0,0,.36-.36v-.82c-.07-1.7.33-3.34-2.09-4.19a21.31,21.31,0,0,0-4.91-1.31,17.72,17.72,0,0,1,.59,1.9,1.33,1.33,0,0,0,1.44,1.21C158.28,128.68,160.41,129,160.67,132.12Zm52.77,82.16c-1.5,3-3.83,1.9-6,1.44a55.88,55.88,0,0,1,8.18,5.37C214,219.1,212.75,217.07,213.44,214.28Zm-65.69-88.61h-4.25c1.44,1.18,1,2.65.85,4.06,0,.49-.46,1.24.26,1.41s.82-.65.95-1.21C145.91,128.42,146.14,126.85,147.75,125.67Zm87.32,113.47c-1.9-.92-3.86-1.7-4.51-4.06a39.12,39.12,0,0,1-1.31,4.39C231.3,238.55,233.17,239.3,235.06,239.14Zm-57.32-24.92c-.59,2.1-2.13,1.51-3.66,1.57,2,1.24,3.83,2.32,5.59,3.44C178.92,217.62,177.88,216.28,177.75,214.22ZM155.92,76.75A11.2,11.2,0,0,1,153.6,81c1.5.1,2.72.2,4.12.33C157.07,79.63,156.51,78.19,155.92,76.75ZM118.6,214.28c-.43,2-1.5,3.08-2.75,4.49,2.42-.69,4.15-1.9,6.25-2.91C120.72,215.66,119.32,216.31,118.6,214.28Zm17.76-85.5a7.13,7.13,0,0,1,3.3-3.54c-1.6-.23-2.36-1.24-3.3-2.23Zm18.32-50.27h-2.91c-1.24,0-.62,1-.85,1.6-.36.85.39.65.82.75C153.47,81.2,153.44,79.43,154.68,78.52Zm-18.42,81a26.46,26.46,0,0,0,.52,5,4.73,4.73,0,0,1,2.29-2.23A8.73,8.73,0,0,1,136.26,159.5Zm3.6,8c-.26,1.08-.33,2.1-1.28,2.85H143A6.2,6.2,0,0,1,139.86,167.52Zm-1.31-33.6a12.79,12.79,0,0,0,3.86-1.67c-1.24-.23-1.37-1.18-1.77-2.06C140.74,131.89,139.34,132.68,138.55,133.92Zm11.94-6.48a6,6,0,0,1-1,2.59c1-.26,1.9-.46,2.78-.69C151.47,129,151.15,128.42,150.49,127.44ZM136.43,51.89A4,4,0,0,1,139,49.73c-1.21-.16-2-.26-2.88-.39C136.23,50.19,136.29,50.88,136.43,51.89ZM222.08,229a10.56,10.56,0,0,0-4.25-.92C219.23,228.46,220.54,229.12,222.08,229Z"/><path id="Shape-6" data-name="Shape" class="cls-6" d="M227.95,148.25a6.29,6.29,0,0,1,.78,0c4.11,0,8.26-.29,12.38-.49,3.14-.16,6.24-.82,9.41-.46l1,.69c.2.49.42,1,.62,1.5,1,2.58.59,4.31-1.5,6.11a21.07,21.07,0,0,1-9.8,4.51c-6.6,1.31-13.23,2.58-20,2.22A71,71,0,0,1,208,160.54c-5.88-1.44-7.51-5.23-4.57-10.52l.91-.39a30.33,30.33,0,0,1,6.4-1C216.45,148.06,222.2,148.42,227.95,148.25Zm12.38,2c-.42,0-.85-.07-1.27-.07-7.77.26-15.54-.1-23.32.29-2.71.13-5.42,0-8.13.36-1,.16-2,.56-2.25,1.6a10.39,10.39,0,0,0,0,4.15,7.27,7.27,0,0,1,4.9-2.42c5.75-1,11.56-1,17.34-1.6A85.12,85.12,0,0,0,240.33,150.28Zm6.53,5.2a6.11,6.11,0,0,0,2.61-1.27c.78-.62,1.7-1.44,1.34-2.39-.42-1.14-1.7-.69-2.61-.52-2.74.46-5.45,1-8.16,1.57-5.19,1.11-10.45,1.9-15.61,3.27-.75.2-1.7.36-1.6,1.5a2,2,0,0,0,1.7,1.76,10.17,10.17,0,0,0,4.34.26c-1.34-1.7-1.18-2.42.88-2.94,4.9-1.24,9.8-2.42,14.73-3.5C246.43,152.76,247,153.38,246.86,155.48Zm-26.58,0a32.34,32.34,0,0,1-7.32.95c-.65,0-1.21.16-1.24.95a.89.89,0,0,0,.88,1l7.64.78A5.23,5.23,0,0,1,220.27,155.48Z"/><path id="Shape-7" data-name="Shape" class="cls-6" d="M65.94,148.27a6.29,6.29,0,0,0,.78,0c3.47,0,7,0,10.43.07,4.45.1,8.89.1,13.24,1.28.29.13.62.26.92.43a7.41,7.41,0,0,1,1.27,3.76c.26,3.27-1,5.47-4.18,6.28A60,60,0,0,1,64,161.89c-3.53-.52-7.09-1-10.59-1.77a24.66,24.66,0,0,1-7.22-2.85c-5.26-3.11-4.84-5.63-3.11-9.23.33-.23.65-.46,1-.69a10.33,10.33,0,0,1,2.26-.1C52.9,147.82,59.4,148.24,65.94,148.27Zm-11.31,2.26c6.51,1.67,13.44,2.09,20.33,2.75,4.94.46,10.1-.13,14.48,3.14v-2.68c0-1.93-.65-2.55-2.62-2.85a56.43,56.43,0,0,0-8.14-.33C70.62,150.5,62.51,150.53,54.63,150.53Zm-6.77,5c-.26-2.09.36-2.75,2.35-2.32,4.87,1.08,9.74,2.26,14.58,3.47,2.19.56,2.35,1.18,1,3a10.76,10.76,0,0,0,4.35-.33,2,2,0,0,0,1.63-1.83c.07-1-.82-1.15-1.5-1.41a11.27,11.27,0,0,0-1.41-.39c-5.92-1.18-11.83-2.39-17.75-3.57-1.8-.36-3.63-.72-5.46-1-.69-.1-1.54-.26-1.9.52s.26,1.34.69,1.87A6.94,6.94,0,0,0,47.86,155.57Zm26.51,0a4,4,0,0,1,.23,2.85c-.29.92.16.88.78.79l6.47-.69c.59-.07,1.08-.29,1.08-1s-.49-1-1.18-1A37.47,37.47,0,0,1,74.37,155.54Z"/><path id="Shape-8" data-name="Shape" class="cls-4" d="M136.16,195.92c.82.17,1,.93,1.35,1.52,1.64,2.54,3.68,3.8,7,3.31,2.83-.43,5.42-1.52,8.18-2.12.79-.17,1.61-.3,2.53-.46-.36-.73-1.28-1.29-.89-2.28a2.65,2.65,0,0,1,1.15-1.32c2.27-1.39,3.94-1.16,5.22.69v1.85a1.33,1.33,0,0,1-.23,1.16l0,0c-.53.43-.62,1.26-1.41,1.39l-1,.3c-1.87.53-3.71,1.09-5.59,1.62a1.53,1.53,0,0,0-1.12.36,18.33,18.33,0,0,0-5.13,2,1.24,1.24,0,0,0-1.05.63,7.13,7.13,0,0,0-3.19,4c-.2.66-.85,1.16-.66,1.75,1.05-1,2.2-2,3.32-3.07a2.08,2.08,0,0,0,.79-.13c2.89-1.65,6.14-2.12,9.33-2.64,3-.5,3.78.17,4.27,3.14a5.06,5.06,0,0,0,1.71,3.57c.39.46.2.69-.3.69a10.58,10.58,0,0,1-1.45-.07c-.62-1.29-1.25-2.54-1.84-3.83a2.25,2.25,0,0,0-2.43-1.45,21.44,21.44,0,0,0-12.71,4.66c-.69.66-1.54.2-2.3.33-.39-2.64.79-4.86,2.17-7.17-4.5.76-5.32.4-5.52-2.38a25.3,25.3,0,0,1-.3-5.68A.74.74,0,0,1,136.16,195.92Zm21.06,1.88c1-.26,1.74-.5,1.71-1.59,0-.5-.2-.73-.69-.59-.76.17-1.54.4-1.41,1.42C156.86,197.34,156.76,197.87,157.22,197.81Z"/><path id="Shape-9" data-name="Shape" class="cls-4" d="M136.06,109.67c.72,3.78,3.67,4.24,6.72,4.5,4.59.39,9-.65,13.28-2,.36-.1.62-.16.46-.62-.49-1.24.16-2,1.21-2.45a2.66,2.66,0,0,1,3.28.55c0,1,0,1.92-.07,2.9-1.87,3.39-5.25,3.65-8.53,4a6.31,6.31,0,0,0-4.59,2.32c-.23.2-.59.33-.23.72-.16-.26-.33-.1-.49,0s0,.23,0,.23c.23.07.39,0,.43-.26l.52-.42c3.12-2.93,7.08-2.41,10.85-2.64a2.59,2.59,0,0,1,1.93,1c-.07,2-.13,4-.23,6.07,0,.26.2,1.27-.62.39.13-.39.2-.75-.36-.85l0,0c0-.26-.07-.42-.36-.36l0,0a18.62,18.62,0,0,1-.13-2.38,1.43,1.43,0,0,0-1.25-1.79c-3.8-.1-7.77-.75-10.76,2.64-.46.52-1,.88-1.67.52l0,0c-.36-.33-.36-.62-.13-1.11.56-1.17,1-2.45,1.41-3.65-2.3,1.5-4.72,1.24-7.15,1a2.71,2.71,0,0,1-2.46-2,8.14,8.14,0,0,0-1.54-2.8C135.76,112.11,135.47,110.84,136.06,109.67Zm22.92.85c-.3.07-.82.07-1,.68-.07.29.16.59.43.49.46-.13,1.15,0,1.18-.78C159.7,110.55,159.4,110.52,159,110.52Z"/><path id="Shape-10" data-name="Shape" class="cls-4" d="M135.83,69.27c1,4,3.84,4.74,7.59,4.54,3.52-.19,6.8-1.49,10.28-1.79a5.07,5.07,0,0,1,1-.1c1.08.1,1.91.19,1.87-1.4,0-1.23,2-2.14,3.38-1.72.46.16.89.39,1.35.58a7.6,7.6,0,0,1-.23,3.93l-1.05,1-.62.1a22.4,22.4,0,0,1-3.91.26c-.13,0-.26,0-.39.06l0,0c0-.19-.16-.23-.33-.16a11.26,11.26,0,0,0-3.88.75c-.16,0-.33,0-.49.06s-.16.19-.23.29l0,0a6.16,6.16,0,0,0-3.94,3c-.1.42-.23.88-.33,1.3a.48.48,0,0,1-.07.29c-.3.1-.59.16-.92.26-.49-1.79.66-3.15,1.31-4.64a.49.49,0,0,0-.62.19c-2.53,2.69-5.29,2.86-8.21.52-.2-.16-.36-.62-.76-.23h0c.2-.58.16-1-.59-1,.26-1.49-.62-2.89-.36-4.38A15.67,15.67,0,0,0,135.83,69.27Z"/><path id="Shape-11" data-name="Shape" class="cls-4" d="M166.5,234.6c.53-.59,1.22-.23,1.82-.23a50.66,50.66,0,0,1,5.46.07c3.54.33,5.53-1.54,6.88-4.45a8.58,8.58,0,0,1,0,3.44c-.3,1.47-.56,2.94-1,4.42a3.38,3.38,0,0,1-3.44,2.65c-2.48.2-4.8-.1-6.65-1.93A10.74,10.74,0,0,0,166.5,234.6Z"/><path id="Shape-12" data-name="Shape" class="cls-4" d="M116,230.83h.16c1.8,4.81,5.63,4.91,9.78,4.38a11.56,11.56,0,0,1,3.83-.36c-1.64.86-2.32,2.44-2.91,4.05-.82.26-1.34,1.09-2.29,1.05-1.64,0-3.24.1-4.87.16a2.67,2.67,0,0,1-2.94-2.44,32.38,32.38,0,0,1-.72-5C116.32,232.08,115.51,231.45,116,230.83Z"/><path id="Shape-13" data-name="Shape" class="cls-4" d="M135.75,144.28c.69.1.63.66.73,1.11.76,4.72,2.81,5.28,7.73,4.62a7.08,7.08,0,0,1,2.87-.1c-1,1-2,1.9-3,2.85a6.73,6.73,0,0,0-.86.36c-2.38,1.38-3.27,1.15-4.89-1-.5-.69-.73-1.57-1.52-2A11.23,11.23,0,0,1,135.75,144.28Z"/><path id="Shape-14" data-name="Shape" class="cls-6" d="M160.08,179.06a29.44,29.44,0,0,0-.83-7c-.13-.84-1.16-.68-1.82-.75l-9.62-1.07a1.5,1.5,0,0,1-1.16-.55,6.09,6.09,0,0,1,3.08-.68c2.25,0,4.5,0,6.75,0s2.88-.52,3.31-2.69c.13-.75.4-1.46.6-2.17.3,0,.6,0,.63.42a3.35,3.35,0,0,0-.6,1.65c-.46,2.69-1.39,3.44-4.2,3.4-2.12,0-4.23,0-6.35,0a80.71,80.71,0,0,0,8.33,1.23,1.83,1.83,0,0,1,1.89,1.94c.13,1.23,0,2.53.66,3.69s-.23,2.17,0,3.27C160.22,179.68,160.18,179.32,160.08,179.06Z"/><path id="Shape-15" data-name="Shape" class="cls-6" d="M166.55,244.44a2.83,2.83,0,0,0-2-.9c-2.53-.39-5.3-.39-4.9-4.27-.36,1.35-.46,2.57-1.41,3.43s-2.34.83-3.55,1a8.59,8.59,0,0,0-3.88,1,5,5,0,0,1-.72.06v0c0-.32-.13-.67.23-.9,1.91-.35,3.78-.67,5.69-.87s2.76-1.28,2.8-3.27c0-.9-.1-1.8-.1-2.73a.64.64,0,0,1,.59-.67c.43,0,.56.26.62.58a12.14,12.14,0,0,1,.39,2.7c0,2.31.56,3,2.93,3.18a9.12,9.12,0,0,1,4.54,1.64C167.37,245,166.94,244.66,166.55,244.44Z"/><path id="Shape-16" data-name="Shape" class="cls-6" d="M128.92,244.81c.91-1.08,2.24-1.21,3.5-1.35,2.69-.33,3.21-.89,3.27-3.64a8.8,8.8,0,0,1,.36-2.43c.1-.33.23-.69.58-.66a.74.74,0,0,1,.65.82c0,.66-.1,1.31-.16,2-.23,2.53.75,3.87,3.21,4.13a20.64,20.64,0,0,1,5.48,1.15l0,0v.36c-.75-.1-1.52.23-2.27-.13-.94-1-2.2-.62-3.31-.75-2.5-.36-3.63-1.51-3.63-4.07,0-.72.06-1.44.1-2.17a8.56,8.56,0,0,0-.52,2.53c-.16,2.43-.58,2.85-3,3.41-1.07.26-2.27.07-3.21.89A5.15,5.15,0,0,0,128.92,244.81Z"/><path id="Shape-17" data-name="Shape" class="cls-6" d="M157.94,160.09c-.78-.84-1.92-.88-2.9-1.3-1.47-.62-3.1-1-3.52-3.11-.62,3.31-3.33,2.34-5.31,2.79-.95.23-2-.13-2.9.58-.46-.23-1.47.26-1.27-.91a36.94,36.94,0,0,0,7.33-.65c1.14-.19,1.21-1.1,1.37-1.91a14.53,14.53,0,0,1,.78-3.28c.88.58.55,1.36.52,2-.1,1.85.59,3.15,2.41,3.67,1.27.39,2.44,1.17,3.88,1.14h0c-.33.42.07.49.29.62s.42.23.23.42C158.6,160.51,158.27,160.25,157.94,160.09Z"/><path id="Shape-18" data-name="Shape" class="cls-6" d="M75.6,226.18c-.1-.45-.19-.94-.32-1.39-.77-2.81-1.1-3-4-2.19-.71.19-1.42.58-2.13,0-.23-.13-.19-.32-.1-.52a10.44,10.44,0,0,1,3.19-1.39,2.44,2.44,0,0,0,2-2.19,19.35,19.35,0,0,1,.77-2.9c.87.16.35.84.48,1.29-.77,2-1.19,4.33-3.87,4.84a.84.84,0,0,0-.94.36c.45-.1.77,0,1-.32,3.36,0,3.36,0,4.16,2.16C76,224.67,76.56,225.47,75.6,226.18Z"/><path id="Shape-19" data-name="Shape" class="cls-6" d="M226.77,223.16c-1.12.17-2.11-.4-3.17-.6-1.65-.33-2.51.17-2.71,1.86-.07.6-.43,1.13-.3,1.76-.83-.43-.36-1.23-.2-1.63a2.57,2.57,0,0,0-.1-1.66,5.09,5.09,0,0,1,4.2-.83c.26.3.56.33,1,0-.4-.07-.66-.07-.93-.1-1.95-.56-3.34-1.66-3.57-3.85,0,0-.2,0-.3-.07a2.06,2.06,0,0,1,.23-2c.53,3.22,2.21,5.32,5.52,6a1.38,1.38,0,0,1,.4.27A6.89,6.89,0,0,0,226.77,223.16Z"/><path id="Shape-20" data-name="Shape" class="cls-6" d="M93.71,241.38a16.1,16.1,0,0,1-3.48-4.75,4.62,4.62,0,0,0-5-2.8.38.38,0,0,1-.19-.55,4.33,4.33,0,0,1,.65-.68c1.52-1,3.45-1.66,2.58-4.3,1.13,2.18.94,2.54-2.58,5,3.39-.29,4.32,2.05,5.61,4,.71,1.07,1.16,2.38,2.45,3h0C93.46,240.7,94.2,241.06,93.71,241.38Z"/><path id="Shape-21" data-name="Shape" class="cls-6" d="M206.61,235c.73-1.42,2.25-1,3.39-1.48-.06-.16-.06-.33-.1-.36-3-1.05-2.7-3.33-2.19-5.86a15,15,0,0,0,.19-5.7c-.06-.33-.1-.66-.41-.82s-.25-.43-.06-.49c.48-.2.79.2,1.11.53-.1.13-.32.3.06.36l0,0a37.21,37.21,0,0,1-.6,8.4,2,2,0,0,0,1.17,2.5c.76.4,1.9.63,1.65,2C209.37,234.39,208,234.72,206.61,235Z"/><path id="Shape-22" data-name="Shape" class="cls-6" d="M219.83,230.43c0,2.38-.13,4.79,3.67,4.69-3.27.4-5.53,1.75-6.5,4.72a4.75,4.75,0,0,1-.6.26,2.51,2.51,0,0,1-.5,0c0-1.16,1.1-1.62,1.5-2.48,1.1-.92,1.77-2.48,3.57-2.48a1.86,1.86,0,0,1-1.57-2.18c0-.63.2-1.32-.23-1.91C219.06,230.53,219.29,230.33,219.83,230.43Z"/><path id="Shape-23" data-name="Shape" class="cls-6" d="M201.07,241.71c.8.42,1-.39,1.19-.74,1.09-1.64,2.06-3.31,3.12-5,.32-.51.45-1.22,1.22-1.35-1.58,3.38-3.31,6.66-6.28,9.14-.42.35-1.06.55-1.19,1.19-.45.39-.74.26-.42-.26a18.72,18.72,0,0,1,1.54-2c.26,0,.48,0,.51-.35l0,0c.39-.06.71-.19.32-.64Z"/><path id="Shape-24" data-name="Shape" class="cls-6" d="M77.71,231.26a5,5,0,0,0-.25,2,1.86,1.86,0,0,1-1.11,1.91c.41.62,1.59.42,1.49,1.52-1.2-.94-2.79-.58-4.22-1.2a1.74,1.74,0,0,1,1.65-.71c1.17,0,1.68-.58,1.62-1.81-.06-.84,0-1.68,0-2.56C77.64,230.23,77.55,230.87,77.71,231.26Z"/><path id="Shape-25" data-name="Shape" class="cls-6" d="M88.37,221.53c-.57,1.46-.24,3-.12,4.46.06.54.42,1.15-.33,1.46a20.48,20.48,0,0,1-.12-7C88.43,220.13,88.43,220.13,88.37,221.53Z"/><path id="Shape-26" data-name="Shape" class="cls-6" d="M95.91,244.62c-.45-1.07-1.8-1.38-2-2.65.23-.41.45.07.68,0l0,0c0,.24.1.38.35.38l0,0a.34.34,0,0,0,.39.38c.45.28.55,1,1.13,1.14.19.07.64.41.42.76S96.23,244.83,95.91,244.62Z"/><path id="Shape-27" data-name="Shape" class="cls-6" d="M78.26,237.18c1.08-.19,1,1,1.78,1.27a4.87,4.87,0,0,1,.73,1.2c.1.55-.24.58-.66.26C79.48,239,78.85,238.09,78.26,237.18Z"/><path id="Shape-28" data-name="Shape" class="cls-6" d="M136.95,201.7h-.65a12.3,12.3,0,0,1,.26-5.49A19.36,19.36,0,0,0,136.95,201.7Z"/><path id="Shape-29" data-name="Shape" class="cls-6" d="M151.72,60.84c0,.24,0,.45,0,.69-.68-.12-1.35-.28-2.5-.53A3.74,3.74,0,0,1,151.72,60.84Z"/><path id="Shape-30" data-name="Shape" class="cls-6" d="M228.36,59.42c-.22,0-.43,0-.65-.07.17-.47.3-.93.56-1.62A1.61,1.61,0,0,1,228.36,59.42Z"/><path id="Shape-31" data-name="Shape" class="cls-5" d="M177.05,228.59c-.26.48-.72.42-1.11.26a7.05,7.05,0,0,0-6.23.84c-3.55,2.09-6.59,1.09-9.42-1.16-1.86-1.48-3.59-3.09-6.07-3.51-.39-.06-.78-.29-.82-.68s.42-.71.82-.87c1-.35,2.05-.68,3.1-.93,2.15-.48,4.34-.93,6.52-1.32a4.67,4.67,0,0,1,3.59.61c3.07,2,6.1,4.08,9.13,6.14C176.79,228.14,177.05,228.23,177.05,228.59Zm-8.38-4.86c-.1-.19-.23-.35-.46-.13,0,0,.1.23.16.35,1.14,1.7,1.14,3.34-.65,5.21,2.35-.71,4.24-1.54,6.82-1.54C172.33,226.14,170.5,224.92,168.67,223.73Zm-2.38-1.13c-1.08-.77-8.45.19-11.71,1.64,3.1.39,4.86,2.54,7.14,4.28C160.39,224.79,162.18,222.41,166.29,222.61Zm1.5.55s-.1.06-.1.1.07.13.1.19.1-.06.1-.1S167.83,223.22,167.79,223.15Z"/><path id="Shape-32" data-name="Shape" class="cls-5" d="M131.39,221.12c3.52.8,7.17,1.09,10.59,2.32.42.16.88.42.88.84s-.52.68-.94.77c-2.35.42-4,1.9-5.8,3.35-2.9,2.35-6,3.41-9.68,1.26a6.84,6.84,0,0,0-6.22-.74c-.36.13-.81.19-1-.26s.29-.52.55-.68c2.93-2,5.9-4,8.86-6A4.12,4.12,0,0,1,131.39,221.12Zm-3.68,2.48c-1.89,1.26-3.75,2.54-6,4a18.6,18.6,0,0,1,6.55,1.48,4,4,0,0,1-.36-5.22c.13-.06.26-.16.16-.29S127.84,223.6,127.71,223.6Zm6.94,4.35c.13.29.36.19.49.06,1.86-1.67,3.78-3.32,6.78-4-9.9-2.38-10.85-2.48-12.87-1.29,5.18,0,6.84,1.51,5.67,5.22-.07.06-.1.13-.16.19h.2A1.56,1.56,0,0,0,134.65,227.95Z"/><path id="Shape-33" data-name="Shape" class="cls-5" d="M100,218.16a43.52,43.52,0,0,0,2.8,10.54c1.41,3.33,3,6.59,4.63,10.15C104.15,237.23,98.75,221.78,100,218.16Z"/><path id="Shape-34" data-name="Shape" class="cls-5" d="M196.18,218.16c1.64,3.19-4,18.41-7.73,20.69C191.66,231.92,195.61,225.64,196.18,218.16Z"/><path id="Shape-35" data-name="Shape" class="cls-5" d="M149.91,187.37A21.19,21.19,0,0,1,157.2,189c.36.13.82.27.85.71s-.46.54-.82.67a23.56,23.56,0,0,0-4.5,2.7c-2.23,1.52-4.53,2-7.06.64a8.83,8.83,0,0,0-4.73-1.08c-.36,0-.82.07-1-.37s.13-.78.46-.94C143.34,189.53,146.07,187,149.91,187.37Zm-8.27,4.35a16.44,16.44,0,0,1,5.32,1.42,5.25,5.25,0,0,1-.72-4.38A19.76,19.76,0,0,0,141.63,191.72Zm9.88-3.47a5,5,0,0,1,1,3.81c1.41-.88,2.59-1.65,3.91-2.49C154.87,189.16,153.46,188.79,151.52,188.25Z"/><path id="Shape-36" data-name="Shape" class="cls-5" d="M147.87,146.39a6.23,6.23,0,0,1-2.57-.53,8.54,8.54,0,0,0-5-.73c-.26.07-.56.17-.76-.1a.37.37,0,0,1,.1-.57c3.13-2.1,5.8-5.27,10.14-4.77a14.53,14.53,0,0,1,6.75,2.43c.56.37,1.09,1.07.1,1.27a49.8,49.8,0,0,0-7.8,2.87A3.22,3.22,0,0,1,147.87,146.39Zm-3.19-4.47c-.69,1-2,1.27-2.86,2.27,1.19.2,2.27.4,3.56.63-.59-1.07-.36-2-.69-2.9,0,0,0,0,.07.07S144.7,142,144.67,141.92Zm6.36-.8a.43.43,0,0,0,0-.2l-.13,0c.07,0,.13.1.2.13a5.87,5.87,0,0,1,.3,2.93c1.38-.43,2.67-.87,4.28-1.37C154,141.85,152.71,141,151,141.12Z"/><path id="Shape-37" data-name="Shape" class="cls-5" d="M157.63,138.12a1,1,0,0,1-1.35.73c-4.89-2.24-9.39-.45-13.93,1.21-.92.35-1.84.7-2.76,1-.56.19-1.22.48-1.61-.19a1.32,1.32,0,0,1,.33-1.76,7.84,7.84,0,0,1,1.77-1.12c2.33-1,4.7-2,7-3a4.21,4.21,0,0,1,3.61,0c1.9.8,3.88,1.47,5.78,2.2C157,137.36,157.57,137.45,157.63,138.12Z"/><path id="Shape-38" data-name="Shape" class="cls-5" d="M150.58,110a4.22,4.22,0,0,1-4.75,1.1c-1-.33-1.93-1.24-3.11-1.37s-2.13,0-3.21,0c0-.27-.07-.43,0-.47,4.52-3,9.2-4.14,14.2-1.24a1.25,1.25,0,0,1,.56.53c.07.43-.33.5-.62.6-.52.13-1,.23-1.6.33-.1-.1-.16-.2-.26-.3.43-.2.85-.4,1.51-.73-1.37-.5-2.55-.9-3.7-1.3,0,.87,0,1.57,0,2.27,0,.93.52.37.85.37C150.48,109.83,150.55,109.89,150.58,110Zm-6.25-2.44-3.11,1.37c1.31.3,2.23.53,3.21.77C144.43,109,144.4,108.36,144.33,107.52Z"/><path id="Shape-39" data-name="Shape" class="cls-5" d="M159.32,199.59c-1.09,3.25-3.3,4.43-6.67,3.54a.79.79,0,0,0-.83.26,7.31,7.31,0,0,1-5.28,1.54c-.46-.07-.43.26-.46.46-.13.75-.76,1.11-1.12,1.7-1.12,1-2.24,2.07-3.33,3-.2-.59.46-1.11.66-1.74A12.42,12.42,0,0,0,143.8,207c.66-.79,1.85-1.25,1.68-2.56a1.3,1.3,0,0,1,1.06-.62,4.33,4.33,0,0,0,5.15-2,1.5,1.5,0,0,1,1.12-.36c.17.49.17,1.18,1,1,1.91-.26,3.83-.52,4.65-2.66Q158.83,199.73,159.32,199.59Z"/><path id="Shape-40" data-name="Shape" class="cls-5" d="M156.37,67c-2.87,0-4.69,1.82-6.73,3.28-1.29.93-2.71.43-3.83-.43a6,6,0,0,0-5.05-1.33c-.3.07-.66.17-.83-.27-.1-.27.1-.4.3-.5,4.56-2.75,9.21-4.71,14.52-2.06a12.64,12.64,0,0,1,1.16.6A5.48,5.48,0,0,1,156.37,67ZM150,65.18a5.33,5.33,0,0,1,.63,3.52,12.34,12.34,0,0,1,3.8-2.12C153.06,65.58,151.68,65.48,150,65.18Zm-4.92,3.28c0-.8.07-1.53.13-2.39l-3.27,1.66C143.1,68,144,68.23,145.08,68.46Z"/></g><g id="VATJSS"><g id="Group"><g id="VATJSS-2" data-name="VATJSS" class="cls-7"><text class="cls-8" transform="translate(310 195)">VATJSS</text><text class="cls-9" transform="translate(814.92 195)"> </text></g></g></g></g></g></svg>